<mxfile host="Electron" modified="2024-06-22T04:02:04.329Z" agent="Mozilla/5.0 (Windows NT 10.0; Win64; x64) AppleWebKit/537.36 (KHTML, like Gecko) draw.io/24.6.1 Chrome/124.0.6367.207 Electron/30.0.6 Safari/537.36" etag="lUi9IYN0fVSLHzn1UZfV" version="24.6.1" type="device">
  <diagram name="第 1 页" id="33T3oQKg2jp4dK40noAK">
    <mxGraphModel dx="1195" dy="697" grid="1" gridSize="10" guides="1" tooltips="1" connect="1" arrows="1" fold="1" page="1" pageScale="1" pageWidth="1169" pageHeight="1654" math="0" shadow="0">
      <root>
        <mxCell id="0" />
        <mxCell id="1" parent="0" />
        <mxCell id="g6_AhTPun-7F87K8Tb2L-1" value="" style="rounded=1;whiteSpace=wrap;html=1;fillColor=none;dashed=1;strokeWidth=2;" parent="1" vertex="1">
          <mxGeometry x="30" y="30" width="220" height="140" as="geometry" />
        </mxCell>
        <mxCell id="MjjTUTkJ0xS1mPN5Bs5z-238" value="" style="rounded=1;whiteSpace=wrap;html=1;fillColor=none;dashed=1;strokeWidth=2;" parent="1" vertex="1">
          <mxGeometry x="30" y="750" width="220" height="140" as="geometry" />
        </mxCell>
        <mxCell id="MjjTUTkJ0xS1mPN5Bs5z-240" value="" style="rounded=1;whiteSpace=wrap;html=1;fillColor=none;dashed=1;strokeWidth=2;" parent="1" vertex="1">
          <mxGeometry x="590" y="270" width="220" height="140" as="geometry" />
        </mxCell>
        <mxCell id="MjjTUTkJ0xS1mPN5Bs5z-1" value="" style="rounded=0;whiteSpace=wrap;html=1;" parent="1" vertex="1">
          <mxGeometry x="40" y="40" width="40" height="40" as="geometry" />
        </mxCell>
        <mxCell id="MjjTUTkJ0xS1mPN5Bs5z-26" style="edgeStyle=orthogonalEdgeStyle;rounded=0;orthogonalLoop=1;jettySize=auto;html=1;exitX=0;exitY=1;exitDx=0;exitDy=0;entryX=0;entryY=0;entryDx=0;entryDy=0;" parent="1" source="MjjTUTkJ0xS1mPN5Bs5z-2" target="MjjTUTkJ0xS1mPN5Bs5z-19" edge="1">
          <mxGeometry relative="1" as="geometry" />
        </mxCell>
        <mxCell id="MjjTUTkJ0xS1mPN5Bs5z-2" value="5" style="rounded=0;whiteSpace=wrap;html=1;fillColor=#ffcc99;strokeColor=#36393d;" parent="1" vertex="1">
          <mxGeometry x="80" y="40" width="40" height="40" as="geometry" />
        </mxCell>
        <mxCell id="MjjTUTkJ0xS1mPN5Bs5z-3" value="" style="rounded=0;whiteSpace=wrap;html=1;" parent="1" vertex="1">
          <mxGeometry x="160" y="40" width="40" height="40" as="geometry" />
        </mxCell>
        <mxCell id="MjjTUTkJ0xS1mPN5Bs5z-27" style="edgeStyle=orthogonalEdgeStyle;rounded=0;orthogonalLoop=1;jettySize=auto;html=1;exitX=0;exitY=1;exitDx=0;exitDy=0;entryX=0;entryY=0;entryDx=0;entryDy=0;" parent="1" source="MjjTUTkJ0xS1mPN5Bs5z-4" target="MjjTUTkJ0xS1mPN5Bs5z-21" edge="1">
          <mxGeometry relative="1" as="geometry" />
        </mxCell>
        <mxCell id="MjjTUTkJ0xS1mPN5Bs5z-4" value="" style="rounded=0;whiteSpace=wrap;html=1;" parent="1" vertex="1">
          <mxGeometry x="200" y="40" width="40" height="40" as="geometry" />
        </mxCell>
        <mxCell id="MjjTUTkJ0xS1mPN5Bs5z-34" style="edgeStyle=orthogonalEdgeStyle;rounded=0;orthogonalLoop=1;jettySize=auto;html=1;exitX=1;exitY=1;exitDx=0;exitDy=0;entryX=0;entryY=0;entryDx=0;entryDy=0;" parent="1" source="MjjTUTkJ0xS1mPN5Bs5z-5" target="MjjTUTkJ0xS1mPN5Bs5z-31" edge="1">
          <mxGeometry relative="1" as="geometry" />
        </mxCell>
        <mxCell id="MjjTUTkJ0xS1mPN5Bs5z-5" value="a1" style="rounded=0;whiteSpace=wrap;html=1;fillColor=#ffcc99;strokeColor=#36393d;" parent="1" vertex="1">
          <mxGeometry x="320" y="40" width="40" height="40" as="geometry" />
        </mxCell>
        <mxCell id="MjjTUTkJ0xS1mPN5Bs5z-6" value="b1" style="rounded=0;whiteSpace=wrap;html=1;fillColor=#ffcc99;strokeColor=#36393d;" parent="1" vertex="1">
          <mxGeometry x="360" y="40" width="40" height="40" as="geometry" />
        </mxCell>
        <mxCell id="MjjTUTkJ0xS1mPN5Bs5z-7" value="c1+c2" style="rounded=0;whiteSpace=wrap;html=1;fillColor=#ffcc99;strokeColor=#36393d;" parent="1" vertex="1">
          <mxGeometry x="440" y="40" width="40" height="40" as="geometry" />
        </mxCell>
        <mxCell id="MjjTUTkJ0xS1mPN5Bs5z-37" style="edgeStyle=orthogonalEdgeStyle;rounded=0;orthogonalLoop=1;jettySize=auto;html=1;exitX=0;exitY=1;exitDx=0;exitDy=0;entryX=0;entryY=0;entryDx=0;entryDy=0;" parent="1" source="MjjTUTkJ0xS1mPN5Bs5z-8" target="MjjTUTkJ0xS1mPN5Bs5z-33" edge="1">
          <mxGeometry relative="1" as="geometry" />
        </mxCell>
        <mxCell id="MjjTUTkJ0xS1mPN5Bs5z-8" value="d1+d2" style="rounded=0;whiteSpace=wrap;html=1;fillColor=#ffcc99;strokeColor=#36393d;" parent="1" vertex="1">
          <mxGeometry x="480" y="40" width="40" height="40" as="geometry" />
        </mxCell>
        <mxCell id="MjjTUTkJ0xS1mPN5Bs5z-18" value="a1" style="rounded=0;whiteSpace=wrap;html=1;fillColor=#ffcc99;strokeColor=#36393d;" parent="1" vertex="1">
          <mxGeometry x="40" y="120" width="40" height="40" as="geometry" />
        </mxCell>
        <mxCell id="MjjTUTkJ0xS1mPN5Bs5z-36" style="edgeStyle=orthogonalEdgeStyle;rounded=0;orthogonalLoop=1;jettySize=auto;html=1;exitX=0;exitY=1;exitDx=0;exitDy=0;entryX=0;entryY=0.5;entryDx=0;entryDy=0;" parent="1" source="MjjTUTkJ0xS1mPN5Bs5z-19" target="MjjTUTkJ0xS1mPN5Bs5z-30" edge="1">
          <mxGeometry relative="1" as="geometry" />
        </mxCell>
        <mxCell id="MjjTUTkJ0xS1mPN5Bs5z-19" value="b1" style="rounded=0;whiteSpace=wrap;html=1;fillColor=#ffcc99;strokeColor=#36393d;" parent="1" vertex="1">
          <mxGeometry x="80" y="120" width="40" height="40" as="geometry" />
        </mxCell>
        <mxCell id="MjjTUTkJ0xS1mPN5Bs5z-20" value="c1" style="rounded=0;whiteSpace=wrap;html=1;fillColor=#ffcc99;strokeColor=#36393d;" parent="1" vertex="1">
          <mxGeometry x="160" y="120" width="40" height="40" as="geometry" />
        </mxCell>
        <mxCell id="MjjTUTkJ0xS1mPN5Bs5z-38" style="edgeStyle=orthogonalEdgeStyle;rounded=0;orthogonalLoop=1;jettySize=auto;html=1;" parent="1" source="MjjTUTkJ0xS1mPN5Bs5z-21" edge="1">
          <mxGeometry relative="1" as="geometry">
            <mxPoint x="480" y="140" as="targetPoint" />
          </mxGeometry>
        </mxCell>
        <mxCell id="MjjTUTkJ0xS1mPN5Bs5z-21" value="d1" style="rounded=0;whiteSpace=wrap;html=1;fillColor=#ffcc99;strokeColor=#36393d;" parent="1" vertex="1">
          <mxGeometry x="200" y="120" width="40" height="40" as="geometry" />
        </mxCell>
        <mxCell id="MjjTUTkJ0xS1mPN5Bs5z-30" value="" style="rounded=0;whiteSpace=wrap;html=1;" parent="1" vertex="1">
          <mxGeometry x="320" y="200" width="40" height="40" as="geometry" />
        </mxCell>
        <mxCell id="MjjTUTkJ0xS1mPN5Bs5z-31" value="" style="rounded=0;whiteSpace=wrap;html=1;" parent="1" vertex="1">
          <mxGeometry x="360" y="200" width="40" height="40" as="geometry" />
        </mxCell>
        <mxCell id="MjjTUTkJ0xS1mPN5Bs5z-32" value="c2" style="rounded=0;whiteSpace=wrap;html=1;fillColor=#ffcc99;strokeColor=#36393d;" parent="1" vertex="1">
          <mxGeometry x="440" y="200" width="40" height="40" as="geometry" />
        </mxCell>
        <mxCell id="MjjTUTkJ0xS1mPN5Bs5z-33" value="d2" style="rounded=0;whiteSpace=wrap;html=1;fillColor=#ffcc99;strokeColor=#36393d;" parent="1" vertex="1">
          <mxGeometry x="480" y="200" width="40" height="40" as="geometry" />
        </mxCell>
        <mxCell id="MjjTUTkJ0xS1mPN5Bs5z-39" value="" style="rounded=0;whiteSpace=wrap;html=1;" parent="1" vertex="1">
          <mxGeometry x="600" y="40" width="40" height="40" as="geometry" />
        </mxCell>
        <mxCell id="MjjTUTkJ0xS1mPN5Bs5z-40" style="edgeStyle=orthogonalEdgeStyle;rounded=0;orthogonalLoop=1;jettySize=auto;html=1;exitX=0;exitY=1;exitDx=0;exitDy=0;entryX=0;entryY=0;entryDx=0;entryDy=0;" parent="1" source="MjjTUTkJ0xS1mPN5Bs5z-41" target="MjjTUTkJ0xS1mPN5Bs5z-53" edge="1">
          <mxGeometry relative="1" as="geometry" />
        </mxCell>
        <mxCell id="MjjTUTkJ0xS1mPN5Bs5z-41" value="" style="rounded=0;whiteSpace=wrap;html=1;" parent="1" vertex="1">
          <mxGeometry x="640" y="40" width="40" height="40" as="geometry" />
        </mxCell>
        <mxCell id="MjjTUTkJ0xS1mPN5Bs5z-42" value="" style="rounded=0;whiteSpace=wrap;html=1;" parent="1" vertex="1">
          <mxGeometry x="720" y="40" width="40" height="40" as="geometry" />
        </mxCell>
        <mxCell id="MjjTUTkJ0xS1mPN5Bs5z-43" style="edgeStyle=orthogonalEdgeStyle;rounded=0;orthogonalLoop=1;jettySize=auto;html=1;exitX=0;exitY=1;exitDx=0;exitDy=0;entryX=0;entryY=0;entryDx=0;entryDy=0;" parent="1" source="MjjTUTkJ0xS1mPN5Bs5z-44" target="MjjTUTkJ0xS1mPN5Bs5z-56" edge="1">
          <mxGeometry relative="1" as="geometry" />
        </mxCell>
        <mxCell id="MjjTUTkJ0xS1mPN5Bs5z-44" value="" style="rounded=0;whiteSpace=wrap;html=1;" parent="1" vertex="1">
          <mxGeometry x="760" y="40" width="40" height="40" as="geometry" />
        </mxCell>
        <mxCell id="MjjTUTkJ0xS1mPN5Bs5z-45" style="edgeStyle=orthogonalEdgeStyle;rounded=0;orthogonalLoop=1;jettySize=auto;html=1;exitX=1;exitY=1;exitDx=0;exitDy=0;entryX=0;entryY=0;entryDx=0;entryDy=0;" parent="1" source="MjjTUTkJ0xS1mPN5Bs5z-46" target="MjjTUTkJ0xS1mPN5Bs5z-58" edge="1">
          <mxGeometry relative="1" as="geometry" />
        </mxCell>
        <mxCell id="MjjTUTkJ0xS1mPN5Bs5z-46" value="a2" style="rounded=0;whiteSpace=wrap;html=1;fillColor=#ffcc99;strokeColor=#36393d;" parent="1" vertex="1">
          <mxGeometry x="880" y="40" width="40" height="40" as="geometry" />
        </mxCell>
        <mxCell id="MjjTUTkJ0xS1mPN5Bs5z-47" value="b2" style="rounded=0;whiteSpace=wrap;html=1;fillColor=#ffcc99;strokeColor=#36393d;" parent="1" vertex="1">
          <mxGeometry x="920" y="40" width="40" height="40" as="geometry" />
        </mxCell>
        <mxCell id="MjjTUTkJ0xS1mPN5Bs5z-48" value="" style="rounded=0;whiteSpace=wrap;html=1;" parent="1" vertex="1">
          <mxGeometry x="1000" y="40" width="40" height="40" as="geometry" />
        </mxCell>
        <mxCell id="MjjTUTkJ0xS1mPN5Bs5z-49" style="edgeStyle=orthogonalEdgeStyle;rounded=0;orthogonalLoop=1;jettySize=auto;html=1;exitX=0;exitY=1;exitDx=0;exitDy=0;entryX=0;entryY=0;entryDx=0;entryDy=0;" parent="1" source="MjjTUTkJ0xS1mPN5Bs5z-50" target="MjjTUTkJ0xS1mPN5Bs5z-60" edge="1">
          <mxGeometry relative="1" as="geometry" />
        </mxCell>
        <mxCell id="MjjTUTkJ0xS1mPN5Bs5z-50" value="" style="rounded=0;whiteSpace=wrap;html=1;" parent="1" vertex="1">
          <mxGeometry x="1040" y="40" width="40" height="40" as="geometry" />
        </mxCell>
        <mxCell id="MjjTUTkJ0xS1mPN5Bs5z-51" value="" style="rounded=0;whiteSpace=wrap;html=1;" parent="1" vertex="1">
          <mxGeometry x="600" y="120" width="40" height="40" as="geometry" />
        </mxCell>
        <mxCell id="MjjTUTkJ0xS1mPN5Bs5z-52" style="edgeStyle=orthogonalEdgeStyle;rounded=0;orthogonalLoop=1;jettySize=auto;html=1;exitX=0;exitY=1;exitDx=0;exitDy=0;entryX=0;entryY=0.5;entryDx=0;entryDy=0;" parent="1" source="MjjTUTkJ0xS1mPN5Bs5z-53" target="MjjTUTkJ0xS1mPN5Bs5z-57" edge="1">
          <mxGeometry relative="1" as="geometry" />
        </mxCell>
        <mxCell id="MjjTUTkJ0xS1mPN5Bs5z-53" value="" style="rounded=0;whiteSpace=wrap;html=1;" parent="1" vertex="1">
          <mxGeometry x="640" y="120" width="40" height="40" as="geometry" />
        </mxCell>
        <mxCell id="MjjTUTkJ0xS1mPN5Bs5z-54" value="" style="rounded=0;whiteSpace=wrap;html=1;" parent="1" vertex="1">
          <mxGeometry x="720" y="120" width="40" height="40" as="geometry" />
        </mxCell>
        <mxCell id="MjjTUTkJ0xS1mPN5Bs5z-55" style="edgeStyle=orthogonalEdgeStyle;rounded=0;orthogonalLoop=1;jettySize=auto;html=1;" parent="1" source="MjjTUTkJ0xS1mPN5Bs5z-56" edge="1">
          <mxGeometry relative="1" as="geometry">
            <mxPoint x="1040" y="140" as="targetPoint" />
          </mxGeometry>
        </mxCell>
        <mxCell id="MjjTUTkJ0xS1mPN5Bs5z-56" value="" style="rounded=0;whiteSpace=wrap;html=1;" parent="1" vertex="1">
          <mxGeometry x="760" y="120" width="40" height="40" as="geometry" />
        </mxCell>
        <mxCell id="MjjTUTkJ0xS1mPN5Bs5z-57" value="a2" style="rounded=0;whiteSpace=wrap;html=1;fillColor=#ffcc99;strokeColor=#36393d;" parent="1" vertex="1">
          <mxGeometry x="880" y="200" width="40" height="40" as="geometry" />
        </mxCell>
        <mxCell id="MjjTUTkJ0xS1mPN5Bs5z-58" value="b2" style="rounded=0;whiteSpace=wrap;html=1;fillColor=#ffcc99;strokeColor=#36393d;" parent="1" vertex="1">
          <mxGeometry x="920" y="200" width="40" height="40" as="geometry" />
        </mxCell>
        <mxCell id="MjjTUTkJ0xS1mPN5Bs5z-59" value="" style="rounded=0;whiteSpace=wrap;html=1;" parent="1" vertex="1">
          <mxGeometry x="1000" y="200" width="40" height="40" as="geometry" />
        </mxCell>
        <mxCell id="MjjTUTkJ0xS1mPN5Bs5z-60" value="" style="rounded=0;whiteSpace=wrap;html=1;" parent="1" vertex="1">
          <mxGeometry x="1040" y="200" width="40" height="40" as="geometry" />
        </mxCell>
        <mxCell id="MjjTUTkJ0xS1mPN5Bs5z-61" value="" style="rounded=0;whiteSpace=wrap;html=1;" parent="1" vertex="1">
          <mxGeometry x="40" y="280" width="40" height="40" as="geometry" />
        </mxCell>
        <mxCell id="MjjTUTkJ0xS1mPN5Bs5z-62" value="" style="rounded=0;whiteSpace=wrap;html=1;" parent="1" vertex="1">
          <mxGeometry x="80" y="280" width="40" height="40" as="geometry" />
        </mxCell>
        <mxCell id="MjjTUTkJ0xS1mPN5Bs5z-63" value="" style="rounded=0;whiteSpace=wrap;html=1;" parent="1" vertex="1">
          <mxGeometry x="160" y="280" width="40" height="40" as="geometry" />
        </mxCell>
        <mxCell id="MjjTUTkJ0xS1mPN5Bs5z-64" value="" style="rounded=0;whiteSpace=wrap;html=1;" parent="1" vertex="1">
          <mxGeometry x="200" y="280" width="40" height="40" as="geometry" />
        </mxCell>
        <mxCell id="MjjTUTkJ0xS1mPN5Bs5z-65" value="" style="rounded=0;whiteSpace=wrap;html=1;" parent="1" vertex="1">
          <mxGeometry x="320" y="280" width="40" height="40" as="geometry" />
        </mxCell>
        <mxCell id="MjjTUTkJ0xS1mPN5Bs5z-66" value="" style="rounded=0;whiteSpace=wrap;html=1;" parent="1" vertex="1">
          <mxGeometry x="360" y="280" width="40" height="40" as="geometry" />
        </mxCell>
        <mxCell id="MjjTUTkJ0xS1mPN5Bs5z-67" value="" style="rounded=0;whiteSpace=wrap;html=1;" parent="1" vertex="1">
          <mxGeometry x="440" y="280" width="40" height="40" as="geometry" />
        </mxCell>
        <mxCell id="MjjTUTkJ0xS1mPN5Bs5z-68" value="" style="rounded=0;whiteSpace=wrap;html=1;" parent="1" vertex="1">
          <mxGeometry x="480" y="280" width="40" height="40" as="geometry" />
        </mxCell>
        <mxCell id="MjjTUTkJ0xS1mPN5Bs5z-69" value="a2" style="rounded=0;whiteSpace=wrap;html=1;fillColor=#ffcc99;strokeColor=#36393d;" parent="1" vertex="1">
          <mxGeometry x="600" y="280" width="40" height="40" as="geometry" />
        </mxCell>
        <mxCell id="MjjTUTkJ0xS1mPN5Bs5z-70" value="b2" style="rounded=0;whiteSpace=wrap;html=1;fillColor=#ffcc99;strokeColor=#36393d;" parent="1" vertex="1">
          <mxGeometry x="640" y="280" width="40" height="40" as="geometry" />
        </mxCell>
        <mxCell id="MjjTUTkJ0xS1mPN5Bs5z-71" value="c2" style="rounded=0;whiteSpace=wrap;html=1;fillColor=#ffcc99;strokeColor=#36393d;" parent="1" vertex="1">
          <mxGeometry x="720" y="280" width="40" height="40" as="geometry" />
        </mxCell>
        <mxCell id="MjjTUTkJ0xS1mPN5Bs5z-72" value="d2" style="rounded=0;whiteSpace=wrap;html=1;fillColor=#ffcc99;strokeColor=#36393d;" parent="1" vertex="1">
          <mxGeometry x="760" y="280" width="40" height="40" as="geometry" />
        </mxCell>
        <mxCell id="MjjTUTkJ0xS1mPN5Bs5z-73" value="" style="rounded=0;whiteSpace=wrap;html=1;" parent="1" vertex="1">
          <mxGeometry x="880" y="280" width="40" height="40" as="geometry" />
        </mxCell>
        <mxCell id="MjjTUTkJ0xS1mPN5Bs5z-74" value="5" style="rounded=0;whiteSpace=wrap;html=1;fillColor=#ffcc99;strokeColor=#36393d;" parent="1" vertex="1">
          <mxGeometry x="920" y="280" width="40" height="40" as="geometry" />
        </mxCell>
        <mxCell id="MjjTUTkJ0xS1mPN5Bs5z-75" value="" style="rounded=0;whiteSpace=wrap;html=1;" parent="1" vertex="1">
          <mxGeometry x="1000" y="280" width="40" height="40" as="geometry" />
        </mxCell>
        <mxCell id="MjjTUTkJ0xS1mPN5Bs5z-76" value="" style="rounded=0;whiteSpace=wrap;html=1;" parent="1" vertex="1">
          <mxGeometry x="1040" y="280" width="40" height="40" as="geometry" />
        </mxCell>
        <mxCell id="MjjTUTkJ0xS1mPN5Bs5z-78" style="edgeStyle=orthogonalEdgeStyle;rounded=0;orthogonalLoop=1;jettySize=auto;html=1;exitX=0;exitY=1;exitDx=0;exitDy=0;entryX=0;entryY=0;entryDx=0;entryDy=0;" parent="1" target="MjjTUTkJ0xS1mPN5Bs5z-84" edge="1">
          <mxGeometry relative="1" as="geometry">
            <mxPoint x="80" y="320" as="sourcePoint" />
          </mxGeometry>
        </mxCell>
        <mxCell id="MjjTUTkJ0xS1mPN5Bs5z-79" style="edgeStyle=orthogonalEdgeStyle;rounded=0;orthogonalLoop=1;jettySize=auto;html=1;exitX=0;exitY=1;exitDx=0;exitDy=0;entryX=0;entryY=0;entryDx=0;entryDy=0;" parent="1" target="MjjTUTkJ0xS1mPN5Bs5z-87" edge="1">
          <mxGeometry relative="1" as="geometry">
            <mxPoint x="200" y="320" as="sourcePoint" />
          </mxGeometry>
        </mxCell>
        <mxCell id="MjjTUTkJ0xS1mPN5Bs5z-80" style="edgeStyle=orthogonalEdgeStyle;rounded=0;orthogonalLoop=1;jettySize=auto;html=1;exitX=1;exitY=1;exitDx=0;exitDy=0;entryX=0;entryY=0;entryDx=0;entryDy=0;" parent="1" target="MjjTUTkJ0xS1mPN5Bs5z-89" edge="1">
          <mxGeometry relative="1" as="geometry">
            <mxPoint x="360" y="320" as="sourcePoint" />
          </mxGeometry>
        </mxCell>
        <mxCell id="MjjTUTkJ0xS1mPN5Bs5z-81" style="edgeStyle=orthogonalEdgeStyle;rounded=0;orthogonalLoop=1;jettySize=auto;html=1;exitX=0;exitY=1;exitDx=0;exitDy=0;entryX=0;entryY=0;entryDx=0;entryDy=0;" parent="1" target="MjjTUTkJ0xS1mPN5Bs5z-91" edge="1">
          <mxGeometry relative="1" as="geometry">
            <mxPoint x="480" y="320" as="sourcePoint" />
          </mxGeometry>
        </mxCell>
        <mxCell id="MjjTUTkJ0xS1mPN5Bs5z-82" value="" style="rounded=0;whiteSpace=wrap;html=1;" parent="1" vertex="1">
          <mxGeometry x="40" y="360" width="40" height="40" as="geometry" />
        </mxCell>
        <mxCell id="MjjTUTkJ0xS1mPN5Bs5z-83" style="edgeStyle=orthogonalEdgeStyle;rounded=0;orthogonalLoop=1;jettySize=auto;html=1;exitX=0;exitY=1;exitDx=0;exitDy=0;entryX=0;entryY=0.5;entryDx=0;entryDy=0;" parent="1" source="MjjTUTkJ0xS1mPN5Bs5z-84" target="MjjTUTkJ0xS1mPN5Bs5z-88" edge="1">
          <mxGeometry relative="1" as="geometry" />
        </mxCell>
        <mxCell id="MjjTUTkJ0xS1mPN5Bs5z-84" value="" style="rounded=0;whiteSpace=wrap;html=1;" parent="1" vertex="1">
          <mxGeometry x="80" y="360" width="40" height="40" as="geometry" />
        </mxCell>
        <mxCell id="MjjTUTkJ0xS1mPN5Bs5z-85" value="" style="rounded=0;whiteSpace=wrap;html=1;" parent="1" vertex="1">
          <mxGeometry x="160" y="360" width="40" height="40" as="geometry" />
        </mxCell>
        <mxCell id="MjjTUTkJ0xS1mPN5Bs5z-86" style="edgeStyle=orthogonalEdgeStyle;rounded=0;orthogonalLoop=1;jettySize=auto;html=1;" parent="1" source="MjjTUTkJ0xS1mPN5Bs5z-87" edge="1">
          <mxGeometry relative="1" as="geometry">
            <mxPoint x="480" y="380" as="targetPoint" />
          </mxGeometry>
        </mxCell>
        <mxCell id="MjjTUTkJ0xS1mPN5Bs5z-87" value="" style="rounded=0;whiteSpace=wrap;html=1;" parent="1" vertex="1">
          <mxGeometry x="200" y="360" width="40" height="40" as="geometry" />
        </mxCell>
        <mxCell id="MjjTUTkJ0xS1mPN5Bs5z-88" value="" style="rounded=0;whiteSpace=wrap;html=1;" parent="1" vertex="1">
          <mxGeometry x="320" y="440" width="40" height="40" as="geometry" />
        </mxCell>
        <mxCell id="MjjTUTkJ0xS1mPN5Bs5z-89" value="" style="rounded=0;whiteSpace=wrap;html=1;" parent="1" vertex="1">
          <mxGeometry x="360" y="440" width="40" height="40" as="geometry" />
        </mxCell>
        <mxCell id="MjjTUTkJ0xS1mPN5Bs5z-90" value="" style="rounded=0;whiteSpace=wrap;html=1;" parent="1" vertex="1">
          <mxGeometry x="440" y="440" width="40" height="40" as="geometry" />
        </mxCell>
        <mxCell id="MjjTUTkJ0xS1mPN5Bs5z-91" value="" style="rounded=0;whiteSpace=wrap;html=1;" parent="1" vertex="1">
          <mxGeometry x="480" y="440" width="40" height="40" as="geometry" />
        </mxCell>
        <mxCell id="MjjTUTkJ0xS1mPN5Bs5z-92" style="edgeStyle=orthogonalEdgeStyle;rounded=0;orthogonalLoop=1;jettySize=auto;html=1;exitX=0;exitY=1;exitDx=0;exitDy=0;entryX=0;entryY=0;entryDx=0;entryDy=0;" parent="1" target="MjjTUTkJ0xS1mPN5Bs5z-98" edge="1">
          <mxGeometry relative="1" as="geometry">
            <mxPoint x="640" y="320" as="sourcePoint" />
          </mxGeometry>
        </mxCell>
        <mxCell id="MjjTUTkJ0xS1mPN5Bs5z-93" style="edgeStyle=orthogonalEdgeStyle;rounded=0;orthogonalLoop=1;jettySize=auto;html=1;exitX=0;exitY=1;exitDx=0;exitDy=0;entryX=0;entryY=0;entryDx=0;entryDy=0;" parent="1" target="MjjTUTkJ0xS1mPN5Bs5z-101" edge="1">
          <mxGeometry relative="1" as="geometry">
            <mxPoint x="760" y="320" as="sourcePoint" />
          </mxGeometry>
        </mxCell>
        <mxCell id="MjjTUTkJ0xS1mPN5Bs5z-94" style="edgeStyle=orthogonalEdgeStyle;rounded=0;orthogonalLoop=1;jettySize=auto;html=1;exitX=1;exitY=1;exitDx=0;exitDy=0;entryX=0;entryY=0;entryDx=0;entryDy=0;" parent="1" target="MjjTUTkJ0xS1mPN5Bs5z-103" edge="1">
          <mxGeometry relative="1" as="geometry">
            <mxPoint x="920" y="320" as="sourcePoint" />
          </mxGeometry>
        </mxCell>
        <mxCell id="MjjTUTkJ0xS1mPN5Bs5z-95" style="edgeStyle=orthogonalEdgeStyle;rounded=0;orthogonalLoop=1;jettySize=auto;html=1;exitX=0;exitY=1;exitDx=0;exitDy=0;entryX=0;entryY=0;entryDx=0;entryDy=0;" parent="1" target="MjjTUTkJ0xS1mPN5Bs5z-105" edge="1">
          <mxGeometry relative="1" as="geometry">
            <mxPoint x="1040" y="320" as="sourcePoint" />
          </mxGeometry>
        </mxCell>
        <mxCell id="MjjTUTkJ0xS1mPN5Bs5z-96" value="" style="rounded=0;whiteSpace=wrap;html=1;" parent="1" vertex="1">
          <mxGeometry x="600" y="360" width="40" height="40" as="geometry" />
        </mxCell>
        <mxCell id="MjjTUTkJ0xS1mPN5Bs5z-97" style="edgeStyle=orthogonalEdgeStyle;rounded=0;orthogonalLoop=1;jettySize=auto;html=1;exitX=0;exitY=1;exitDx=0;exitDy=0;entryX=0;entryY=0.5;entryDx=0;entryDy=0;" parent="1" source="MjjTUTkJ0xS1mPN5Bs5z-98" target="MjjTUTkJ0xS1mPN5Bs5z-102" edge="1">
          <mxGeometry relative="1" as="geometry" />
        </mxCell>
        <mxCell id="MjjTUTkJ0xS1mPN5Bs5z-98" value="5" style="rounded=0;whiteSpace=wrap;html=1;fillColor=#ffcc99;strokeColor=#36393d;" parent="1" vertex="1">
          <mxGeometry x="640" y="360" width="40" height="40" as="geometry" />
        </mxCell>
        <mxCell id="MjjTUTkJ0xS1mPN5Bs5z-99" value="" style="rounded=0;whiteSpace=wrap;html=1;" parent="1" vertex="1">
          <mxGeometry x="720" y="360" width="40" height="40" as="geometry" />
        </mxCell>
        <mxCell id="MjjTUTkJ0xS1mPN5Bs5z-100" style="edgeStyle=orthogonalEdgeStyle;rounded=0;orthogonalLoop=1;jettySize=auto;html=1;" parent="1" source="MjjTUTkJ0xS1mPN5Bs5z-101" edge="1">
          <mxGeometry relative="1" as="geometry">
            <mxPoint x="1040" y="380" as="targetPoint" />
          </mxGeometry>
        </mxCell>
        <mxCell id="MjjTUTkJ0xS1mPN5Bs5z-101" value="" style="rounded=0;whiteSpace=wrap;html=1;" parent="1" vertex="1">
          <mxGeometry x="760" y="360" width="40" height="40" as="geometry" />
        </mxCell>
        <mxCell id="MjjTUTkJ0xS1mPN5Bs5z-102" value="" style="rounded=0;whiteSpace=wrap;html=1;" parent="1" vertex="1">
          <mxGeometry x="880" y="440" width="40" height="40" as="geometry" />
        </mxCell>
        <mxCell id="MjjTUTkJ0xS1mPN5Bs5z-103" value="" style="rounded=0;whiteSpace=wrap;html=1;" parent="1" vertex="1">
          <mxGeometry x="920" y="440" width="40" height="40" as="geometry" />
        </mxCell>
        <mxCell id="MjjTUTkJ0xS1mPN5Bs5z-104" value="" style="rounded=0;whiteSpace=wrap;html=1;" parent="1" vertex="1">
          <mxGeometry x="1000" y="440" width="40" height="40" as="geometry" />
        </mxCell>
        <mxCell id="MjjTUTkJ0xS1mPN5Bs5z-105" value="" style="rounded=0;whiteSpace=wrap;html=1;" parent="1" vertex="1">
          <mxGeometry x="1040" y="440" width="40" height="40" as="geometry" />
        </mxCell>
        <mxCell id="MjjTUTkJ0xS1mPN5Bs5z-106" value="" style="rounded=0;whiteSpace=wrap;html=1;" parent="1" vertex="1">
          <mxGeometry x="40" y="520" width="40" height="40" as="geometry" />
        </mxCell>
        <mxCell id="MjjTUTkJ0xS1mPN5Bs5z-107" value="" style="rounded=0;whiteSpace=wrap;html=1;" parent="1" vertex="1">
          <mxGeometry x="80" y="520" width="40" height="40" as="geometry" />
        </mxCell>
        <mxCell id="MjjTUTkJ0xS1mPN5Bs5z-108" value="" style="rounded=0;whiteSpace=wrap;html=1;" parent="1" vertex="1">
          <mxGeometry x="160" y="520" width="40" height="40" as="geometry" />
        </mxCell>
        <mxCell id="MjjTUTkJ0xS1mPN5Bs5z-109" value="" style="rounded=0;whiteSpace=wrap;html=1;" parent="1" vertex="1">
          <mxGeometry x="200" y="520" width="40" height="40" as="geometry" />
        </mxCell>
        <mxCell id="MjjTUTkJ0xS1mPN5Bs5z-110" value="a2" style="rounded=0;whiteSpace=wrap;html=1;fillColor=#ffcc99;strokeColor=#36393d;" parent="1" vertex="1">
          <mxGeometry x="320" y="520" width="40" height="40" as="geometry" />
        </mxCell>
        <mxCell id="MjjTUTkJ0xS1mPN5Bs5z-111" value="b2" style="rounded=0;whiteSpace=wrap;html=1;fillColor=#ffcc99;strokeColor=#36393d;" parent="1" vertex="1">
          <mxGeometry x="360" y="520" width="40" height="40" as="geometry" />
        </mxCell>
        <mxCell id="MjjTUTkJ0xS1mPN5Bs5z-112" value="" style="rounded=0;whiteSpace=wrap;html=1;" parent="1" vertex="1">
          <mxGeometry x="440" y="520" width="40" height="40" as="geometry" />
        </mxCell>
        <mxCell id="MjjTUTkJ0xS1mPN5Bs5z-113" value="" style="rounded=0;whiteSpace=wrap;html=1;" parent="1" vertex="1">
          <mxGeometry x="480" y="520" width="40" height="40" as="geometry" />
        </mxCell>
        <mxCell id="MjjTUTkJ0xS1mPN5Bs5z-114" value="" style="rounded=0;whiteSpace=wrap;html=1;" parent="1" vertex="1">
          <mxGeometry x="600" y="520" width="40" height="40" as="geometry" />
        </mxCell>
        <mxCell id="MjjTUTkJ0xS1mPN5Bs5z-115" value="" style="rounded=0;whiteSpace=wrap;html=1;" parent="1" vertex="1">
          <mxGeometry x="640" y="520" width="40" height="40" as="geometry" />
        </mxCell>
        <mxCell id="MjjTUTkJ0xS1mPN5Bs5z-116" value="" style="rounded=0;whiteSpace=wrap;html=1;" parent="1" vertex="1">
          <mxGeometry x="720" y="520" width="40" height="40" as="geometry" />
        </mxCell>
        <mxCell id="MjjTUTkJ0xS1mPN5Bs5z-117" value="" style="rounded=0;whiteSpace=wrap;html=1;" parent="1" vertex="1">
          <mxGeometry x="760" y="520" width="40" height="40" as="geometry" />
        </mxCell>
        <mxCell id="MjjTUTkJ0xS1mPN5Bs5z-118" value="" style="rounded=0;whiteSpace=wrap;html=1;" parent="1" vertex="1">
          <mxGeometry x="880" y="520" width="40" height="40" as="geometry" />
        </mxCell>
        <mxCell id="MjjTUTkJ0xS1mPN5Bs5z-119" value="" style="rounded=0;whiteSpace=wrap;html=1;" parent="1" vertex="1">
          <mxGeometry x="920" y="520" width="40" height="40" as="geometry" />
        </mxCell>
        <mxCell id="MjjTUTkJ0xS1mPN5Bs5z-120" value="c2" style="rounded=0;whiteSpace=wrap;html=1;fillColor=#ffcc99;strokeColor=#36393d;" parent="1" vertex="1">
          <mxGeometry x="1000" y="520" width="40" height="40" as="geometry" />
        </mxCell>
        <mxCell id="MjjTUTkJ0xS1mPN5Bs5z-121" value="d2" style="rounded=0;whiteSpace=wrap;html=1;fillColor=#ffcc99;strokeColor=#36393d;" parent="1" vertex="1">
          <mxGeometry x="1040" y="520" width="40" height="40" as="geometry" />
        </mxCell>
        <mxCell id="MjjTUTkJ0xS1mPN5Bs5z-150" style="edgeStyle=orthogonalEdgeStyle;rounded=0;orthogonalLoop=1;jettySize=auto;html=1;exitX=0;exitY=1;exitDx=0;exitDy=0;entryX=0;entryY=0;entryDx=0;entryDy=0;" parent="1" target="MjjTUTkJ0xS1mPN5Bs5z-156" edge="1">
          <mxGeometry relative="1" as="geometry">
            <mxPoint x="80" y="560" as="sourcePoint" />
          </mxGeometry>
        </mxCell>
        <mxCell id="MjjTUTkJ0xS1mPN5Bs5z-151" style="edgeStyle=orthogonalEdgeStyle;rounded=0;orthogonalLoop=1;jettySize=auto;html=1;exitX=0;exitY=1;exitDx=0;exitDy=0;entryX=0;entryY=0;entryDx=0;entryDy=0;" parent="1" target="MjjTUTkJ0xS1mPN5Bs5z-159" edge="1">
          <mxGeometry relative="1" as="geometry">
            <mxPoint x="200" y="560" as="sourcePoint" />
          </mxGeometry>
        </mxCell>
        <mxCell id="MjjTUTkJ0xS1mPN5Bs5z-152" style="edgeStyle=orthogonalEdgeStyle;rounded=0;orthogonalLoop=1;jettySize=auto;html=1;exitX=1;exitY=1;exitDx=0;exitDy=0;entryX=0;entryY=0;entryDx=0;entryDy=0;" parent="1" target="MjjTUTkJ0xS1mPN5Bs5z-161" edge="1">
          <mxGeometry relative="1" as="geometry">
            <mxPoint x="360" y="560" as="sourcePoint" />
          </mxGeometry>
        </mxCell>
        <mxCell id="MjjTUTkJ0xS1mPN5Bs5z-153" style="edgeStyle=orthogonalEdgeStyle;rounded=0;orthogonalLoop=1;jettySize=auto;html=1;exitX=0;exitY=1;exitDx=0;exitDy=0;entryX=0;entryY=0;entryDx=0;entryDy=0;" parent="1" target="MjjTUTkJ0xS1mPN5Bs5z-163" edge="1">
          <mxGeometry relative="1" as="geometry">
            <mxPoint x="480" y="560" as="sourcePoint" />
          </mxGeometry>
        </mxCell>
        <mxCell id="MjjTUTkJ0xS1mPN5Bs5z-154" value="" style="rounded=0;whiteSpace=wrap;html=1;" parent="1" vertex="1">
          <mxGeometry x="40" y="600" width="40" height="40" as="geometry" />
        </mxCell>
        <mxCell id="MjjTUTkJ0xS1mPN5Bs5z-155" style="edgeStyle=orthogonalEdgeStyle;rounded=0;orthogonalLoop=1;jettySize=auto;html=1;exitX=0;exitY=1;exitDx=0;exitDy=0;entryX=0;entryY=0.5;entryDx=0;entryDy=0;" parent="1" source="MjjTUTkJ0xS1mPN5Bs5z-156" target="MjjTUTkJ0xS1mPN5Bs5z-160" edge="1">
          <mxGeometry relative="1" as="geometry" />
        </mxCell>
        <mxCell id="MjjTUTkJ0xS1mPN5Bs5z-156" value="" style="rounded=0;whiteSpace=wrap;html=1;" parent="1" vertex="1">
          <mxGeometry x="80" y="600" width="40" height="40" as="geometry" />
        </mxCell>
        <mxCell id="MjjTUTkJ0xS1mPN5Bs5z-157" value="" style="rounded=0;whiteSpace=wrap;html=1;" parent="1" vertex="1">
          <mxGeometry x="160" y="600" width="40" height="40" as="geometry" />
        </mxCell>
        <mxCell id="MjjTUTkJ0xS1mPN5Bs5z-158" style="edgeStyle=orthogonalEdgeStyle;rounded=0;orthogonalLoop=1;jettySize=auto;html=1;" parent="1" source="MjjTUTkJ0xS1mPN5Bs5z-159" edge="1">
          <mxGeometry relative="1" as="geometry">
            <mxPoint x="480" y="620" as="targetPoint" />
          </mxGeometry>
        </mxCell>
        <mxCell id="MjjTUTkJ0xS1mPN5Bs5z-159" value="" style="rounded=0;whiteSpace=wrap;html=1;" parent="1" vertex="1">
          <mxGeometry x="200" y="600" width="40" height="40" as="geometry" />
        </mxCell>
        <mxCell id="MjjTUTkJ0xS1mPN5Bs5z-160" value="a2" style="rounded=0;whiteSpace=wrap;html=1;fillColor=#ffcc99;strokeColor=#36393d;" parent="1" vertex="1">
          <mxGeometry x="320" y="680" width="40" height="40" as="geometry" />
        </mxCell>
        <mxCell id="MjjTUTkJ0xS1mPN5Bs5z-161" value="b2" style="rounded=0;whiteSpace=wrap;html=1;fillColor=#ffcc99;strokeColor=#36393d;" parent="1" vertex="1">
          <mxGeometry x="360" y="680" width="40" height="40" as="geometry" />
        </mxCell>
        <mxCell id="MjjTUTkJ0xS1mPN5Bs5z-162" value="" style="rounded=0;whiteSpace=wrap;html=1;" parent="1" vertex="1">
          <mxGeometry x="440" y="680" width="40" height="40" as="geometry" />
        </mxCell>
        <mxCell id="MjjTUTkJ0xS1mPN5Bs5z-163" value="" style="rounded=0;whiteSpace=wrap;html=1;" parent="1" vertex="1">
          <mxGeometry x="480" y="680" width="40" height="40" as="geometry" />
        </mxCell>
        <mxCell id="MjjTUTkJ0xS1mPN5Bs5z-164" style="edgeStyle=orthogonalEdgeStyle;rounded=0;orthogonalLoop=1;jettySize=auto;html=1;exitX=0;exitY=1;exitDx=0;exitDy=0;entryX=0;entryY=0;entryDx=0;entryDy=0;" parent="1" target="MjjTUTkJ0xS1mPN5Bs5z-170" edge="1">
          <mxGeometry relative="1" as="geometry">
            <mxPoint x="640" y="560" as="sourcePoint" />
          </mxGeometry>
        </mxCell>
        <mxCell id="MjjTUTkJ0xS1mPN5Bs5z-165" style="edgeStyle=orthogonalEdgeStyle;rounded=0;orthogonalLoop=1;jettySize=auto;html=1;exitX=0;exitY=1;exitDx=0;exitDy=0;entryX=0;entryY=0;entryDx=0;entryDy=0;" parent="1" target="MjjTUTkJ0xS1mPN5Bs5z-173" edge="1">
          <mxGeometry relative="1" as="geometry">
            <mxPoint x="760" y="560" as="sourcePoint" />
          </mxGeometry>
        </mxCell>
        <mxCell id="MjjTUTkJ0xS1mPN5Bs5z-166" style="edgeStyle=orthogonalEdgeStyle;rounded=0;orthogonalLoop=1;jettySize=auto;html=1;exitX=1;exitY=1;exitDx=0;exitDy=0;entryX=0;entryY=0;entryDx=0;entryDy=0;" parent="1" target="MjjTUTkJ0xS1mPN5Bs5z-175" edge="1">
          <mxGeometry relative="1" as="geometry">
            <mxPoint x="920" y="560" as="sourcePoint" />
          </mxGeometry>
        </mxCell>
        <mxCell id="MjjTUTkJ0xS1mPN5Bs5z-167" style="edgeStyle=orthogonalEdgeStyle;rounded=0;orthogonalLoop=1;jettySize=auto;html=1;exitX=0;exitY=1;exitDx=0;exitDy=0;entryX=0;entryY=0;entryDx=0;entryDy=0;" parent="1" target="MjjTUTkJ0xS1mPN5Bs5z-177" edge="1">
          <mxGeometry relative="1" as="geometry">
            <mxPoint x="1040" y="560" as="sourcePoint" />
          </mxGeometry>
        </mxCell>
        <mxCell id="MjjTUTkJ0xS1mPN5Bs5z-168" value="" style="rounded=0;whiteSpace=wrap;html=1;" parent="1" vertex="1">
          <mxGeometry x="600" y="600" width="40" height="40" as="geometry" />
        </mxCell>
        <mxCell id="MjjTUTkJ0xS1mPN5Bs5z-169" style="edgeStyle=orthogonalEdgeStyle;rounded=0;orthogonalLoop=1;jettySize=auto;html=1;exitX=0;exitY=1;exitDx=0;exitDy=0;entryX=0;entryY=0.5;entryDx=0;entryDy=0;" parent="1" source="MjjTUTkJ0xS1mPN5Bs5z-170" target="MjjTUTkJ0xS1mPN5Bs5z-174" edge="1">
          <mxGeometry relative="1" as="geometry" />
        </mxCell>
        <mxCell id="MjjTUTkJ0xS1mPN5Bs5z-170" value="" style="rounded=0;whiteSpace=wrap;html=1;" parent="1" vertex="1">
          <mxGeometry x="640" y="600" width="40" height="40" as="geometry" />
        </mxCell>
        <mxCell id="MjjTUTkJ0xS1mPN5Bs5z-171" value="" style="rounded=0;whiteSpace=wrap;html=1;" parent="1" vertex="1">
          <mxGeometry x="720" y="600" width="40" height="40" as="geometry" />
        </mxCell>
        <mxCell id="MjjTUTkJ0xS1mPN5Bs5z-172" style="edgeStyle=orthogonalEdgeStyle;rounded=0;orthogonalLoop=1;jettySize=auto;html=1;" parent="1" source="MjjTUTkJ0xS1mPN5Bs5z-173" edge="1">
          <mxGeometry relative="1" as="geometry">
            <mxPoint x="1040" y="620" as="targetPoint" />
          </mxGeometry>
        </mxCell>
        <mxCell id="MjjTUTkJ0xS1mPN5Bs5z-173" value="" style="rounded=0;whiteSpace=wrap;html=1;" parent="1" vertex="1">
          <mxGeometry x="760" y="600" width="40" height="40" as="geometry" />
        </mxCell>
        <mxCell id="MjjTUTkJ0xS1mPN5Bs5z-174" value="" style="rounded=0;whiteSpace=wrap;html=1;" parent="1" vertex="1">
          <mxGeometry x="880" y="680" width="40" height="40" as="geometry" />
        </mxCell>
        <mxCell id="MjjTUTkJ0xS1mPN5Bs5z-175" value="" style="rounded=0;whiteSpace=wrap;html=1;" parent="1" vertex="1">
          <mxGeometry x="920" y="680" width="40" height="40" as="geometry" />
        </mxCell>
        <mxCell id="MjjTUTkJ0xS1mPN5Bs5z-176" value="c2" style="rounded=0;whiteSpace=wrap;html=1;fillColor=#ffcc99;strokeColor=#36393d;" parent="1" vertex="1">
          <mxGeometry x="1000" y="680" width="40" height="40" as="geometry" />
        </mxCell>
        <mxCell id="MjjTUTkJ0xS1mPN5Bs5z-177" value="d2" style="rounded=0;whiteSpace=wrap;html=1;fillColor=#ffcc99;strokeColor=#36393d;" parent="1" vertex="1">
          <mxGeometry x="1040" y="680" width="40" height="40" as="geometry" />
        </mxCell>
        <mxCell id="MjjTUTkJ0xS1mPN5Bs5z-178" value="a2" style="rounded=0;whiteSpace=wrap;html=1;fillColor=#ffcc99;strokeColor=#36393d;" parent="1" vertex="1">
          <mxGeometry x="40" y="760" width="40" height="40" as="geometry" />
        </mxCell>
        <mxCell id="MjjTUTkJ0xS1mPN5Bs5z-179" value="b2" style="rounded=0;whiteSpace=wrap;html=1;fillColor=#ffcc99;strokeColor=#36393d;" parent="1" vertex="1">
          <mxGeometry x="80" y="760" width="40" height="40" as="geometry" />
        </mxCell>
        <mxCell id="MjjTUTkJ0xS1mPN5Bs5z-180" value="c2" style="rounded=0;whiteSpace=wrap;html=1;fillColor=#ffcc99;strokeColor=#36393d;" parent="1" vertex="1">
          <mxGeometry x="160" y="760" width="40" height="40" as="geometry" />
        </mxCell>
        <mxCell id="MjjTUTkJ0xS1mPN5Bs5z-181" value="d2" style="rounded=0;whiteSpace=wrap;html=1;fillColor=#ffcc99;strokeColor=#36393d;" parent="1" vertex="1">
          <mxGeometry x="200" y="760" width="40" height="40" as="geometry" />
        </mxCell>
        <mxCell id="MjjTUTkJ0xS1mPN5Bs5z-182" value="" style="rounded=0;whiteSpace=wrap;html=1;" parent="1" vertex="1">
          <mxGeometry x="320" y="760" width="40" height="40" as="geometry" />
        </mxCell>
        <mxCell id="MjjTUTkJ0xS1mPN5Bs5z-183" value="" style="rounded=0;whiteSpace=wrap;html=1;" parent="1" vertex="1">
          <mxGeometry x="360" y="760" width="40" height="40" as="geometry" />
        </mxCell>
        <mxCell id="MjjTUTkJ0xS1mPN5Bs5z-184" value="" style="rounded=0;whiteSpace=wrap;html=1;" parent="1" vertex="1">
          <mxGeometry x="440" y="760" width="40" height="40" as="geometry" />
        </mxCell>
        <mxCell id="MjjTUTkJ0xS1mPN5Bs5z-185" value="" style="rounded=0;whiteSpace=wrap;html=1;" parent="1" vertex="1">
          <mxGeometry x="480" y="760" width="40" height="40" as="geometry" />
        </mxCell>
        <mxCell id="MjjTUTkJ0xS1mPN5Bs5z-186" value="" style="rounded=0;whiteSpace=wrap;html=1;" parent="1" vertex="1">
          <mxGeometry x="600" y="760" width="40" height="40" as="geometry" />
        </mxCell>
        <mxCell id="MjjTUTkJ0xS1mPN5Bs5z-187" value="" style="rounded=0;whiteSpace=wrap;html=1;" parent="1" vertex="1">
          <mxGeometry x="640" y="760" width="40" height="40" as="geometry" />
        </mxCell>
        <mxCell id="MjjTUTkJ0xS1mPN5Bs5z-188" value="" style="rounded=0;whiteSpace=wrap;html=1;" parent="1" vertex="1">
          <mxGeometry x="720" y="760" width="40" height="40" as="geometry" />
        </mxCell>
        <mxCell id="MjjTUTkJ0xS1mPN5Bs5z-189" value="" style="rounded=0;whiteSpace=wrap;html=1;" parent="1" vertex="1">
          <mxGeometry x="760" y="760" width="40" height="40" as="geometry" />
        </mxCell>
        <mxCell id="MjjTUTkJ0xS1mPN5Bs5z-190" value="" style="rounded=0;whiteSpace=wrap;html=1;" parent="1" vertex="1">
          <mxGeometry x="880" y="760" width="40" height="40" as="geometry" />
        </mxCell>
        <mxCell id="MjjTUTkJ0xS1mPN5Bs5z-191" value="" style="rounded=0;whiteSpace=wrap;html=1;" parent="1" vertex="1">
          <mxGeometry x="920" y="760" width="40" height="40" as="geometry" />
        </mxCell>
        <mxCell id="MjjTUTkJ0xS1mPN5Bs5z-192" value="" style="rounded=0;whiteSpace=wrap;html=1;" parent="1" vertex="1">
          <mxGeometry x="1000" y="760" width="40" height="40" as="geometry" />
        </mxCell>
        <mxCell id="MjjTUTkJ0xS1mPN5Bs5z-193" value="" style="rounded=0;whiteSpace=wrap;html=1;" parent="1" vertex="1">
          <mxGeometry x="1040" y="760" width="40" height="40" as="geometry" />
        </mxCell>
        <mxCell id="MjjTUTkJ0xS1mPN5Bs5z-194" style="edgeStyle=orthogonalEdgeStyle;rounded=0;orthogonalLoop=1;jettySize=auto;html=1;exitX=0;exitY=1;exitDx=0;exitDy=0;entryX=0;entryY=0;entryDx=0;entryDy=0;" parent="1" target="MjjTUTkJ0xS1mPN5Bs5z-200" edge="1">
          <mxGeometry relative="1" as="geometry">
            <mxPoint x="80" y="800" as="sourcePoint" />
          </mxGeometry>
        </mxCell>
        <mxCell id="MjjTUTkJ0xS1mPN5Bs5z-195" style="edgeStyle=orthogonalEdgeStyle;rounded=0;orthogonalLoop=1;jettySize=auto;html=1;exitX=0;exitY=1;exitDx=0;exitDy=0;entryX=0;entryY=0;entryDx=0;entryDy=0;" parent="1" target="MjjTUTkJ0xS1mPN5Bs5z-203" edge="1">
          <mxGeometry relative="1" as="geometry">
            <mxPoint x="200" y="800" as="sourcePoint" />
          </mxGeometry>
        </mxCell>
        <mxCell id="MjjTUTkJ0xS1mPN5Bs5z-196" style="edgeStyle=orthogonalEdgeStyle;rounded=0;orthogonalLoop=1;jettySize=auto;html=1;exitX=1;exitY=1;exitDx=0;exitDy=0;entryX=0;entryY=0;entryDx=0;entryDy=0;" parent="1" target="MjjTUTkJ0xS1mPN5Bs5z-205" edge="1">
          <mxGeometry relative="1" as="geometry">
            <mxPoint x="360" y="800" as="sourcePoint" />
          </mxGeometry>
        </mxCell>
        <mxCell id="MjjTUTkJ0xS1mPN5Bs5z-197" style="edgeStyle=orthogonalEdgeStyle;rounded=0;orthogonalLoop=1;jettySize=auto;html=1;exitX=0;exitY=1;exitDx=0;exitDy=0;entryX=0;entryY=0;entryDx=0;entryDy=0;" parent="1" target="MjjTUTkJ0xS1mPN5Bs5z-207" edge="1">
          <mxGeometry relative="1" as="geometry">
            <mxPoint x="480" y="800" as="sourcePoint" />
          </mxGeometry>
        </mxCell>
        <mxCell id="MjjTUTkJ0xS1mPN5Bs5z-198" value="" style="rounded=0;whiteSpace=wrap;html=1;" parent="1" vertex="1">
          <mxGeometry x="40" y="840" width="40" height="40" as="geometry" />
        </mxCell>
        <mxCell id="MjjTUTkJ0xS1mPN5Bs5z-199" style="edgeStyle=orthogonalEdgeStyle;rounded=0;orthogonalLoop=1;jettySize=auto;html=1;exitX=0;exitY=1;exitDx=0;exitDy=0;entryX=0;entryY=0.5;entryDx=0;entryDy=0;" parent="1" source="MjjTUTkJ0xS1mPN5Bs5z-200" target="MjjTUTkJ0xS1mPN5Bs5z-204" edge="1">
          <mxGeometry relative="1" as="geometry" />
        </mxCell>
        <mxCell id="MjjTUTkJ0xS1mPN5Bs5z-200" value="5" style="rounded=0;whiteSpace=wrap;html=1;fillColor=#ffcc99;strokeColor=#36393d;" parent="1" vertex="1">
          <mxGeometry x="80" y="840" width="40" height="40" as="geometry" />
        </mxCell>
        <mxCell id="MjjTUTkJ0xS1mPN5Bs5z-201" value="" style="rounded=0;whiteSpace=wrap;html=1;" parent="1" vertex="1">
          <mxGeometry x="160" y="840" width="40" height="40" as="geometry" />
        </mxCell>
        <mxCell id="MjjTUTkJ0xS1mPN5Bs5z-202" style="edgeStyle=orthogonalEdgeStyle;rounded=0;orthogonalLoop=1;jettySize=auto;html=1;" parent="1" source="MjjTUTkJ0xS1mPN5Bs5z-203" edge="1">
          <mxGeometry relative="1" as="geometry">
            <mxPoint x="480" y="860" as="targetPoint" />
          </mxGeometry>
        </mxCell>
        <mxCell id="MjjTUTkJ0xS1mPN5Bs5z-203" value="" style="rounded=0;whiteSpace=wrap;html=1;" parent="1" vertex="1">
          <mxGeometry x="200" y="840" width="40" height="40" as="geometry" />
        </mxCell>
        <mxCell id="MjjTUTkJ0xS1mPN5Bs5z-204" value="" style="rounded=0;whiteSpace=wrap;html=1;" parent="1" vertex="1">
          <mxGeometry x="320" y="920" width="40" height="40" as="geometry" />
        </mxCell>
        <mxCell id="MjjTUTkJ0xS1mPN5Bs5z-205" value="5" style="rounded=0;whiteSpace=wrap;html=1;fillColor=#ffcc99;strokeColor=#36393d;" parent="1" vertex="1">
          <mxGeometry x="360" y="920" width="40" height="40" as="geometry" />
        </mxCell>
        <mxCell id="MjjTUTkJ0xS1mPN5Bs5z-206" value="" style="rounded=0;whiteSpace=wrap;html=1;" parent="1" vertex="1">
          <mxGeometry x="440" y="920" width="40" height="40" as="geometry" />
        </mxCell>
        <mxCell id="MjjTUTkJ0xS1mPN5Bs5z-207" value="" style="rounded=0;whiteSpace=wrap;html=1;" parent="1" vertex="1">
          <mxGeometry x="480" y="920" width="40" height="40" as="geometry" />
        </mxCell>
        <mxCell id="MjjTUTkJ0xS1mPN5Bs5z-208" style="edgeStyle=orthogonalEdgeStyle;rounded=0;orthogonalLoop=1;jettySize=auto;html=1;exitX=0;exitY=1;exitDx=0;exitDy=0;entryX=0;entryY=0;entryDx=0;entryDy=0;" parent="1" target="MjjTUTkJ0xS1mPN5Bs5z-214" edge="1">
          <mxGeometry relative="1" as="geometry">
            <mxPoint x="640" y="800" as="sourcePoint" />
          </mxGeometry>
        </mxCell>
        <mxCell id="MjjTUTkJ0xS1mPN5Bs5z-209" style="edgeStyle=orthogonalEdgeStyle;rounded=0;orthogonalLoop=1;jettySize=auto;html=1;exitX=0;exitY=1;exitDx=0;exitDy=0;entryX=0;entryY=0;entryDx=0;entryDy=0;" parent="1" target="MjjTUTkJ0xS1mPN5Bs5z-217" edge="1">
          <mxGeometry relative="1" as="geometry">
            <mxPoint x="760" y="800" as="sourcePoint" />
          </mxGeometry>
        </mxCell>
        <mxCell id="MjjTUTkJ0xS1mPN5Bs5z-210" style="edgeStyle=orthogonalEdgeStyle;rounded=0;orthogonalLoop=1;jettySize=auto;html=1;exitX=1;exitY=1;exitDx=0;exitDy=0;entryX=0;entryY=0;entryDx=0;entryDy=0;" parent="1" target="MjjTUTkJ0xS1mPN5Bs5z-219" edge="1">
          <mxGeometry relative="1" as="geometry">
            <mxPoint x="920" y="800" as="sourcePoint" />
          </mxGeometry>
        </mxCell>
        <mxCell id="MjjTUTkJ0xS1mPN5Bs5z-211" style="edgeStyle=orthogonalEdgeStyle;rounded=0;orthogonalLoop=1;jettySize=auto;html=1;exitX=0;exitY=1;exitDx=0;exitDy=0;entryX=0;entryY=0;entryDx=0;entryDy=0;" parent="1" target="MjjTUTkJ0xS1mPN5Bs5z-221" edge="1">
          <mxGeometry relative="1" as="geometry">
            <mxPoint x="1040" y="800" as="sourcePoint" />
          </mxGeometry>
        </mxCell>
        <mxCell id="MjjTUTkJ0xS1mPN5Bs5z-212" value="" style="rounded=0;whiteSpace=wrap;html=1;" parent="1" vertex="1">
          <mxGeometry x="600" y="840" width="40" height="40" as="geometry" />
        </mxCell>
        <mxCell id="MjjTUTkJ0xS1mPN5Bs5z-213" style="edgeStyle=orthogonalEdgeStyle;rounded=0;orthogonalLoop=1;jettySize=auto;html=1;exitX=0;exitY=1;exitDx=0;exitDy=0;entryX=0;entryY=0.5;entryDx=0;entryDy=0;" parent="1" source="MjjTUTkJ0xS1mPN5Bs5z-214" target="MjjTUTkJ0xS1mPN5Bs5z-218" edge="1">
          <mxGeometry relative="1" as="geometry" />
        </mxCell>
        <mxCell id="MjjTUTkJ0xS1mPN5Bs5z-214" value="" style="rounded=0;whiteSpace=wrap;html=1;" parent="1" vertex="1">
          <mxGeometry x="640" y="840" width="40" height="40" as="geometry" />
        </mxCell>
        <mxCell id="MjjTUTkJ0xS1mPN5Bs5z-215" value="" style="rounded=0;whiteSpace=wrap;html=1;" parent="1" vertex="1">
          <mxGeometry x="720" y="840" width="40" height="40" as="geometry" />
        </mxCell>
        <mxCell id="MjjTUTkJ0xS1mPN5Bs5z-216" style="edgeStyle=orthogonalEdgeStyle;rounded=0;orthogonalLoop=1;jettySize=auto;html=1;" parent="1" source="MjjTUTkJ0xS1mPN5Bs5z-217" edge="1">
          <mxGeometry relative="1" as="geometry">
            <mxPoint x="1040" y="860" as="targetPoint" />
          </mxGeometry>
        </mxCell>
        <mxCell id="MjjTUTkJ0xS1mPN5Bs5z-217" value="" style="rounded=0;whiteSpace=wrap;html=1;" parent="1" vertex="1">
          <mxGeometry x="760" y="840" width="40" height="40" as="geometry" />
        </mxCell>
        <mxCell id="MjjTUTkJ0xS1mPN5Bs5z-218" value="" style="rounded=0;whiteSpace=wrap;html=1;" parent="1" vertex="1">
          <mxGeometry x="880" y="920" width="40" height="40" as="geometry" />
        </mxCell>
        <mxCell id="MjjTUTkJ0xS1mPN5Bs5z-219" value="" style="rounded=0;whiteSpace=wrap;html=1;" parent="1" vertex="1">
          <mxGeometry x="920" y="920" width="40" height="40" as="geometry" />
        </mxCell>
        <mxCell id="MjjTUTkJ0xS1mPN5Bs5z-220" value="" style="rounded=0;whiteSpace=wrap;html=1;" parent="1" vertex="1">
          <mxGeometry x="1000" y="920" width="40" height="40" as="geometry" />
        </mxCell>
        <mxCell id="MjjTUTkJ0xS1mPN5Bs5z-221" value="" style="rounded=0;whiteSpace=wrap;html=1;" parent="1" vertex="1">
          <mxGeometry x="1040" y="920" width="40" height="40" as="geometry" />
        </mxCell>
        <mxCell id="MjjTUTkJ0xS1mPN5Bs5z-222" value="" style="rounded=0;whiteSpace=wrap;html=1;" parent="1" vertex="1">
          <mxGeometry x="40" y="1000" width="40" height="40" as="geometry" />
        </mxCell>
        <mxCell id="MjjTUTkJ0xS1mPN5Bs5z-223" value="5" style="rounded=0;whiteSpace=wrap;html=1;fillColor=#ffcc99;strokeColor=#36393d;" parent="1" vertex="1">
          <mxGeometry x="80" y="1000" width="40" height="40" as="geometry" />
        </mxCell>
        <mxCell id="MjjTUTkJ0xS1mPN5Bs5z-224" value="" style="rounded=0;whiteSpace=wrap;html=1;" parent="1" vertex="1">
          <mxGeometry x="160" y="1000" width="40" height="40" as="geometry" />
        </mxCell>
        <mxCell id="MjjTUTkJ0xS1mPN5Bs5z-225" value="" style="rounded=0;whiteSpace=wrap;html=1;" parent="1" vertex="1">
          <mxGeometry x="200" y="1000" width="40" height="40" as="geometry" />
        </mxCell>
        <mxCell id="MjjTUTkJ0xS1mPN5Bs5z-226" value="" style="rounded=0;whiteSpace=wrap;html=1;" parent="1" vertex="1">
          <mxGeometry x="320" y="1000" width="40" height="40" as="geometry" />
        </mxCell>
        <mxCell id="MjjTUTkJ0xS1mPN5Bs5z-227" value="" style="rounded=0;whiteSpace=wrap;html=1;" parent="1" vertex="1">
          <mxGeometry x="360" y="1000" width="40" height="40" as="geometry" />
        </mxCell>
        <mxCell id="MjjTUTkJ0xS1mPN5Bs5z-228" value="c2" style="rounded=0;whiteSpace=wrap;html=1;fillColor=#ffcc99;strokeColor=#36393d;" parent="1" vertex="1">
          <mxGeometry x="440" y="1000" width="40" height="40" as="geometry" />
        </mxCell>
        <mxCell id="MjjTUTkJ0xS1mPN5Bs5z-229" value="d2" style="rounded=0;whiteSpace=wrap;html=1;fillColor=#ffcc99;strokeColor=#36393d;" parent="1" vertex="1">
          <mxGeometry x="480" y="1000" width="40" height="40" as="geometry" />
        </mxCell>
        <mxCell id="MjjTUTkJ0xS1mPN5Bs5z-230" value="" style="rounded=0;whiteSpace=wrap;html=1;" parent="1" vertex="1">
          <mxGeometry x="600" y="1000" width="40" height="40" as="geometry" />
        </mxCell>
        <mxCell id="MjjTUTkJ0xS1mPN5Bs5z-231" value="" style="rounded=0;whiteSpace=wrap;html=1;" parent="1" vertex="1">
          <mxGeometry x="640" y="1000" width="40" height="40" as="geometry" />
        </mxCell>
        <mxCell id="MjjTUTkJ0xS1mPN5Bs5z-232" value="" style="rounded=0;whiteSpace=wrap;html=1;" parent="1" vertex="1">
          <mxGeometry x="720" y="1000" width="40" height="40" as="geometry" />
        </mxCell>
        <mxCell id="MjjTUTkJ0xS1mPN5Bs5z-233" value="" style="rounded=0;whiteSpace=wrap;html=1;" parent="1" vertex="1">
          <mxGeometry x="760" y="1000" width="40" height="40" as="geometry" />
        </mxCell>
        <mxCell id="MjjTUTkJ0xS1mPN5Bs5z-234" value="a2" style="rounded=0;whiteSpace=wrap;html=1;fillColor=#ffcc99;strokeColor=#36393d;" parent="1" vertex="1">
          <mxGeometry x="880" y="1000" width="40" height="40" as="geometry" />
        </mxCell>
        <mxCell id="MjjTUTkJ0xS1mPN5Bs5z-235" value="b2" style="rounded=0;whiteSpace=wrap;html=1;fillColor=#ffcc99;strokeColor=#36393d;" parent="1" vertex="1">
          <mxGeometry x="920" y="1000" width="40" height="40" as="geometry" />
        </mxCell>
        <mxCell id="MjjTUTkJ0xS1mPN5Bs5z-236" value="" style="rounded=0;whiteSpace=wrap;html=1;" parent="1" vertex="1">
          <mxGeometry x="1000" y="1000" width="40" height="40" as="geometry" />
        </mxCell>
        <mxCell id="MjjTUTkJ0xS1mPN5Bs5z-237" value="" style="rounded=0;whiteSpace=wrap;html=1;" parent="1" vertex="1">
          <mxGeometry x="1040" y="1000" width="40" height="40" as="geometry" />
        </mxCell>
        <mxCell id="D-i1duRZGYbxX3AgBeWL-9" style="edgeStyle=orthogonalEdgeStyle;rounded=0;orthogonalLoop=1;jettySize=auto;html=1;entryX=0.5;entryY=0;entryDx=0;entryDy=0;curved=0;endArrow=classic;endFill=1;strokeWidth=1;" edge="1" parent="1" source="D-i1duRZGYbxX3AgBeWL-1" target="D-i1duRZGYbxX3AgBeWL-5">
          <mxGeometry relative="1" as="geometry" />
        </mxCell>
        <mxCell id="D-i1duRZGYbxX3AgBeWL-118" style="edgeStyle=orthogonalEdgeStyle;rounded=0;orthogonalLoop=1;jettySize=auto;html=1;fontFamily=Times New Roman;fontSize=18;fontColor=default;endArrow=none;endFill=0;dashed=1;" edge="1" parent="1" source="D-i1duRZGYbxX3AgBeWL-1">
          <mxGeometry relative="1" as="geometry">
            <mxPoint x="20" y="1680" as="targetPoint" />
          </mxGeometry>
        </mxCell>
        <mxCell id="D-i1duRZGYbxX3AgBeWL-1" value="" style="rounded=0;whiteSpace=wrap;html=1;" vertex="1" parent="1">
          <mxGeometry x="40" y="1230" width="40" height="40" as="geometry" />
        </mxCell>
        <mxCell id="D-i1duRZGYbxX3AgBeWL-10" style="edgeStyle=orthogonalEdgeStyle;rounded=0;orthogonalLoop=1;jettySize=auto;html=1;entryX=0.5;entryY=0;entryDx=0;entryDy=0;" edge="1" parent="1" source="D-i1duRZGYbxX3AgBeWL-2" target="D-i1duRZGYbxX3AgBeWL-6">
          <mxGeometry relative="1" as="geometry" />
        </mxCell>
        <mxCell id="D-i1duRZGYbxX3AgBeWL-2" value="5" style="rounded=0;whiteSpace=wrap;html=1;fillColor=#ffcc99;strokeColor=#36393d;" vertex="1" parent="1">
          <mxGeometry x="80" y="1230" width="40" height="40" as="geometry" />
        </mxCell>
        <mxCell id="D-i1duRZGYbxX3AgBeWL-11" style="edgeStyle=orthogonalEdgeStyle;rounded=0;orthogonalLoop=1;jettySize=auto;html=1;entryX=0.5;entryY=0;entryDx=0;entryDy=0;" edge="1" parent="1" source="D-i1duRZGYbxX3AgBeWL-3" target="D-i1duRZGYbxX3AgBeWL-7">
          <mxGeometry relative="1" as="geometry" />
        </mxCell>
        <mxCell id="D-i1duRZGYbxX3AgBeWL-3" value="" style="rounded=0;whiteSpace=wrap;html=1;" vertex="1" parent="1">
          <mxGeometry x="160" y="1230" width="40" height="40" as="geometry" />
        </mxCell>
        <mxCell id="D-i1duRZGYbxX3AgBeWL-12" style="edgeStyle=orthogonalEdgeStyle;rounded=0;orthogonalLoop=1;jettySize=auto;html=1;entryX=0.5;entryY=0;entryDx=0;entryDy=0;" edge="1" parent="1" source="D-i1duRZGYbxX3AgBeWL-4" target="D-i1duRZGYbxX3AgBeWL-8">
          <mxGeometry relative="1" as="geometry" />
        </mxCell>
        <mxCell id="D-i1duRZGYbxX3AgBeWL-119" style="edgeStyle=orthogonalEdgeStyle;rounded=0;orthogonalLoop=1;jettySize=auto;html=1;fontFamily=Times New Roman;fontSize=18;fontColor=default;dashed=1;strokeColor=default;align=center;verticalAlign=middle;labelBackgroundColor=default;endArrow=none;endFill=0;" edge="1" parent="1" source="D-i1duRZGYbxX3AgBeWL-4">
          <mxGeometry relative="1" as="geometry">
            <mxPoint x="260" y="1680" as="targetPoint" />
          </mxGeometry>
        </mxCell>
        <mxCell id="D-i1duRZGYbxX3AgBeWL-4" value="" style="rounded=0;whiteSpace=wrap;html=1;" vertex="1" parent="1">
          <mxGeometry x="200" y="1230" width="40" height="40" as="geometry" />
        </mxCell>
        <mxCell id="D-i1duRZGYbxX3AgBeWL-52" style="edgeStyle=orthogonalEdgeStyle;rounded=0;orthogonalLoop=1;jettySize=auto;html=1;exitX=1;exitY=1;exitDx=0;exitDy=0;fontFamily=Times New Roman;fontSize=18;fontColor=default;" edge="1" parent="1" source="D-i1duRZGYbxX3AgBeWL-5">
          <mxGeometry relative="1" as="geometry">
            <mxPoint x="79.85714285714278" y="1370" as="targetPoint" />
          </mxGeometry>
        </mxCell>
        <mxCell id="D-i1duRZGYbxX3AgBeWL-5" value="" style="rounded=0;whiteSpace=wrap;html=1;" vertex="1" parent="1">
          <mxGeometry x="40" y="1300" width="40" height="40" as="geometry" />
        </mxCell>
        <mxCell id="D-i1duRZGYbxX3AgBeWL-6" value="2" style="rounded=0;whiteSpace=wrap;html=1;fillColor=#ffcc99;strokeColor=#36393d;" vertex="1" parent="1">
          <mxGeometry x="80" y="1300" width="40" height="40" as="geometry" />
        </mxCell>
        <mxCell id="D-i1duRZGYbxX3AgBeWL-7" value="" style="rounded=0;whiteSpace=wrap;html=1;" vertex="1" parent="1">
          <mxGeometry x="160" y="1300" width="40" height="40" as="geometry" />
        </mxCell>
        <mxCell id="D-i1duRZGYbxX3AgBeWL-53" style="edgeStyle=orthogonalEdgeStyle;rounded=0;orthogonalLoop=1;jettySize=auto;html=1;exitX=0;exitY=1;exitDx=0;exitDy=0;fontFamily=Times New Roman;fontSize=18;fontColor=default;" edge="1" parent="1" source="D-i1duRZGYbxX3AgBeWL-8">
          <mxGeometry relative="1" as="geometry">
            <mxPoint x="199.85714285714278" y="1370" as="targetPoint" />
          </mxGeometry>
        </mxCell>
        <mxCell id="D-i1duRZGYbxX3AgBeWL-8" value="" style="rounded=0;whiteSpace=wrap;html=1;" vertex="1" parent="1">
          <mxGeometry x="200" y="1300" width="40" height="40" as="geometry" />
        </mxCell>
        <mxCell id="D-i1duRZGYbxX3AgBeWL-13" value="&lt;font style=&quot;font-size: 16px;&quot; face=&quot;Times New Roman&quot;&gt;MixColumn&lt;/font&gt;" style="rounded=1;whiteSpace=wrap;html=1;fillColor=#fff2cc;strokeColor=#d6b656;" vertex="1" parent="1">
          <mxGeometry x="40" y="1370" width="200" height="60" as="geometry" />
        </mxCell>
        <mxCell id="D-i1duRZGYbxX3AgBeWL-30" style="edgeStyle=orthogonalEdgeStyle;rounded=0;orthogonalLoop=1;jettySize=auto;html=1;fontFamily=Helvetica;fontSize=12;fontColor=default;" edge="1" parent="1" source="D-i1duRZGYbxX3AgBeWL-31">
          <mxGeometry relative="1" as="geometry">
            <mxPoint x="60" y="1530" as="targetPoint" />
          </mxGeometry>
        </mxCell>
        <mxCell id="D-i1duRZGYbxX3AgBeWL-54" style="edgeStyle=orthogonalEdgeStyle;rounded=0;orthogonalLoop=1;jettySize=auto;html=1;exitX=1;exitY=0;exitDx=0;exitDy=0;fontFamily=Times New Roman;fontSize=18;fontColor=default;startArrow=classic;startFill=1;endArrow=none;endFill=0;" edge="1" parent="1" source="D-i1duRZGYbxX3AgBeWL-31">
          <mxGeometry relative="1" as="geometry">
            <mxPoint x="79.85714285714278" y="1430" as="targetPoint" />
          </mxGeometry>
        </mxCell>
        <mxCell id="D-i1duRZGYbxX3AgBeWL-31" value="6" style="rounded=0;whiteSpace=wrap;html=1;fillColor=#ffcc99;strokeColor=#36393d;" vertex="1" parent="1">
          <mxGeometry x="40" y="1460" width="40" height="40" as="geometry" />
        </mxCell>
        <mxCell id="D-i1duRZGYbxX3AgBeWL-32" style="edgeStyle=orthogonalEdgeStyle;rounded=0;orthogonalLoop=1;jettySize=auto;html=1;fontFamily=Helvetica;fontSize=12;fontColor=default;" edge="1" parent="1" source="D-i1duRZGYbxX3AgBeWL-33">
          <mxGeometry relative="1" as="geometry">
            <mxPoint x="100" y="1530" as="targetPoint" />
          </mxGeometry>
        </mxCell>
        <mxCell id="D-i1duRZGYbxX3AgBeWL-33" value="4" style="rounded=0;whiteSpace=wrap;html=1;fillColor=#ffcc99;strokeColor=#36393d;" vertex="1" parent="1">
          <mxGeometry x="80" y="1460" width="40" height="40" as="geometry" />
        </mxCell>
        <mxCell id="D-i1duRZGYbxX3AgBeWL-34" style="edgeStyle=orthogonalEdgeStyle;rounded=0;orthogonalLoop=1;jettySize=auto;html=1;fontFamily=Helvetica;fontSize=12;fontColor=default;" edge="1" parent="1" source="D-i1duRZGYbxX3AgBeWL-35">
          <mxGeometry relative="1" as="geometry">
            <mxPoint x="180" y="1530" as="targetPoint" />
          </mxGeometry>
        </mxCell>
        <mxCell id="D-i1duRZGYbxX3AgBeWL-55" style="edgeStyle=orthogonalEdgeStyle;rounded=0;orthogonalLoop=1;jettySize=auto;html=1;exitX=1;exitY=0;exitDx=0;exitDy=0;fontFamily=Times New Roman;fontSize=18;fontColor=default;startArrow=classic;startFill=1;endArrow=none;endFill=0;" edge="1" parent="1" source="D-i1duRZGYbxX3AgBeWL-35">
          <mxGeometry relative="1" as="geometry">
            <mxPoint x="199.85714285714278" y="1430" as="targetPoint" />
          </mxGeometry>
        </mxCell>
        <mxCell id="D-i1duRZGYbxX3AgBeWL-35" value="2" style="rounded=0;whiteSpace=wrap;html=1;fillColor=#ffcc99;strokeColor=#36393d;" vertex="1" parent="1">
          <mxGeometry x="160" y="1460" width="40" height="40" as="geometry" />
        </mxCell>
        <mxCell id="D-i1duRZGYbxX3AgBeWL-36" style="edgeStyle=orthogonalEdgeStyle;rounded=0;orthogonalLoop=1;jettySize=auto;html=1;fontFamily=Helvetica;fontSize=12;fontColor=default;" edge="1" parent="1" source="D-i1duRZGYbxX3AgBeWL-37">
          <mxGeometry relative="1" as="geometry">
            <mxPoint x="220" y="1530" as="targetPoint" />
          </mxGeometry>
        </mxCell>
        <mxCell id="D-i1duRZGYbxX3AgBeWL-37" value="2" style="rounded=0;whiteSpace=wrap;html=1;fillColor=#ffcc99;strokeColor=#36393d;" vertex="1" parent="1">
          <mxGeometry x="200" y="1460" width="40" height="40" as="geometry" />
        </mxCell>
        <mxCell id="D-i1duRZGYbxX3AgBeWL-57" style="edgeStyle=orthogonalEdgeStyle;rounded=0;orthogonalLoop=1;jettySize=auto;html=1;exitX=1;exitY=1;exitDx=0;exitDy=0;entryX=0;entryY=0.5;entryDx=0;entryDy=0;fontFamily=Times New Roman;fontSize=18;fontColor=default;" edge="1" parent="1" source="D-i1duRZGYbxX3AgBeWL-38" target="D-i1duRZGYbxX3AgBeWL-47">
          <mxGeometry relative="1" as="geometry" />
        </mxCell>
        <mxCell id="D-i1duRZGYbxX3AgBeWL-38" value="1" style="rounded=0;whiteSpace=wrap;html=1;fillColor=#ffcc99;strokeColor=#36393d;" vertex="1" parent="1">
          <mxGeometry x="40" y="1530" width="40" height="40" as="geometry" />
        </mxCell>
        <mxCell id="D-i1duRZGYbxX3AgBeWL-39" value="2" style="rounded=0;whiteSpace=wrap;html=1;fillColor=#ffcc99;strokeColor=#36393d;" vertex="1" parent="1">
          <mxGeometry x="80" y="1530" width="40" height="40" as="geometry" />
        </mxCell>
        <mxCell id="D-i1duRZGYbxX3AgBeWL-40" value="1" style="rounded=0;whiteSpace=wrap;html=1;fillColor=#ffcc99;strokeColor=#36393d;" vertex="1" parent="1">
          <mxGeometry x="160" y="1530" width="40" height="40" as="geometry" />
        </mxCell>
        <mxCell id="D-i1duRZGYbxX3AgBeWL-59" style="edgeStyle=orthogonalEdgeStyle;rounded=0;orthogonalLoop=1;jettySize=auto;html=1;exitX=1;exitY=0.5;exitDx=0;exitDy=0;fontFamily=Times New Roman;fontSize=18;fontColor=default;" edge="1" parent="1" source="D-i1duRZGYbxX3AgBeWL-41">
          <mxGeometry relative="1" as="geometry">
            <mxPoint x="480" y="1550.095238095238" as="targetPoint" />
          </mxGeometry>
        </mxCell>
        <mxCell id="D-i1duRZGYbxX3AgBeWL-41" value="1" style="rounded=0;whiteSpace=wrap;html=1;fillColor=#ffcc99;strokeColor=#36393d;" vertex="1" parent="1">
          <mxGeometry x="200" y="1530" width="40" height="40" as="geometry" />
        </mxCell>
        <mxCell id="D-i1duRZGYbxX3AgBeWL-42" value="&lt;font style=&quot;font-size: 16px;&quot; face=&quot;Times New Roman&quot;&gt;Best Prob: -31&lt;/font&gt;&lt;div style=&quot;font-size: 16px;&quot;&gt;&lt;font face=&quot;Times New Roman&quot; style=&quot;font-size: 16px;&quot;&gt;{&#39;x&#39;: 5, &#39;xs&#39;: 2, &#39;a1r&#39;: 6, &#39;b1r&#39;: 4, &#39;c1r&#39;: 2, &#39;d1r&#39;: 2, &#39;a1&#39;: 1, &#39;b1&#39;: 2, &#39;c1&#39;: 1, &#39;d1&#39;: 1, &#39;xr&#39;: 10, &#39;a2s&#39;: 2, &#39;b2s&#39;: 6, &#39;c2s&#39;: 5, &#39;d2s&#39;: 11, &#39;a2&#39;: 4, &#39;b2&#39;: 2, &#39;c2&#39;: 2, &#39;d2&#39;: 1}&lt;/font&gt;&lt;/div&gt;" style="text;whiteSpace=wrap;html=1;align=center;" vertex="1" parent="1">
          <mxGeometry x="305" y="1080" width="560" height="90" as="geometry" />
        </mxCell>
        <mxCell id="D-i1duRZGYbxX3AgBeWL-43" value="1" style="rounded=0;whiteSpace=wrap;html=1;fillColor=#ffcc99;strokeColor=#36393d;" vertex="1" parent="1">
          <mxGeometry x="320" y="1230" width="40" height="40" as="geometry" />
        </mxCell>
        <mxCell id="D-i1duRZGYbxX3AgBeWL-56" style="edgeStyle=orthogonalEdgeStyle;rounded=0;orthogonalLoop=1;jettySize=auto;html=1;exitX=0;exitY=1;exitDx=0;exitDy=0;fontFamily=Times New Roman;fontSize=18;fontColor=default;" edge="1" parent="1" source="D-i1duRZGYbxX3AgBeWL-44">
          <mxGeometry relative="1" as="geometry">
            <mxPoint x="360" y="1600" as="targetPoint" />
          </mxGeometry>
        </mxCell>
        <mxCell id="D-i1duRZGYbxX3AgBeWL-44" value="2" style="rounded=0;whiteSpace=wrap;html=1;fillColor=#ffcc99;strokeColor=#36393d;" vertex="1" parent="1">
          <mxGeometry x="360" y="1230" width="40" height="40" as="geometry" />
        </mxCell>
        <mxCell id="D-i1duRZGYbxX3AgBeWL-58" style="edgeStyle=orthogonalEdgeStyle;rounded=0;orthogonalLoop=1;jettySize=auto;html=1;exitX=1;exitY=1;exitDx=0;exitDy=0;fontFamily=Times New Roman;fontSize=18;fontColor=default;" edge="1" parent="1" source="D-i1duRZGYbxX3AgBeWL-45">
          <mxGeometry relative="1" as="geometry">
            <mxPoint x="479.8571428571429" y="1600" as="targetPoint" />
          </mxGeometry>
        </mxCell>
        <mxCell id="D-i1duRZGYbxX3AgBeWL-45" value="3" style="rounded=0;whiteSpace=wrap;html=1;fillColor=#ffcc99;strokeColor=#36393d;" vertex="1" parent="1">
          <mxGeometry x="440" y="1230" width="40" height="40" as="geometry" />
        </mxCell>
        <mxCell id="D-i1duRZGYbxX3AgBeWL-46" value="" style="rounded=0;whiteSpace=wrap;html=1;" vertex="1" parent="1">
          <mxGeometry x="480" y="1230" width="40" height="40" as="geometry" />
        </mxCell>
        <mxCell id="D-i1duRZGYbxX3AgBeWL-47" value="" style="rounded=0;whiteSpace=wrap;html=1;" vertex="1" parent="1">
          <mxGeometry x="320" y="1600" width="40" height="40" as="geometry" />
        </mxCell>
        <mxCell id="D-i1duRZGYbxX3AgBeWL-120" style="edgeStyle=orthogonalEdgeStyle;rounded=0;orthogonalLoop=1;jettySize=auto;html=1;exitX=0;exitY=1;exitDx=0;exitDy=0;fontFamily=Times New Roman;fontSize=18;fontColor=default;dashed=1;strokeColor=default;align=center;verticalAlign=middle;labelBackgroundColor=default;endArrow=none;endFill=0;" edge="1" parent="1" source="D-i1duRZGYbxX3AgBeWL-48">
          <mxGeometry relative="1" as="geometry">
            <mxPoint x="360" y="1680" as="targetPoint" />
          </mxGeometry>
        </mxCell>
        <mxCell id="D-i1duRZGYbxX3AgBeWL-48" value="" style="rounded=0;whiteSpace=wrap;html=1;" vertex="1" parent="1">
          <mxGeometry x="360" y="1600" width="40" height="40" as="geometry" />
        </mxCell>
        <mxCell id="D-i1duRZGYbxX3AgBeWL-49" value="2" style="rounded=0;whiteSpace=wrap;html=1;fillColor=#ffcc99;strokeColor=#36393d;" vertex="1" parent="1">
          <mxGeometry x="440" y="1600" width="40" height="40" as="geometry" />
        </mxCell>
        <mxCell id="D-i1duRZGYbxX3AgBeWL-121" style="edgeStyle=orthogonalEdgeStyle;rounded=0;orthogonalLoop=1;jettySize=auto;html=1;exitX=0;exitY=1;exitDx=0;exitDy=0;fontFamily=Times New Roman;fontSize=18;fontColor=default;dashed=1;strokeColor=default;align=center;verticalAlign=middle;labelBackgroundColor=default;endArrow=none;endFill=0;" edge="1" parent="1" source="D-i1duRZGYbxX3AgBeWL-50">
          <mxGeometry relative="1" as="geometry">
            <mxPoint x="480" y="1680" as="targetPoint" />
          </mxGeometry>
        </mxCell>
        <mxCell id="D-i1duRZGYbxX3AgBeWL-50" value="1" style="rounded=0;whiteSpace=wrap;html=1;fillColor=#ffcc99;strokeColor=#36393d;" vertex="1" parent="1">
          <mxGeometry x="480" y="1600" width="40" height="40" as="geometry" />
        </mxCell>
        <mxCell id="D-i1duRZGYbxX3AgBeWL-60" style="edgeStyle=orthogonalEdgeStyle;rounded=0;orthogonalLoop=1;jettySize=auto;html=1;entryX=0.5;entryY=0;entryDx=0;entryDy=0;curved=0;endArrow=classic;endFill=1;strokeWidth=1;" edge="1" parent="1" source="D-i1duRZGYbxX3AgBeWL-61" target="D-i1duRZGYbxX3AgBeWL-69">
          <mxGeometry relative="1" as="geometry" />
        </mxCell>
        <mxCell id="D-i1duRZGYbxX3AgBeWL-61" value="" style="rounded=0;whiteSpace=wrap;html=1;" vertex="1" parent="1">
          <mxGeometry x="600" y="1230" width="40" height="40" as="geometry" />
        </mxCell>
        <mxCell id="D-i1duRZGYbxX3AgBeWL-62" style="edgeStyle=orthogonalEdgeStyle;rounded=0;orthogonalLoop=1;jettySize=auto;html=1;entryX=0.5;entryY=0;entryDx=0;entryDy=0;" edge="1" parent="1" source="D-i1duRZGYbxX3AgBeWL-63" target="D-i1duRZGYbxX3AgBeWL-70">
          <mxGeometry relative="1" as="geometry" />
        </mxCell>
        <mxCell id="D-i1duRZGYbxX3AgBeWL-63" value="" style="rounded=0;whiteSpace=wrap;html=1;" vertex="1" parent="1">
          <mxGeometry x="640" y="1230" width="40" height="40" as="geometry" />
        </mxCell>
        <mxCell id="D-i1duRZGYbxX3AgBeWL-64" style="edgeStyle=orthogonalEdgeStyle;rounded=0;orthogonalLoop=1;jettySize=auto;html=1;entryX=0.5;entryY=0;entryDx=0;entryDy=0;" edge="1" parent="1" source="D-i1duRZGYbxX3AgBeWL-65" target="D-i1duRZGYbxX3AgBeWL-71">
          <mxGeometry relative="1" as="geometry" />
        </mxCell>
        <mxCell id="D-i1duRZGYbxX3AgBeWL-65" value="" style="rounded=0;whiteSpace=wrap;html=1;" vertex="1" parent="1">
          <mxGeometry x="720" y="1230" width="40" height="40" as="geometry" />
        </mxCell>
        <mxCell id="D-i1duRZGYbxX3AgBeWL-66" style="edgeStyle=orthogonalEdgeStyle;rounded=0;orthogonalLoop=1;jettySize=auto;html=1;entryX=0.5;entryY=0;entryDx=0;entryDy=0;" edge="1" parent="1" source="D-i1duRZGYbxX3AgBeWL-67" target="D-i1duRZGYbxX3AgBeWL-73">
          <mxGeometry relative="1" as="geometry" />
        </mxCell>
        <mxCell id="D-i1duRZGYbxX3AgBeWL-67" value="" style="rounded=0;whiteSpace=wrap;html=1;" vertex="1" parent="1">
          <mxGeometry x="760" y="1230" width="40" height="40" as="geometry" />
        </mxCell>
        <mxCell id="D-i1duRZGYbxX3AgBeWL-68" style="edgeStyle=orthogonalEdgeStyle;rounded=0;orthogonalLoop=1;jettySize=auto;html=1;exitX=1;exitY=1;exitDx=0;exitDy=0;fontFamily=Times New Roman;fontSize=18;fontColor=default;" edge="1" parent="1" source="D-i1duRZGYbxX3AgBeWL-69">
          <mxGeometry relative="1" as="geometry">
            <mxPoint x="639.8571428571428" y="1370" as="targetPoint" />
          </mxGeometry>
        </mxCell>
        <mxCell id="D-i1duRZGYbxX3AgBeWL-69" value="" style="rounded=0;whiteSpace=wrap;html=1;" vertex="1" parent="1">
          <mxGeometry x="600" y="1300" width="40" height="40" as="geometry" />
        </mxCell>
        <mxCell id="D-i1duRZGYbxX3AgBeWL-70" value="" style="rounded=0;whiteSpace=wrap;html=1;" vertex="1" parent="1">
          <mxGeometry x="640" y="1300" width="40" height="40" as="geometry" />
        </mxCell>
        <mxCell id="D-i1duRZGYbxX3AgBeWL-71" value="" style="rounded=0;whiteSpace=wrap;html=1;" vertex="1" parent="1">
          <mxGeometry x="720" y="1300" width="40" height="40" as="geometry" />
        </mxCell>
        <mxCell id="D-i1duRZGYbxX3AgBeWL-72" style="edgeStyle=orthogonalEdgeStyle;rounded=0;orthogonalLoop=1;jettySize=auto;html=1;exitX=0;exitY=1;exitDx=0;exitDy=0;fontFamily=Times New Roman;fontSize=18;fontColor=default;" edge="1" parent="1" source="D-i1duRZGYbxX3AgBeWL-73">
          <mxGeometry relative="1" as="geometry">
            <mxPoint x="759.8571428571428" y="1370" as="targetPoint" />
          </mxGeometry>
        </mxCell>
        <mxCell id="D-i1duRZGYbxX3AgBeWL-73" value="" style="rounded=0;whiteSpace=wrap;html=1;" vertex="1" parent="1">
          <mxGeometry x="760" y="1300" width="40" height="40" as="geometry" />
        </mxCell>
        <mxCell id="D-i1duRZGYbxX3AgBeWL-74" value="&lt;font style=&quot;font-size: 16px;&quot; face=&quot;Times New Roman&quot;&gt;MixColumn&lt;/font&gt;" style="rounded=1;whiteSpace=wrap;html=1;fillColor=#fff2cc;strokeColor=#d6b656;" vertex="1" parent="1">
          <mxGeometry x="600" y="1370" width="200" height="60" as="geometry" />
        </mxCell>
        <mxCell id="D-i1duRZGYbxX3AgBeWL-75" style="edgeStyle=orthogonalEdgeStyle;rounded=0;orthogonalLoop=1;jettySize=auto;html=1;fontFamily=Helvetica;fontSize=12;fontColor=default;" edge="1" parent="1" source="D-i1duRZGYbxX3AgBeWL-77">
          <mxGeometry relative="1" as="geometry">
            <mxPoint x="620" y="1530" as="targetPoint" />
          </mxGeometry>
        </mxCell>
        <mxCell id="D-i1duRZGYbxX3AgBeWL-76" style="edgeStyle=orthogonalEdgeStyle;rounded=0;orthogonalLoop=1;jettySize=auto;html=1;exitX=1;exitY=0;exitDx=0;exitDy=0;fontFamily=Times New Roman;fontSize=18;fontColor=default;startArrow=classic;startFill=1;endArrow=none;endFill=0;" edge="1" parent="1" source="D-i1duRZGYbxX3AgBeWL-77">
          <mxGeometry relative="1" as="geometry">
            <mxPoint x="639.8571428571428" y="1430" as="targetPoint" />
          </mxGeometry>
        </mxCell>
        <mxCell id="D-i1duRZGYbxX3AgBeWL-77" value="" style="rounded=0;whiteSpace=wrap;html=1;" vertex="1" parent="1">
          <mxGeometry x="600" y="1460" width="40" height="40" as="geometry" />
        </mxCell>
        <mxCell id="D-i1duRZGYbxX3AgBeWL-78" style="edgeStyle=orthogonalEdgeStyle;rounded=0;orthogonalLoop=1;jettySize=auto;html=1;fontFamily=Helvetica;fontSize=12;fontColor=default;" edge="1" parent="1" source="D-i1duRZGYbxX3AgBeWL-79">
          <mxGeometry relative="1" as="geometry">
            <mxPoint x="660" y="1530" as="targetPoint" />
          </mxGeometry>
        </mxCell>
        <mxCell id="D-i1duRZGYbxX3AgBeWL-79" value="" style="rounded=0;whiteSpace=wrap;html=1;" vertex="1" parent="1">
          <mxGeometry x="640" y="1460" width="40" height="40" as="geometry" />
        </mxCell>
        <mxCell id="D-i1duRZGYbxX3AgBeWL-80" style="edgeStyle=orthogonalEdgeStyle;rounded=0;orthogonalLoop=1;jettySize=auto;html=1;fontFamily=Helvetica;fontSize=12;fontColor=default;" edge="1" parent="1" source="D-i1duRZGYbxX3AgBeWL-82">
          <mxGeometry relative="1" as="geometry">
            <mxPoint x="740" y="1530" as="targetPoint" />
          </mxGeometry>
        </mxCell>
        <mxCell id="D-i1duRZGYbxX3AgBeWL-81" style="edgeStyle=orthogonalEdgeStyle;rounded=0;orthogonalLoop=1;jettySize=auto;html=1;exitX=1;exitY=0;exitDx=0;exitDy=0;fontFamily=Times New Roman;fontSize=18;fontColor=default;startArrow=classic;startFill=1;endArrow=none;endFill=0;" edge="1" parent="1" source="D-i1duRZGYbxX3AgBeWL-82">
          <mxGeometry relative="1" as="geometry">
            <mxPoint x="759.8571428571428" y="1430" as="targetPoint" />
          </mxGeometry>
        </mxCell>
        <mxCell id="D-i1duRZGYbxX3AgBeWL-82" value="" style="rounded=0;whiteSpace=wrap;html=1;" vertex="1" parent="1">
          <mxGeometry x="720" y="1460" width="40" height="40" as="geometry" />
        </mxCell>
        <mxCell id="D-i1duRZGYbxX3AgBeWL-83" style="edgeStyle=orthogonalEdgeStyle;rounded=0;orthogonalLoop=1;jettySize=auto;html=1;fontFamily=Helvetica;fontSize=12;fontColor=default;" edge="1" parent="1" source="D-i1duRZGYbxX3AgBeWL-84">
          <mxGeometry relative="1" as="geometry">
            <mxPoint x="780" y="1530" as="targetPoint" />
          </mxGeometry>
        </mxCell>
        <mxCell id="D-i1duRZGYbxX3AgBeWL-84" value="" style="rounded=0;whiteSpace=wrap;html=1;" vertex="1" parent="1">
          <mxGeometry x="760" y="1460" width="40" height="40" as="geometry" />
        </mxCell>
        <mxCell id="D-i1duRZGYbxX3AgBeWL-85" style="edgeStyle=orthogonalEdgeStyle;rounded=0;orthogonalLoop=1;jettySize=auto;html=1;exitX=1;exitY=1;exitDx=0;exitDy=0;entryX=0;entryY=0.5;entryDx=0;entryDy=0;fontFamily=Times New Roman;fontSize=18;fontColor=default;" edge="1" parent="1" source="D-i1duRZGYbxX3AgBeWL-86" target="D-i1duRZGYbxX3AgBeWL-97">
          <mxGeometry relative="1" as="geometry" />
        </mxCell>
        <mxCell id="D-i1duRZGYbxX3AgBeWL-86" value="" style="rounded=0;whiteSpace=wrap;html=1;" vertex="1" parent="1">
          <mxGeometry x="600" y="1530" width="40" height="40" as="geometry" />
        </mxCell>
        <mxCell id="D-i1duRZGYbxX3AgBeWL-87" value="" style="rounded=0;whiteSpace=wrap;html=1;" vertex="1" parent="1">
          <mxGeometry x="640" y="1530" width="40" height="40" as="geometry" />
        </mxCell>
        <mxCell id="D-i1duRZGYbxX3AgBeWL-88" value="" style="rounded=0;whiteSpace=wrap;html=1;" vertex="1" parent="1">
          <mxGeometry x="720" y="1530" width="40" height="40" as="geometry" />
        </mxCell>
        <mxCell id="D-i1duRZGYbxX3AgBeWL-89" style="edgeStyle=orthogonalEdgeStyle;rounded=0;orthogonalLoop=1;jettySize=auto;html=1;exitX=1;exitY=0.5;exitDx=0;exitDy=0;fontFamily=Times New Roman;fontSize=18;fontColor=default;" edge="1" parent="1" source="D-i1duRZGYbxX3AgBeWL-90">
          <mxGeometry relative="1" as="geometry">
            <mxPoint x="1040" y="1550.095238095238" as="targetPoint" />
          </mxGeometry>
        </mxCell>
        <mxCell id="D-i1duRZGYbxX3AgBeWL-90" value="" style="rounded=0;whiteSpace=wrap;html=1;" vertex="1" parent="1">
          <mxGeometry x="760" y="1530" width="40" height="40" as="geometry" />
        </mxCell>
        <mxCell id="D-i1duRZGYbxX3AgBeWL-91" value="4" style="rounded=0;whiteSpace=wrap;html=1;fillColor=#ffcc99;strokeColor=#36393d;" vertex="1" parent="1">
          <mxGeometry x="880" y="1230" width="40" height="40" as="geometry" />
        </mxCell>
        <mxCell id="D-i1duRZGYbxX3AgBeWL-92" style="edgeStyle=orthogonalEdgeStyle;rounded=0;orthogonalLoop=1;jettySize=auto;html=1;exitX=0;exitY=1;exitDx=0;exitDy=0;fontFamily=Times New Roman;fontSize=18;fontColor=default;" edge="1" parent="1" source="D-i1duRZGYbxX3AgBeWL-93">
          <mxGeometry relative="1" as="geometry">
            <mxPoint x="920" y="1600" as="targetPoint" />
          </mxGeometry>
        </mxCell>
        <mxCell id="D-i1duRZGYbxX3AgBeWL-93" value="2" style="rounded=0;whiteSpace=wrap;html=1;fillColor=#ffcc99;strokeColor=#36393d;" vertex="1" parent="1">
          <mxGeometry x="920" y="1230" width="40" height="40" as="geometry" />
        </mxCell>
        <mxCell id="D-i1duRZGYbxX3AgBeWL-94" style="edgeStyle=orthogonalEdgeStyle;rounded=0;orthogonalLoop=1;jettySize=auto;html=1;exitX=1;exitY=1;exitDx=0;exitDy=0;fontFamily=Times New Roman;fontSize=18;fontColor=default;" edge="1" parent="1" source="D-i1duRZGYbxX3AgBeWL-95">
          <mxGeometry relative="1" as="geometry">
            <mxPoint x="1039.857142857143" y="1600" as="targetPoint" />
          </mxGeometry>
        </mxCell>
        <mxCell id="D-i1duRZGYbxX3AgBeWL-95" value="" style="rounded=0;whiteSpace=wrap;html=1;" vertex="1" parent="1">
          <mxGeometry x="1000" y="1230" width="40" height="40" as="geometry" />
        </mxCell>
        <mxCell id="D-i1duRZGYbxX3AgBeWL-96" value="" style="rounded=0;whiteSpace=wrap;html=1;" vertex="1" parent="1">
          <mxGeometry x="1040" y="1230" width="40" height="40" as="geometry" />
        </mxCell>
        <mxCell id="D-i1duRZGYbxX3AgBeWL-97" value="4" style="rounded=0;whiteSpace=wrap;html=1;fillColor=#ffcc99;strokeColor=#36393d;" vertex="1" parent="1">
          <mxGeometry x="880" y="1600" width="40" height="40" as="geometry" />
        </mxCell>
        <mxCell id="D-i1duRZGYbxX3AgBeWL-98" value="2" style="rounded=0;whiteSpace=wrap;html=1;fillColor=#ffcc99;strokeColor=#36393d;" vertex="1" parent="1">
          <mxGeometry x="920" y="1600" width="40" height="40" as="geometry" />
        </mxCell>
        <mxCell id="D-i1duRZGYbxX3AgBeWL-99" value="" style="rounded=0;whiteSpace=wrap;html=1;" vertex="1" parent="1">
          <mxGeometry x="1000" y="1600" width="40" height="40" as="geometry" />
        </mxCell>
        <mxCell id="D-i1duRZGYbxX3AgBeWL-100" value="" style="rounded=0;whiteSpace=wrap;html=1;" vertex="1" parent="1">
          <mxGeometry x="1040" y="1600" width="40" height="40" as="geometry" />
        </mxCell>
        <mxCell id="D-i1duRZGYbxX3AgBeWL-126" style="rounded=0;orthogonalLoop=1;jettySize=auto;html=1;exitX=1;exitY=0;exitDx=0;exitDy=0;fontFamily=Times New Roman;fontSize=18;fontColor=default;endArrow=none;endFill=0;dashed=1;" edge="1" parent="1" source="D-i1duRZGYbxX3AgBeWL-101">
          <mxGeometry relative="1" as="geometry">
            <mxPoint x="360" y="1680" as="targetPoint" />
          </mxGeometry>
        </mxCell>
        <mxCell id="D-i1duRZGYbxX3AgBeWL-101" value="" style="rounded=0;whiteSpace=wrap;html=1;" vertex="1" parent="1">
          <mxGeometry x="40" y="1750" width="40" height="40" as="geometry" />
        </mxCell>
        <mxCell id="D-i1duRZGYbxX3AgBeWL-102" value="" style="rounded=0;whiteSpace=wrap;html=1;" vertex="1" parent="1">
          <mxGeometry x="80" y="1750" width="40" height="40" as="geometry" />
        </mxCell>
        <mxCell id="D-i1duRZGYbxX3AgBeWL-103" value="" style="rounded=0;whiteSpace=wrap;html=1;" vertex="1" parent="1">
          <mxGeometry x="160" y="1750" width="40" height="40" as="geometry" />
        </mxCell>
        <mxCell id="D-i1duRZGYbxX3AgBeWL-127" style="rounded=0;orthogonalLoop=1;jettySize=auto;html=1;exitX=0;exitY=0;exitDx=0;exitDy=0;fontFamily=Times New Roman;fontSize=18;fontColor=default;dashed=1;strokeColor=default;align=center;verticalAlign=middle;labelBackgroundColor=default;endArrow=none;endFill=0;" edge="1" parent="1" source="D-i1duRZGYbxX3AgBeWL-104">
          <mxGeometry relative="1" as="geometry">
            <mxPoint x="1040" y="1680" as="targetPoint" />
          </mxGeometry>
        </mxCell>
        <mxCell id="D-i1duRZGYbxX3AgBeWL-104" value="" style="rounded=0;whiteSpace=wrap;html=1;" vertex="1" parent="1">
          <mxGeometry x="200" y="1750" width="40" height="40" as="geometry" />
        </mxCell>
        <mxCell id="D-i1duRZGYbxX3AgBeWL-128" style="rounded=0;orthogonalLoop=1;jettySize=auto;html=1;exitX=1;exitY=0;exitDx=0;exitDy=0;fontFamily=Times New Roman;fontSize=18;fontColor=default;dashed=1;strokeColor=default;align=center;verticalAlign=middle;labelBackgroundColor=default;endArrow=none;endFill=0;" edge="1" parent="1" source="D-i1duRZGYbxX3AgBeWL-105">
          <mxGeometry relative="1" as="geometry">
            <mxPoint x="580" y="1680" as="targetPoint" />
          </mxGeometry>
        </mxCell>
        <mxCell id="D-i1duRZGYbxX3AgBeWL-105" value="" style="rounded=0;whiteSpace=wrap;html=1;" vertex="1" parent="1">
          <mxGeometry x="320" y="1750" width="40" height="40" as="geometry" />
        </mxCell>
        <mxCell id="D-i1duRZGYbxX3AgBeWL-106" value="" style="rounded=0;whiteSpace=wrap;html=1;" vertex="1" parent="1">
          <mxGeometry x="360" y="1750" width="40" height="40" as="geometry" />
        </mxCell>
        <mxCell id="D-i1duRZGYbxX3AgBeWL-107" value="" style="rounded=0;whiteSpace=wrap;html=1;" vertex="1" parent="1">
          <mxGeometry x="440" y="1750" width="40" height="40" as="geometry" />
        </mxCell>
        <mxCell id="D-i1duRZGYbxX3AgBeWL-129" style="rounded=0;orthogonalLoop=1;jettySize=auto;html=1;exitX=0;exitY=0;exitDx=0;exitDy=0;fontFamily=Times New Roman;fontSize=18;fontColor=default;dashed=1;strokeColor=default;align=center;verticalAlign=middle;labelBackgroundColor=default;endArrow=none;endFill=0;" edge="1" parent="1" source="D-i1duRZGYbxX3AgBeWL-108">
          <mxGeometry relative="1" as="geometry">
            <mxPoint x="260" y="1680" as="targetPoint" />
          </mxGeometry>
        </mxCell>
        <mxCell id="D-i1duRZGYbxX3AgBeWL-108" value="" style="rounded=0;whiteSpace=wrap;html=1;" vertex="1" parent="1">
          <mxGeometry x="480" y="1750" width="40" height="40" as="geometry" />
        </mxCell>
        <mxCell id="D-i1duRZGYbxX3AgBeWL-130" style="rounded=0;orthogonalLoop=1;jettySize=auto;html=1;exitX=1;exitY=0;exitDx=0;exitDy=0;fontFamily=Times New Roman;fontSize=18;fontColor=default;dashed=1;strokeColor=default;align=center;verticalAlign=middle;labelBackgroundColor=default;endArrow=none;endFill=0;" edge="1" parent="1" source="D-i1duRZGYbxX3AgBeWL-109">
          <mxGeometry relative="1" as="geometry">
            <mxPoint x="920" y="1680" as="targetPoint" />
          </mxGeometry>
        </mxCell>
        <mxCell id="D-i1duRZGYbxX3AgBeWL-109" value="4" style="rounded=0;whiteSpace=wrap;html=1;fillColor=#ffcc99;strokeColor=#36393d;" vertex="1" parent="1">
          <mxGeometry x="600" y="1750" width="40" height="40" as="geometry" />
        </mxCell>
        <mxCell id="D-i1duRZGYbxX3AgBeWL-110" value="2" style="rounded=0;whiteSpace=wrap;html=1;fillColor=#ffcc99;strokeColor=#36393d;" vertex="1" parent="1">
          <mxGeometry x="640" y="1750" width="40" height="40" as="geometry" />
        </mxCell>
        <mxCell id="D-i1duRZGYbxX3AgBeWL-111" value="2" style="rounded=0;whiteSpace=wrap;html=1;fillColor=#ffcc99;strokeColor=#36393d;" vertex="1" parent="1">
          <mxGeometry x="720" y="1750" width="40" height="40" as="geometry" />
        </mxCell>
        <mxCell id="D-i1duRZGYbxX3AgBeWL-131" style="rounded=0;orthogonalLoop=1;jettySize=auto;html=1;exitX=0;exitY=0;exitDx=0;exitDy=0;fontFamily=Times New Roman;fontSize=18;fontColor=default;dashed=1;strokeColor=default;align=center;verticalAlign=middle;labelBackgroundColor=default;endArrow=none;endFill=0;" edge="1" parent="1" source="D-i1duRZGYbxX3AgBeWL-112">
          <mxGeometry relative="1" as="geometry">
            <mxPoint x="480" y="1680" as="targetPoint" />
          </mxGeometry>
        </mxCell>
        <mxCell id="D-i1duRZGYbxX3AgBeWL-112" value="1" style="rounded=0;whiteSpace=wrap;html=1;fillColor=#ffcc99;strokeColor=#36393d;" vertex="1" parent="1">
          <mxGeometry x="760" y="1750" width="40" height="40" as="geometry" />
        </mxCell>
        <mxCell id="D-i1duRZGYbxX3AgBeWL-132" style="rounded=0;orthogonalLoop=1;jettySize=auto;html=1;exitX=1;exitY=0;exitDx=0;exitDy=0;fontFamily=Times New Roman;fontSize=18;fontColor=default;dashed=1;strokeColor=default;align=center;verticalAlign=middle;labelBackgroundColor=default;endArrow=none;endFill=0;" edge="1" parent="1" source="D-i1duRZGYbxX3AgBeWL-113">
          <mxGeometry relative="1" as="geometry">
            <mxPoint x="20" y="1680" as="targetPoint" />
          </mxGeometry>
        </mxCell>
        <mxCell id="D-i1duRZGYbxX3AgBeWL-113" value="" style="rounded=0;whiteSpace=wrap;html=1;" vertex="1" parent="1">
          <mxGeometry x="880" y="1750" width="40" height="40" as="geometry" />
        </mxCell>
        <mxCell id="D-i1duRZGYbxX3AgBeWL-114" value="5" style="rounded=0;whiteSpace=wrap;html=1;fillColor=#ffcc99;strokeColor=#36393d;" vertex="1" parent="1">
          <mxGeometry x="920" y="1750" width="40" height="40" as="geometry" />
        </mxCell>
        <mxCell id="D-i1duRZGYbxX3AgBeWL-133" style="rounded=0;orthogonalLoop=1;jettySize=auto;html=1;exitX=1;exitY=0;exitDx=0;exitDy=0;fontFamily=Times New Roman;fontSize=18;fontColor=default;dashed=1;strokeColor=default;align=center;verticalAlign=middle;labelBackgroundColor=default;endArrow=none;endFill=0;" edge="1" parent="1" source="D-i1duRZGYbxX3AgBeWL-115">
          <mxGeometry relative="1" as="geometry">
            <mxPoint x="820" y="1680" as="targetPoint" />
          </mxGeometry>
        </mxCell>
        <mxCell id="D-i1duRZGYbxX3AgBeWL-115" value="" style="rounded=0;whiteSpace=wrap;html=1;" vertex="1" parent="1">
          <mxGeometry x="1000" y="1750" width="40" height="40" as="geometry" />
        </mxCell>
        <mxCell id="D-i1duRZGYbxX3AgBeWL-116" value="" style="rounded=0;whiteSpace=wrap;html=1;" vertex="1" parent="1">
          <mxGeometry x="1040" y="1750" width="40" height="40" as="geometry" />
        </mxCell>
        <mxCell id="D-i1duRZGYbxX3AgBeWL-122" style="edgeStyle=orthogonalEdgeStyle;rounded=0;orthogonalLoop=1;jettySize=auto;html=1;fontFamily=Times New Roman;fontSize=18;fontColor=default;endArrow=none;endFill=0;dashed=1;" edge="1" parent="1">
          <mxGeometry relative="1" as="geometry">
            <mxPoint x="579.17" y="1680" as="targetPoint" />
            <mxPoint x="599.17" y="1250" as="sourcePoint" />
          </mxGeometry>
        </mxCell>
        <mxCell id="D-i1duRZGYbxX3AgBeWL-123" style="edgeStyle=orthogonalEdgeStyle;rounded=0;orthogonalLoop=1;jettySize=auto;html=1;fontFamily=Times New Roman;fontSize=18;fontColor=default;dashed=1;strokeColor=default;align=center;verticalAlign=middle;labelBackgroundColor=default;endArrow=none;endFill=0;" edge="1" parent="1">
          <mxGeometry relative="1" as="geometry">
            <mxPoint x="819.17" y="1680" as="targetPoint" />
            <mxPoint x="799.17" y="1250" as="sourcePoint" />
          </mxGeometry>
        </mxCell>
        <mxCell id="D-i1duRZGYbxX3AgBeWL-124" style="edgeStyle=orthogonalEdgeStyle;rounded=0;orthogonalLoop=1;jettySize=auto;html=1;exitX=0;exitY=1;exitDx=0;exitDy=0;fontFamily=Times New Roman;fontSize=18;fontColor=default;dashed=1;strokeColor=default;align=center;verticalAlign=middle;labelBackgroundColor=default;endArrow=none;endFill=0;" edge="1" parent="1">
          <mxGeometry relative="1" as="geometry">
            <mxPoint x="919.17" y="1680" as="targetPoint" />
            <mxPoint x="919.17" y="1640" as="sourcePoint" />
          </mxGeometry>
        </mxCell>
        <mxCell id="D-i1duRZGYbxX3AgBeWL-125" style="edgeStyle=orthogonalEdgeStyle;rounded=0;orthogonalLoop=1;jettySize=auto;html=1;exitX=0;exitY=1;exitDx=0;exitDy=0;fontFamily=Times New Roman;fontSize=18;fontColor=default;dashed=1;strokeColor=default;align=center;verticalAlign=middle;labelBackgroundColor=default;endArrow=none;endFill=0;" edge="1" parent="1">
          <mxGeometry relative="1" as="geometry">
            <mxPoint x="1039.17" y="1680" as="targetPoint" />
            <mxPoint x="1039.17" y="1640" as="sourcePoint" />
          </mxGeometry>
        </mxCell>
        <mxCell id="D-i1duRZGYbxX3AgBeWL-231" style="edgeStyle=orthogonalEdgeStyle;rounded=0;orthogonalLoop=1;jettySize=auto;html=1;entryX=0.5;entryY=0;entryDx=0;entryDy=0;curved=0;endArrow=classic;endFill=1;strokeWidth=1;" edge="1" parent="1" target="D-i1duRZGYbxX3AgBeWL-238">
          <mxGeometry relative="1" as="geometry">
            <mxPoint x="60" y="1790" as="sourcePoint" />
          </mxGeometry>
        </mxCell>
        <mxCell id="D-i1duRZGYbxX3AgBeWL-232" style="edgeStyle=orthogonalEdgeStyle;rounded=0;orthogonalLoop=1;jettySize=auto;html=1;fontFamily=Times New Roman;fontSize=18;fontColor=default;endArrow=none;endFill=0;dashed=1;" edge="1" parent="1">
          <mxGeometry relative="1" as="geometry">
            <mxPoint x="20" y="2200" as="targetPoint" />
            <mxPoint x="40" y="1770" as="sourcePoint" />
          </mxGeometry>
        </mxCell>
        <mxCell id="D-i1duRZGYbxX3AgBeWL-233" style="edgeStyle=orthogonalEdgeStyle;rounded=0;orthogonalLoop=1;jettySize=auto;html=1;entryX=0.5;entryY=0;entryDx=0;entryDy=0;" edge="1" parent="1" target="D-i1duRZGYbxX3AgBeWL-239">
          <mxGeometry relative="1" as="geometry">
            <mxPoint x="100" y="1790" as="sourcePoint" />
          </mxGeometry>
        </mxCell>
        <mxCell id="D-i1duRZGYbxX3AgBeWL-234" style="edgeStyle=orthogonalEdgeStyle;rounded=0;orthogonalLoop=1;jettySize=auto;html=1;entryX=0.5;entryY=0;entryDx=0;entryDy=0;" edge="1" parent="1" target="D-i1duRZGYbxX3AgBeWL-240">
          <mxGeometry relative="1" as="geometry">
            <mxPoint x="180" y="1790" as="sourcePoint" />
          </mxGeometry>
        </mxCell>
        <mxCell id="D-i1duRZGYbxX3AgBeWL-235" style="edgeStyle=orthogonalEdgeStyle;rounded=0;orthogonalLoop=1;jettySize=auto;html=1;entryX=0.5;entryY=0;entryDx=0;entryDy=0;" edge="1" parent="1" target="D-i1duRZGYbxX3AgBeWL-242">
          <mxGeometry relative="1" as="geometry">
            <mxPoint x="220" y="1790" as="sourcePoint" />
          </mxGeometry>
        </mxCell>
        <mxCell id="D-i1duRZGYbxX3AgBeWL-236" style="edgeStyle=orthogonalEdgeStyle;rounded=0;orthogonalLoop=1;jettySize=auto;html=1;fontFamily=Times New Roman;fontSize=18;fontColor=default;dashed=1;strokeColor=default;align=center;verticalAlign=middle;labelBackgroundColor=default;endArrow=none;endFill=0;" edge="1" parent="1">
          <mxGeometry relative="1" as="geometry">
            <mxPoint x="260" y="2200" as="targetPoint" />
            <mxPoint x="240" y="1770" as="sourcePoint" />
          </mxGeometry>
        </mxCell>
        <mxCell id="D-i1duRZGYbxX3AgBeWL-237" style="edgeStyle=orthogonalEdgeStyle;rounded=0;orthogonalLoop=1;jettySize=auto;html=1;exitX=1;exitY=1;exitDx=0;exitDy=0;fontFamily=Times New Roman;fontSize=18;fontColor=default;" edge="1" parent="1" source="D-i1duRZGYbxX3AgBeWL-238">
          <mxGeometry relative="1" as="geometry">
            <mxPoint x="79.85714285714278" y="1890" as="targetPoint" />
          </mxGeometry>
        </mxCell>
        <mxCell id="D-i1duRZGYbxX3AgBeWL-238" value="" style="rounded=0;whiteSpace=wrap;html=1;" vertex="1" parent="1">
          <mxGeometry x="40" y="1820" width="40" height="40" as="geometry" />
        </mxCell>
        <mxCell id="D-i1duRZGYbxX3AgBeWL-239" value="" style="rounded=0;whiteSpace=wrap;html=1;" vertex="1" parent="1">
          <mxGeometry x="80" y="1820" width="40" height="40" as="geometry" />
        </mxCell>
        <mxCell id="D-i1duRZGYbxX3AgBeWL-240" value="" style="rounded=0;whiteSpace=wrap;html=1;" vertex="1" parent="1">
          <mxGeometry x="160" y="1820" width="40" height="40" as="geometry" />
        </mxCell>
        <mxCell id="D-i1duRZGYbxX3AgBeWL-241" style="edgeStyle=orthogonalEdgeStyle;rounded=0;orthogonalLoop=1;jettySize=auto;html=1;exitX=0;exitY=1;exitDx=0;exitDy=0;fontFamily=Times New Roman;fontSize=18;fontColor=default;" edge="1" parent="1" source="D-i1duRZGYbxX3AgBeWL-242">
          <mxGeometry relative="1" as="geometry">
            <mxPoint x="199.85714285714278" y="1890" as="targetPoint" />
          </mxGeometry>
        </mxCell>
        <mxCell id="D-i1duRZGYbxX3AgBeWL-242" value="" style="rounded=0;whiteSpace=wrap;html=1;" vertex="1" parent="1">
          <mxGeometry x="200" y="1820" width="40" height="40" as="geometry" />
        </mxCell>
        <mxCell id="D-i1duRZGYbxX3AgBeWL-243" value="&lt;font style=&quot;font-size: 16px;&quot; face=&quot;Times New Roman&quot;&gt;MixColumn&lt;/font&gt;" style="rounded=1;whiteSpace=wrap;html=1;fillColor=#fff2cc;strokeColor=#d6b656;" vertex="1" parent="1">
          <mxGeometry x="40" y="1890" width="200" height="60" as="geometry" />
        </mxCell>
        <mxCell id="D-i1duRZGYbxX3AgBeWL-244" style="edgeStyle=orthogonalEdgeStyle;rounded=0;orthogonalLoop=1;jettySize=auto;html=1;fontFamily=Helvetica;fontSize=12;fontColor=default;" edge="1" parent="1" source="D-i1duRZGYbxX3AgBeWL-246">
          <mxGeometry relative="1" as="geometry">
            <mxPoint x="60" y="2050" as="targetPoint" />
          </mxGeometry>
        </mxCell>
        <mxCell id="D-i1duRZGYbxX3AgBeWL-245" style="edgeStyle=orthogonalEdgeStyle;rounded=0;orthogonalLoop=1;jettySize=auto;html=1;exitX=1;exitY=0;exitDx=0;exitDy=0;fontFamily=Times New Roman;fontSize=18;fontColor=default;startArrow=classic;startFill=1;endArrow=none;endFill=0;" edge="1" parent="1" source="D-i1duRZGYbxX3AgBeWL-246">
          <mxGeometry relative="1" as="geometry">
            <mxPoint x="79.85714285714278" y="1950" as="targetPoint" />
          </mxGeometry>
        </mxCell>
        <mxCell id="D-i1duRZGYbxX3AgBeWL-246" value="" style="rounded=0;whiteSpace=wrap;html=1;" vertex="1" parent="1">
          <mxGeometry x="40" y="1980" width="40" height="40" as="geometry" />
        </mxCell>
        <mxCell id="D-i1duRZGYbxX3AgBeWL-247" style="edgeStyle=orthogonalEdgeStyle;rounded=0;orthogonalLoop=1;jettySize=auto;html=1;fontFamily=Helvetica;fontSize=12;fontColor=default;" edge="1" parent="1" source="D-i1duRZGYbxX3AgBeWL-248">
          <mxGeometry relative="1" as="geometry">
            <mxPoint x="100" y="2050" as="targetPoint" />
          </mxGeometry>
        </mxCell>
        <mxCell id="D-i1duRZGYbxX3AgBeWL-248" value="" style="rounded=0;whiteSpace=wrap;html=1;" vertex="1" parent="1">
          <mxGeometry x="80" y="1980" width="40" height="40" as="geometry" />
        </mxCell>
        <mxCell id="D-i1duRZGYbxX3AgBeWL-249" style="edgeStyle=orthogonalEdgeStyle;rounded=0;orthogonalLoop=1;jettySize=auto;html=1;fontFamily=Helvetica;fontSize=12;fontColor=default;" edge="1" parent="1" source="D-i1duRZGYbxX3AgBeWL-251">
          <mxGeometry relative="1" as="geometry">
            <mxPoint x="180" y="2050" as="targetPoint" />
          </mxGeometry>
        </mxCell>
        <mxCell id="D-i1duRZGYbxX3AgBeWL-250" style="edgeStyle=orthogonalEdgeStyle;rounded=0;orthogonalLoop=1;jettySize=auto;html=1;exitX=1;exitY=0;exitDx=0;exitDy=0;fontFamily=Times New Roman;fontSize=18;fontColor=default;startArrow=classic;startFill=1;endArrow=none;endFill=0;" edge="1" parent="1" source="D-i1duRZGYbxX3AgBeWL-251">
          <mxGeometry relative="1" as="geometry">
            <mxPoint x="199.85714285714278" y="1950" as="targetPoint" />
          </mxGeometry>
        </mxCell>
        <mxCell id="D-i1duRZGYbxX3AgBeWL-251" value="" style="rounded=0;whiteSpace=wrap;html=1;" vertex="1" parent="1">
          <mxGeometry x="160" y="1980" width="40" height="40" as="geometry" />
        </mxCell>
        <mxCell id="D-i1duRZGYbxX3AgBeWL-252" style="edgeStyle=orthogonalEdgeStyle;rounded=0;orthogonalLoop=1;jettySize=auto;html=1;fontFamily=Helvetica;fontSize=12;fontColor=default;" edge="1" parent="1" source="D-i1duRZGYbxX3AgBeWL-253">
          <mxGeometry relative="1" as="geometry">
            <mxPoint x="220" y="2050" as="targetPoint" />
          </mxGeometry>
        </mxCell>
        <mxCell id="D-i1duRZGYbxX3AgBeWL-253" value="" style="rounded=0;whiteSpace=wrap;html=1;" vertex="1" parent="1">
          <mxGeometry x="200" y="1980" width="40" height="40" as="geometry" />
        </mxCell>
        <mxCell id="D-i1duRZGYbxX3AgBeWL-254" style="edgeStyle=orthogonalEdgeStyle;rounded=0;orthogonalLoop=1;jettySize=auto;html=1;exitX=1;exitY=1;exitDx=0;exitDy=0;entryX=0;entryY=0.5;entryDx=0;entryDy=0;fontFamily=Times New Roman;fontSize=18;fontColor=default;" edge="1" parent="1" source="D-i1duRZGYbxX3AgBeWL-255" target="D-i1duRZGYbxX3AgBeWL-262">
          <mxGeometry relative="1" as="geometry" />
        </mxCell>
        <mxCell id="D-i1duRZGYbxX3AgBeWL-255" value="" style="rounded=0;whiteSpace=wrap;html=1;" vertex="1" parent="1">
          <mxGeometry x="40" y="2050" width="40" height="40" as="geometry" />
        </mxCell>
        <mxCell id="D-i1duRZGYbxX3AgBeWL-256" value="" style="rounded=0;whiteSpace=wrap;html=1;" vertex="1" parent="1">
          <mxGeometry x="80" y="2050" width="40" height="40" as="geometry" />
        </mxCell>
        <mxCell id="D-i1duRZGYbxX3AgBeWL-257" value="" style="rounded=0;whiteSpace=wrap;html=1;" vertex="1" parent="1">
          <mxGeometry x="160" y="2050" width="40" height="40" as="geometry" />
        </mxCell>
        <mxCell id="D-i1duRZGYbxX3AgBeWL-258" style="edgeStyle=orthogonalEdgeStyle;rounded=0;orthogonalLoop=1;jettySize=auto;html=1;exitX=1;exitY=0.5;exitDx=0;exitDy=0;fontFamily=Times New Roman;fontSize=18;fontColor=default;" edge="1" parent="1" source="D-i1duRZGYbxX3AgBeWL-259">
          <mxGeometry relative="1" as="geometry">
            <mxPoint x="480" y="2070.095238095238" as="targetPoint" />
          </mxGeometry>
        </mxCell>
        <mxCell id="D-i1duRZGYbxX3AgBeWL-259" value="" style="rounded=0;whiteSpace=wrap;html=1;" vertex="1" parent="1">
          <mxGeometry x="200" y="2050" width="40" height="40" as="geometry" />
        </mxCell>
        <mxCell id="D-i1duRZGYbxX3AgBeWL-260" style="edgeStyle=orthogonalEdgeStyle;rounded=0;orthogonalLoop=1;jettySize=auto;html=1;exitX=0;exitY=1;exitDx=0;exitDy=0;fontFamily=Times New Roman;fontSize=18;fontColor=default;" edge="1" parent="1">
          <mxGeometry relative="1" as="geometry">
            <mxPoint x="360" y="2120" as="targetPoint" />
            <mxPoint x="360" y="1790" as="sourcePoint" />
          </mxGeometry>
        </mxCell>
        <mxCell id="D-i1duRZGYbxX3AgBeWL-261" style="edgeStyle=orthogonalEdgeStyle;rounded=0;orthogonalLoop=1;jettySize=auto;html=1;exitX=1;exitY=1;exitDx=0;exitDy=0;fontFamily=Times New Roman;fontSize=18;fontColor=default;" edge="1" parent="1">
          <mxGeometry relative="1" as="geometry">
            <mxPoint x="479.8571428571429" y="2120" as="targetPoint" />
            <mxPoint x="480" y="1790" as="sourcePoint" />
          </mxGeometry>
        </mxCell>
        <mxCell id="D-i1duRZGYbxX3AgBeWL-262" value="" style="rounded=0;whiteSpace=wrap;html=1;" vertex="1" parent="1">
          <mxGeometry x="320" y="2120" width="40" height="40" as="geometry" />
        </mxCell>
        <mxCell id="D-i1duRZGYbxX3AgBeWL-263" style="edgeStyle=orthogonalEdgeStyle;rounded=0;orthogonalLoop=1;jettySize=auto;html=1;exitX=0;exitY=1;exitDx=0;exitDy=0;fontFamily=Times New Roman;fontSize=18;fontColor=default;dashed=1;strokeColor=default;align=center;verticalAlign=middle;labelBackgroundColor=default;endArrow=none;endFill=0;" edge="1" parent="1" source="D-i1duRZGYbxX3AgBeWL-264">
          <mxGeometry relative="1" as="geometry">
            <mxPoint x="360" y="2200" as="targetPoint" />
          </mxGeometry>
        </mxCell>
        <mxCell id="D-i1duRZGYbxX3AgBeWL-264" value="" style="rounded=0;whiteSpace=wrap;html=1;" vertex="1" parent="1">
          <mxGeometry x="360" y="2120" width="40" height="40" as="geometry" />
        </mxCell>
        <mxCell id="D-i1duRZGYbxX3AgBeWL-265" value="" style="rounded=0;whiteSpace=wrap;html=1;" vertex="1" parent="1">
          <mxGeometry x="440" y="2120" width="40" height="40" as="geometry" />
        </mxCell>
        <mxCell id="D-i1duRZGYbxX3AgBeWL-266" style="edgeStyle=orthogonalEdgeStyle;rounded=0;orthogonalLoop=1;jettySize=auto;html=1;exitX=0;exitY=1;exitDx=0;exitDy=0;fontFamily=Times New Roman;fontSize=18;fontColor=default;dashed=1;strokeColor=default;align=center;verticalAlign=middle;labelBackgroundColor=default;endArrow=none;endFill=0;" edge="1" parent="1" source="D-i1duRZGYbxX3AgBeWL-267">
          <mxGeometry relative="1" as="geometry">
            <mxPoint x="480" y="2200" as="targetPoint" />
          </mxGeometry>
        </mxCell>
        <mxCell id="D-i1duRZGYbxX3AgBeWL-267" value="" style="rounded=0;whiteSpace=wrap;html=1;" vertex="1" parent="1">
          <mxGeometry x="480" y="2120" width="40" height="40" as="geometry" />
        </mxCell>
        <mxCell id="D-i1duRZGYbxX3AgBeWL-268" style="edgeStyle=orthogonalEdgeStyle;rounded=0;orthogonalLoop=1;jettySize=auto;html=1;entryX=0.5;entryY=0;entryDx=0;entryDy=0;curved=0;endArrow=classic;endFill=1;strokeWidth=1;" edge="1" parent="1" target="D-i1duRZGYbxX3AgBeWL-273">
          <mxGeometry relative="1" as="geometry">
            <mxPoint x="620" y="1790" as="sourcePoint" />
          </mxGeometry>
        </mxCell>
        <mxCell id="D-i1duRZGYbxX3AgBeWL-269" style="edgeStyle=orthogonalEdgeStyle;rounded=0;orthogonalLoop=1;jettySize=auto;html=1;entryX=0.5;entryY=0;entryDx=0;entryDy=0;" edge="1" parent="1" target="D-i1duRZGYbxX3AgBeWL-274">
          <mxGeometry relative="1" as="geometry">
            <mxPoint x="660" y="1790" as="sourcePoint" />
          </mxGeometry>
        </mxCell>
        <mxCell id="D-i1duRZGYbxX3AgBeWL-270" style="edgeStyle=orthogonalEdgeStyle;rounded=0;orthogonalLoop=1;jettySize=auto;html=1;entryX=0.5;entryY=0;entryDx=0;entryDy=0;" edge="1" parent="1" target="D-i1duRZGYbxX3AgBeWL-275">
          <mxGeometry relative="1" as="geometry">
            <mxPoint x="740" y="1790" as="sourcePoint" />
          </mxGeometry>
        </mxCell>
        <mxCell id="D-i1duRZGYbxX3AgBeWL-271" style="edgeStyle=orthogonalEdgeStyle;rounded=0;orthogonalLoop=1;jettySize=auto;html=1;entryX=0.5;entryY=0;entryDx=0;entryDy=0;" edge="1" parent="1" target="D-i1duRZGYbxX3AgBeWL-277">
          <mxGeometry relative="1" as="geometry">
            <mxPoint x="780" y="1790" as="sourcePoint" />
          </mxGeometry>
        </mxCell>
        <mxCell id="D-i1duRZGYbxX3AgBeWL-272" style="edgeStyle=orthogonalEdgeStyle;rounded=0;orthogonalLoop=1;jettySize=auto;html=1;exitX=1;exitY=1;exitDx=0;exitDy=0;fontFamily=Times New Roman;fontSize=18;fontColor=default;" edge="1" parent="1" source="D-i1duRZGYbxX3AgBeWL-273">
          <mxGeometry relative="1" as="geometry">
            <mxPoint x="639.8571428571428" y="1890" as="targetPoint" />
          </mxGeometry>
        </mxCell>
        <mxCell id="D-i1duRZGYbxX3AgBeWL-273" value="2" style="rounded=0;whiteSpace=wrap;html=1;fillColor=#ffcc99;strokeColor=#36393d;" vertex="1" parent="1">
          <mxGeometry x="600" y="1820" width="40" height="40" as="geometry" />
        </mxCell>
        <mxCell id="D-i1duRZGYbxX3AgBeWL-274" value="6" style="rounded=0;whiteSpace=wrap;html=1;fillColor=#ffcc99;strokeColor=#36393d;" vertex="1" parent="1">
          <mxGeometry x="640" y="1820" width="40" height="40" as="geometry" />
        </mxCell>
        <mxCell id="D-i1duRZGYbxX3AgBeWL-275" value="5" style="rounded=0;whiteSpace=wrap;html=1;fillColor=#ffcc99;strokeColor=#36393d;" vertex="1" parent="1">
          <mxGeometry x="720" y="1820" width="40" height="40" as="geometry" />
        </mxCell>
        <mxCell id="D-i1duRZGYbxX3AgBeWL-276" style="edgeStyle=orthogonalEdgeStyle;rounded=0;orthogonalLoop=1;jettySize=auto;html=1;exitX=0;exitY=1;exitDx=0;exitDy=0;fontFamily=Times New Roman;fontSize=18;fontColor=default;" edge="1" parent="1" source="D-i1duRZGYbxX3AgBeWL-277">
          <mxGeometry relative="1" as="geometry">
            <mxPoint x="759.8571428571428" y="1890" as="targetPoint" />
          </mxGeometry>
        </mxCell>
        <mxCell id="D-i1duRZGYbxX3AgBeWL-277" value="11" style="rounded=0;whiteSpace=wrap;html=1;fillColor=#ffcc99;strokeColor=#36393d;" vertex="1" parent="1">
          <mxGeometry x="760" y="1820" width="40" height="40" as="geometry" />
        </mxCell>
        <mxCell id="D-i1duRZGYbxX3AgBeWL-278" value="&lt;font style=&quot;font-size: 16px;&quot; face=&quot;Times New Roman&quot;&gt;MixColumn&lt;/font&gt;" style="rounded=1;whiteSpace=wrap;html=1;fillColor=#fff2cc;strokeColor=#d6b656;" vertex="1" parent="1">
          <mxGeometry x="600" y="1890" width="200" height="60" as="geometry" />
        </mxCell>
        <mxCell id="D-i1duRZGYbxX3AgBeWL-279" style="edgeStyle=orthogonalEdgeStyle;rounded=0;orthogonalLoop=1;jettySize=auto;html=1;fontFamily=Helvetica;fontSize=12;fontColor=default;" edge="1" parent="1" source="D-i1duRZGYbxX3AgBeWL-281">
          <mxGeometry relative="1" as="geometry">
            <mxPoint x="620" y="2050" as="targetPoint" />
          </mxGeometry>
        </mxCell>
        <mxCell id="D-i1duRZGYbxX3AgBeWL-280" style="edgeStyle=orthogonalEdgeStyle;rounded=0;orthogonalLoop=1;jettySize=auto;html=1;exitX=1;exitY=0;exitDx=0;exitDy=0;fontFamily=Times New Roman;fontSize=18;fontColor=default;startArrow=classic;startFill=1;endArrow=none;endFill=0;" edge="1" parent="1" source="D-i1duRZGYbxX3AgBeWL-281">
          <mxGeometry relative="1" as="geometry">
            <mxPoint x="639.8571428571428" y="1950" as="targetPoint" />
          </mxGeometry>
        </mxCell>
        <mxCell id="D-i1duRZGYbxX3AgBeWL-281" value="" style="rounded=0;whiteSpace=wrap;html=1;" vertex="1" parent="1">
          <mxGeometry x="600" y="1980" width="40" height="40" as="geometry" />
        </mxCell>
        <mxCell id="D-i1duRZGYbxX3AgBeWL-282" style="edgeStyle=orthogonalEdgeStyle;rounded=0;orthogonalLoop=1;jettySize=auto;html=1;fontFamily=Helvetica;fontSize=12;fontColor=default;" edge="1" parent="1" source="D-i1duRZGYbxX3AgBeWL-283">
          <mxGeometry relative="1" as="geometry">
            <mxPoint x="660" y="2050" as="targetPoint" />
          </mxGeometry>
        </mxCell>
        <mxCell id="D-i1duRZGYbxX3AgBeWL-283" value="10" style="rounded=0;whiteSpace=wrap;html=1;fillColor=#ffcc99;strokeColor=#36393d;" vertex="1" parent="1">
          <mxGeometry x="640" y="1980" width="40" height="40" as="geometry" />
        </mxCell>
        <mxCell id="D-i1duRZGYbxX3AgBeWL-284" style="edgeStyle=orthogonalEdgeStyle;rounded=0;orthogonalLoop=1;jettySize=auto;html=1;fontFamily=Helvetica;fontSize=12;fontColor=default;" edge="1" parent="1" source="D-i1duRZGYbxX3AgBeWL-286">
          <mxGeometry relative="1" as="geometry">
            <mxPoint x="740" y="2050" as="targetPoint" />
          </mxGeometry>
        </mxCell>
        <mxCell id="D-i1duRZGYbxX3AgBeWL-285" style="edgeStyle=orthogonalEdgeStyle;rounded=0;orthogonalLoop=1;jettySize=auto;html=1;exitX=1;exitY=0;exitDx=0;exitDy=0;fontFamily=Times New Roman;fontSize=18;fontColor=default;startArrow=classic;startFill=1;endArrow=none;endFill=0;" edge="1" parent="1" source="D-i1duRZGYbxX3AgBeWL-286">
          <mxGeometry relative="1" as="geometry">
            <mxPoint x="759.8571428571428" y="1950" as="targetPoint" />
          </mxGeometry>
        </mxCell>
        <mxCell id="D-i1duRZGYbxX3AgBeWL-286" value="" style="rounded=0;whiteSpace=wrap;html=1;" vertex="1" parent="1">
          <mxGeometry x="720" y="1980" width="40" height="40" as="geometry" />
        </mxCell>
        <mxCell id="D-i1duRZGYbxX3AgBeWL-287" style="edgeStyle=orthogonalEdgeStyle;rounded=0;orthogonalLoop=1;jettySize=auto;html=1;fontFamily=Helvetica;fontSize=12;fontColor=default;" edge="1" parent="1" source="D-i1duRZGYbxX3AgBeWL-288">
          <mxGeometry relative="1" as="geometry">
            <mxPoint x="780" y="2050" as="targetPoint" />
          </mxGeometry>
        </mxCell>
        <mxCell id="D-i1duRZGYbxX3AgBeWL-288" value="" style="rounded=0;whiteSpace=wrap;html=1;" vertex="1" parent="1">
          <mxGeometry x="760" y="1980" width="40" height="40" as="geometry" />
        </mxCell>
        <mxCell id="D-i1duRZGYbxX3AgBeWL-289" style="edgeStyle=orthogonalEdgeStyle;rounded=0;orthogonalLoop=1;jettySize=auto;html=1;exitX=1;exitY=1;exitDx=0;exitDy=0;entryX=0;entryY=0.5;entryDx=0;entryDy=0;fontFamily=Times New Roman;fontSize=18;fontColor=default;" edge="1" parent="1" source="D-i1duRZGYbxX3AgBeWL-290" target="D-i1duRZGYbxX3AgBeWL-297">
          <mxGeometry relative="1" as="geometry" />
        </mxCell>
        <mxCell id="D-i1duRZGYbxX3AgBeWL-290" value="" style="rounded=0;whiteSpace=wrap;html=1;" vertex="1" parent="1">
          <mxGeometry x="600" y="2050" width="40" height="40" as="geometry" />
        </mxCell>
        <mxCell id="D-i1duRZGYbxX3AgBeWL-291" value="5" style="rounded=0;whiteSpace=wrap;html=1;fillColor=#ffcc99;strokeColor=#36393d;" vertex="1" parent="1">
          <mxGeometry x="640" y="2050" width="40" height="40" as="geometry" />
        </mxCell>
        <mxCell id="D-i1duRZGYbxX3AgBeWL-292" value="" style="rounded=0;whiteSpace=wrap;html=1;" vertex="1" parent="1">
          <mxGeometry x="720" y="2050" width="40" height="40" as="geometry" />
        </mxCell>
        <mxCell id="D-i1duRZGYbxX3AgBeWL-293" style="edgeStyle=orthogonalEdgeStyle;rounded=0;orthogonalLoop=1;jettySize=auto;html=1;exitX=1;exitY=0.5;exitDx=0;exitDy=0;fontFamily=Times New Roman;fontSize=18;fontColor=default;" edge="1" parent="1" source="D-i1duRZGYbxX3AgBeWL-294">
          <mxGeometry relative="1" as="geometry">
            <mxPoint x="1040" y="2070.095238095238" as="targetPoint" />
          </mxGeometry>
        </mxCell>
        <mxCell id="D-i1duRZGYbxX3AgBeWL-294" value="" style="rounded=0;whiteSpace=wrap;html=1;" vertex="1" parent="1">
          <mxGeometry x="760" y="2050" width="40" height="40" as="geometry" />
        </mxCell>
        <mxCell id="D-i1duRZGYbxX3AgBeWL-295" style="edgeStyle=orthogonalEdgeStyle;rounded=0;orthogonalLoop=1;jettySize=auto;html=1;exitX=0;exitY=1;exitDx=0;exitDy=0;fontFamily=Times New Roman;fontSize=18;fontColor=default;" edge="1" parent="1">
          <mxGeometry relative="1" as="geometry">
            <mxPoint x="920" y="2120" as="targetPoint" />
            <mxPoint x="920" y="1790" as="sourcePoint" />
          </mxGeometry>
        </mxCell>
        <mxCell id="D-i1duRZGYbxX3AgBeWL-296" style="edgeStyle=orthogonalEdgeStyle;rounded=0;orthogonalLoop=1;jettySize=auto;html=1;exitX=1;exitY=1;exitDx=0;exitDy=0;fontFamily=Times New Roman;fontSize=18;fontColor=default;" edge="1" parent="1">
          <mxGeometry relative="1" as="geometry">
            <mxPoint x="1039.857142857143" y="2120" as="targetPoint" />
            <mxPoint x="1040" y="1790" as="sourcePoint" />
          </mxGeometry>
        </mxCell>
        <mxCell id="D-i1duRZGYbxX3AgBeWL-297" value="" style="rounded=0;whiteSpace=wrap;html=1;" vertex="1" parent="1">
          <mxGeometry x="880" y="2120" width="40" height="40" as="geometry" />
        </mxCell>
        <mxCell id="D-i1duRZGYbxX3AgBeWL-298" value="" style="rounded=0;whiteSpace=wrap;html=1;" vertex="1" parent="1">
          <mxGeometry x="920" y="2120" width="40" height="40" as="geometry" />
        </mxCell>
        <mxCell id="D-i1duRZGYbxX3AgBeWL-299" value="" style="rounded=0;whiteSpace=wrap;html=1;" vertex="1" parent="1">
          <mxGeometry x="1000" y="2120" width="40" height="40" as="geometry" />
        </mxCell>
        <mxCell id="D-i1duRZGYbxX3AgBeWL-300" value="" style="rounded=0;whiteSpace=wrap;html=1;" vertex="1" parent="1">
          <mxGeometry x="1040" y="2120" width="40" height="40" as="geometry" />
        </mxCell>
        <mxCell id="D-i1duRZGYbxX3AgBeWL-301" style="rounded=0;orthogonalLoop=1;jettySize=auto;html=1;exitX=1;exitY=0;exitDx=0;exitDy=0;fontFamily=Times New Roman;fontSize=18;fontColor=default;endArrow=none;endFill=0;dashed=1;" edge="1" parent="1" source="D-i1duRZGYbxX3AgBeWL-302">
          <mxGeometry relative="1" as="geometry">
            <mxPoint x="360" y="2200" as="targetPoint" />
          </mxGeometry>
        </mxCell>
        <mxCell id="D-i1duRZGYbxX3AgBeWL-302" value="" style="rounded=0;whiteSpace=wrap;html=1;" vertex="1" parent="1">
          <mxGeometry x="40" y="2270" width="40" height="40" as="geometry" />
        </mxCell>
        <mxCell id="D-i1duRZGYbxX3AgBeWL-303" value="" style="rounded=0;whiteSpace=wrap;html=1;" vertex="1" parent="1">
          <mxGeometry x="80" y="2270" width="40" height="40" as="geometry" />
        </mxCell>
        <mxCell id="D-i1duRZGYbxX3AgBeWL-304" value="" style="rounded=0;whiteSpace=wrap;html=1;" vertex="1" parent="1">
          <mxGeometry x="160" y="2270" width="40" height="40" as="geometry" />
        </mxCell>
        <mxCell id="D-i1duRZGYbxX3AgBeWL-305" style="rounded=0;orthogonalLoop=1;jettySize=auto;html=1;exitX=0;exitY=0;exitDx=0;exitDy=0;fontFamily=Times New Roman;fontSize=18;fontColor=default;dashed=1;strokeColor=default;align=center;verticalAlign=middle;labelBackgroundColor=default;endArrow=none;endFill=0;" edge="1" parent="1" source="D-i1duRZGYbxX3AgBeWL-306">
          <mxGeometry relative="1" as="geometry">
            <mxPoint x="1040" y="2200" as="targetPoint" />
          </mxGeometry>
        </mxCell>
        <mxCell id="D-i1duRZGYbxX3AgBeWL-306" value="" style="rounded=0;whiteSpace=wrap;html=1;" vertex="1" parent="1">
          <mxGeometry x="200" y="2270" width="40" height="40" as="geometry" />
        </mxCell>
        <mxCell id="D-i1duRZGYbxX3AgBeWL-307" style="rounded=0;orthogonalLoop=1;jettySize=auto;html=1;exitX=1;exitY=0;exitDx=0;exitDy=0;fontFamily=Times New Roman;fontSize=18;fontColor=default;dashed=1;strokeColor=default;align=center;verticalAlign=middle;labelBackgroundColor=default;endArrow=none;endFill=0;" edge="1" parent="1" source="D-i1duRZGYbxX3AgBeWL-308">
          <mxGeometry relative="1" as="geometry">
            <mxPoint x="580" y="2200" as="targetPoint" />
          </mxGeometry>
        </mxCell>
        <mxCell id="D-i1duRZGYbxX3AgBeWL-308" value="4" style="rounded=0;whiteSpace=wrap;html=1;fillColor=#ffcc99;strokeColor=#36393d;" vertex="1" parent="1">
          <mxGeometry x="320" y="2270" width="40" height="40" as="geometry" />
        </mxCell>
        <mxCell id="D-i1duRZGYbxX3AgBeWL-309" value="2" style="rounded=0;whiteSpace=wrap;html=1;fillColor=#ffcc99;strokeColor=#36393d;" vertex="1" parent="1">
          <mxGeometry x="360" y="2270" width="40" height="40" as="geometry" />
        </mxCell>
        <mxCell id="D-i1duRZGYbxX3AgBeWL-310" value="" style="rounded=0;whiteSpace=wrap;html=1;" vertex="1" parent="1">
          <mxGeometry x="440" y="2270" width="40" height="40" as="geometry" />
        </mxCell>
        <mxCell id="D-i1duRZGYbxX3AgBeWL-311" style="rounded=0;orthogonalLoop=1;jettySize=auto;html=1;exitX=0;exitY=0;exitDx=0;exitDy=0;fontFamily=Times New Roman;fontSize=18;fontColor=default;dashed=1;strokeColor=default;align=center;verticalAlign=middle;labelBackgroundColor=default;endArrow=none;endFill=0;" edge="1" parent="1" source="D-i1duRZGYbxX3AgBeWL-312">
          <mxGeometry relative="1" as="geometry">
            <mxPoint x="260" y="2200" as="targetPoint" />
          </mxGeometry>
        </mxCell>
        <mxCell id="D-i1duRZGYbxX3AgBeWL-312" value="" style="rounded=0;whiteSpace=wrap;html=1;" vertex="1" parent="1">
          <mxGeometry x="480" y="2270" width="40" height="40" as="geometry" />
        </mxCell>
        <mxCell id="D-i1duRZGYbxX3AgBeWL-313" style="rounded=0;orthogonalLoop=1;jettySize=auto;html=1;exitX=1;exitY=0;exitDx=0;exitDy=0;fontFamily=Times New Roman;fontSize=18;fontColor=default;dashed=1;strokeColor=default;align=center;verticalAlign=middle;labelBackgroundColor=default;endArrow=none;endFill=0;" edge="1" parent="1" source="D-i1duRZGYbxX3AgBeWL-314">
          <mxGeometry relative="1" as="geometry">
            <mxPoint x="920" y="2200" as="targetPoint" />
          </mxGeometry>
        </mxCell>
        <mxCell id="D-i1duRZGYbxX3AgBeWL-314" value="" style="rounded=0;whiteSpace=wrap;html=1;" vertex="1" parent="1">
          <mxGeometry x="600" y="2270" width="40" height="40" as="geometry" />
        </mxCell>
        <mxCell id="D-i1duRZGYbxX3AgBeWL-315" value="" style="rounded=0;whiteSpace=wrap;html=1;" vertex="1" parent="1">
          <mxGeometry x="640" y="2270" width="40" height="40" as="geometry" />
        </mxCell>
        <mxCell id="D-i1duRZGYbxX3AgBeWL-316" value="" style="rounded=0;whiteSpace=wrap;html=1;" vertex="1" parent="1">
          <mxGeometry x="720" y="2270" width="40" height="40" as="geometry" />
        </mxCell>
        <mxCell id="D-i1duRZGYbxX3AgBeWL-317" style="rounded=0;orthogonalLoop=1;jettySize=auto;html=1;exitX=0;exitY=0;exitDx=0;exitDy=0;fontFamily=Times New Roman;fontSize=18;fontColor=default;dashed=1;strokeColor=default;align=center;verticalAlign=middle;labelBackgroundColor=default;endArrow=none;endFill=0;" edge="1" parent="1" source="D-i1duRZGYbxX3AgBeWL-318">
          <mxGeometry relative="1" as="geometry">
            <mxPoint x="480" y="2200" as="targetPoint" />
          </mxGeometry>
        </mxCell>
        <mxCell id="D-i1duRZGYbxX3AgBeWL-318" value="" style="rounded=0;whiteSpace=wrap;html=1;" vertex="1" parent="1">
          <mxGeometry x="760" y="2270" width="40" height="40" as="geometry" />
        </mxCell>
        <mxCell id="D-i1duRZGYbxX3AgBeWL-319" style="rounded=0;orthogonalLoop=1;jettySize=auto;html=1;exitX=1;exitY=0;exitDx=0;exitDy=0;fontFamily=Times New Roman;fontSize=18;fontColor=default;dashed=1;strokeColor=default;align=center;verticalAlign=middle;labelBackgroundColor=default;endArrow=none;endFill=0;" edge="1" parent="1" source="D-i1duRZGYbxX3AgBeWL-320">
          <mxGeometry relative="1" as="geometry">
            <mxPoint x="20" y="2200" as="targetPoint" />
          </mxGeometry>
        </mxCell>
        <mxCell id="D-i1duRZGYbxX3AgBeWL-320" value="" style="rounded=0;whiteSpace=wrap;html=1;" vertex="1" parent="1">
          <mxGeometry x="880" y="2270" width="40" height="40" as="geometry" />
        </mxCell>
        <mxCell id="D-i1duRZGYbxX3AgBeWL-321" value="" style="rounded=0;whiteSpace=wrap;html=1;" vertex="1" parent="1">
          <mxGeometry x="920" y="2270" width="40" height="40" as="geometry" />
        </mxCell>
        <mxCell id="D-i1duRZGYbxX3AgBeWL-322" style="rounded=0;orthogonalLoop=1;jettySize=auto;html=1;exitX=1;exitY=0;exitDx=0;exitDy=0;fontFamily=Times New Roman;fontSize=18;fontColor=default;dashed=1;strokeColor=default;align=center;verticalAlign=middle;labelBackgroundColor=default;endArrow=none;endFill=0;" edge="1" parent="1" source="D-i1duRZGYbxX3AgBeWL-323">
          <mxGeometry relative="1" as="geometry">
            <mxPoint x="820" y="2200" as="targetPoint" />
          </mxGeometry>
        </mxCell>
        <mxCell id="D-i1duRZGYbxX3AgBeWL-323" value="2" style="rounded=0;whiteSpace=wrap;html=1;fillColor=#ffcc99;strokeColor=#36393d;" vertex="1" parent="1">
          <mxGeometry x="1000" y="2270" width="40" height="40" as="geometry" />
        </mxCell>
        <mxCell id="D-i1duRZGYbxX3AgBeWL-324" value="1" style="rounded=0;whiteSpace=wrap;html=1;fillColor=#ffcc99;strokeColor=#36393d;" vertex="1" parent="1">
          <mxGeometry x="1040" y="2270" width="40" height="40" as="geometry" />
        </mxCell>
        <mxCell id="D-i1duRZGYbxX3AgBeWL-325" style="edgeStyle=orthogonalEdgeStyle;rounded=0;orthogonalLoop=1;jettySize=auto;html=1;fontFamily=Times New Roman;fontSize=18;fontColor=default;endArrow=none;endFill=0;dashed=1;" edge="1" parent="1">
          <mxGeometry relative="1" as="geometry">
            <mxPoint x="579.17" y="2200" as="targetPoint" />
            <mxPoint x="599.17" y="1770" as="sourcePoint" />
          </mxGeometry>
        </mxCell>
        <mxCell id="D-i1duRZGYbxX3AgBeWL-326" style="edgeStyle=orthogonalEdgeStyle;rounded=0;orthogonalLoop=1;jettySize=auto;html=1;fontFamily=Times New Roman;fontSize=18;fontColor=default;dashed=1;strokeColor=default;align=center;verticalAlign=middle;labelBackgroundColor=default;endArrow=none;endFill=0;" edge="1" parent="1">
          <mxGeometry relative="1" as="geometry">
            <mxPoint x="819.17" y="2200" as="targetPoint" />
            <mxPoint x="799.17" y="1770" as="sourcePoint" />
          </mxGeometry>
        </mxCell>
        <mxCell id="D-i1duRZGYbxX3AgBeWL-327" style="edgeStyle=orthogonalEdgeStyle;rounded=0;orthogonalLoop=1;jettySize=auto;html=1;exitX=0;exitY=1;exitDx=0;exitDy=0;fontFamily=Times New Roman;fontSize=18;fontColor=default;dashed=1;strokeColor=default;align=center;verticalAlign=middle;labelBackgroundColor=default;endArrow=none;endFill=0;" edge="1" parent="1">
          <mxGeometry relative="1" as="geometry">
            <mxPoint x="919.17" y="2200" as="targetPoint" />
            <mxPoint x="919.17" y="2160" as="sourcePoint" />
          </mxGeometry>
        </mxCell>
        <mxCell id="D-i1duRZGYbxX3AgBeWL-328" style="edgeStyle=orthogonalEdgeStyle;rounded=0;orthogonalLoop=1;jettySize=auto;html=1;exitX=0;exitY=1;exitDx=0;exitDy=0;fontFamily=Times New Roman;fontSize=18;fontColor=default;dashed=1;strokeColor=default;align=center;verticalAlign=middle;labelBackgroundColor=default;endArrow=none;endFill=0;" edge="1" parent="1">
          <mxGeometry relative="1" as="geometry">
            <mxPoint x="1039.17" y="2200" as="targetPoint" />
            <mxPoint x="1039.17" y="2160" as="sourcePoint" />
          </mxGeometry>
        </mxCell>
        <mxCell id="D-i1duRZGYbxX3AgBeWL-329" style="edgeStyle=orthogonalEdgeStyle;rounded=0;orthogonalLoop=1;jettySize=auto;html=1;entryX=0.5;entryY=0;entryDx=0;entryDy=0;curved=0;endArrow=classic;endFill=1;strokeWidth=1;" edge="1" parent="1" target="D-i1duRZGYbxX3AgBeWL-336">
          <mxGeometry relative="1" as="geometry">
            <mxPoint x="60" y="2310" as="sourcePoint" />
          </mxGeometry>
        </mxCell>
        <mxCell id="D-i1duRZGYbxX3AgBeWL-330" style="edgeStyle=orthogonalEdgeStyle;rounded=0;orthogonalLoop=1;jettySize=auto;html=1;fontFamily=Times New Roman;fontSize=18;fontColor=default;endArrow=none;endFill=0;dashed=1;" edge="1" parent="1">
          <mxGeometry relative="1" as="geometry">
            <mxPoint x="20" y="2720" as="targetPoint" />
            <mxPoint x="40" y="2290" as="sourcePoint" />
          </mxGeometry>
        </mxCell>
        <mxCell id="D-i1duRZGYbxX3AgBeWL-331" style="edgeStyle=orthogonalEdgeStyle;rounded=0;orthogonalLoop=1;jettySize=auto;html=1;entryX=0.5;entryY=0;entryDx=0;entryDy=0;" edge="1" parent="1" target="D-i1duRZGYbxX3AgBeWL-337">
          <mxGeometry relative="1" as="geometry">
            <mxPoint x="100" y="2310" as="sourcePoint" />
          </mxGeometry>
        </mxCell>
        <mxCell id="D-i1duRZGYbxX3AgBeWL-332" style="edgeStyle=orthogonalEdgeStyle;rounded=0;orthogonalLoop=1;jettySize=auto;html=1;entryX=0.5;entryY=0;entryDx=0;entryDy=0;" edge="1" parent="1" target="D-i1duRZGYbxX3AgBeWL-338">
          <mxGeometry relative="1" as="geometry">
            <mxPoint x="180" y="2310" as="sourcePoint" />
          </mxGeometry>
        </mxCell>
        <mxCell id="D-i1duRZGYbxX3AgBeWL-333" style="edgeStyle=orthogonalEdgeStyle;rounded=0;orthogonalLoop=1;jettySize=auto;html=1;entryX=0.5;entryY=0;entryDx=0;entryDy=0;" edge="1" parent="1" target="D-i1duRZGYbxX3AgBeWL-340">
          <mxGeometry relative="1" as="geometry">
            <mxPoint x="220" y="2310" as="sourcePoint" />
          </mxGeometry>
        </mxCell>
        <mxCell id="D-i1duRZGYbxX3AgBeWL-334" style="edgeStyle=orthogonalEdgeStyle;rounded=0;orthogonalLoop=1;jettySize=auto;html=1;fontFamily=Times New Roman;fontSize=18;fontColor=default;dashed=1;strokeColor=default;align=center;verticalAlign=middle;labelBackgroundColor=default;endArrow=none;endFill=0;" edge="1" parent="1">
          <mxGeometry relative="1" as="geometry">
            <mxPoint x="260" y="2720" as="targetPoint" />
            <mxPoint x="240" y="2290" as="sourcePoint" />
          </mxGeometry>
        </mxCell>
        <mxCell id="D-i1duRZGYbxX3AgBeWL-335" style="edgeStyle=orthogonalEdgeStyle;rounded=0;orthogonalLoop=1;jettySize=auto;html=1;exitX=1;exitY=1;exitDx=0;exitDy=0;fontFamily=Times New Roman;fontSize=18;fontColor=default;" edge="1" parent="1" source="D-i1duRZGYbxX3AgBeWL-336">
          <mxGeometry relative="1" as="geometry">
            <mxPoint x="79.85714285714278" y="2410" as="targetPoint" />
          </mxGeometry>
        </mxCell>
        <mxCell id="D-i1duRZGYbxX3AgBeWL-336" value="" style="rounded=0;whiteSpace=wrap;html=1;" vertex="1" parent="1">
          <mxGeometry x="40" y="2340" width="40" height="40" as="geometry" />
        </mxCell>
        <mxCell id="D-i1duRZGYbxX3AgBeWL-337" value="" style="rounded=0;whiteSpace=wrap;html=1;" vertex="1" parent="1">
          <mxGeometry x="80" y="2340" width="40" height="40" as="geometry" />
        </mxCell>
        <mxCell id="D-i1duRZGYbxX3AgBeWL-338" value="" style="rounded=0;whiteSpace=wrap;html=1;" vertex="1" parent="1">
          <mxGeometry x="160" y="2340" width="40" height="40" as="geometry" />
        </mxCell>
        <mxCell id="D-i1duRZGYbxX3AgBeWL-339" style="edgeStyle=orthogonalEdgeStyle;rounded=0;orthogonalLoop=1;jettySize=auto;html=1;exitX=0;exitY=1;exitDx=0;exitDy=0;fontFamily=Times New Roman;fontSize=18;fontColor=default;" edge="1" parent="1" source="D-i1duRZGYbxX3AgBeWL-340">
          <mxGeometry relative="1" as="geometry">
            <mxPoint x="199.85714285714278" y="2410" as="targetPoint" />
          </mxGeometry>
        </mxCell>
        <mxCell id="D-i1duRZGYbxX3AgBeWL-340" value="" style="rounded=0;whiteSpace=wrap;html=1;" vertex="1" parent="1">
          <mxGeometry x="200" y="2340" width="40" height="40" as="geometry" />
        </mxCell>
        <mxCell id="D-i1duRZGYbxX3AgBeWL-341" value="&lt;font style=&quot;font-size: 16px;&quot; face=&quot;Times New Roman&quot;&gt;MixColumn&lt;/font&gt;" style="rounded=1;whiteSpace=wrap;html=1;fillColor=#fff2cc;strokeColor=#d6b656;" vertex="1" parent="1">
          <mxGeometry x="40" y="2410" width="200" height="60" as="geometry" />
        </mxCell>
        <mxCell id="D-i1duRZGYbxX3AgBeWL-342" style="edgeStyle=orthogonalEdgeStyle;rounded=0;orthogonalLoop=1;jettySize=auto;html=1;fontFamily=Helvetica;fontSize=12;fontColor=default;" edge="1" parent="1" source="D-i1duRZGYbxX3AgBeWL-344">
          <mxGeometry relative="1" as="geometry">
            <mxPoint x="60" y="2570" as="targetPoint" />
          </mxGeometry>
        </mxCell>
        <mxCell id="D-i1duRZGYbxX3AgBeWL-343" style="edgeStyle=orthogonalEdgeStyle;rounded=0;orthogonalLoop=1;jettySize=auto;html=1;exitX=1;exitY=0;exitDx=0;exitDy=0;fontFamily=Times New Roman;fontSize=18;fontColor=default;startArrow=classic;startFill=1;endArrow=none;endFill=0;" edge="1" parent="1" source="D-i1duRZGYbxX3AgBeWL-344">
          <mxGeometry relative="1" as="geometry">
            <mxPoint x="79.85714285714278" y="2470" as="targetPoint" />
          </mxGeometry>
        </mxCell>
        <mxCell id="D-i1duRZGYbxX3AgBeWL-344" value="" style="rounded=0;whiteSpace=wrap;html=1;" vertex="1" parent="1">
          <mxGeometry x="40" y="2500" width="40" height="40" as="geometry" />
        </mxCell>
        <mxCell id="D-i1duRZGYbxX3AgBeWL-345" style="edgeStyle=orthogonalEdgeStyle;rounded=0;orthogonalLoop=1;jettySize=auto;html=1;fontFamily=Helvetica;fontSize=12;fontColor=default;" edge="1" parent="1" source="D-i1duRZGYbxX3AgBeWL-346">
          <mxGeometry relative="1" as="geometry">
            <mxPoint x="100" y="2570" as="targetPoint" />
          </mxGeometry>
        </mxCell>
        <mxCell id="D-i1duRZGYbxX3AgBeWL-346" value="" style="rounded=0;whiteSpace=wrap;html=1;" vertex="1" parent="1">
          <mxGeometry x="80" y="2500" width="40" height="40" as="geometry" />
        </mxCell>
        <mxCell id="D-i1duRZGYbxX3AgBeWL-347" style="edgeStyle=orthogonalEdgeStyle;rounded=0;orthogonalLoop=1;jettySize=auto;html=1;fontFamily=Helvetica;fontSize=12;fontColor=default;" edge="1" parent="1" source="D-i1duRZGYbxX3AgBeWL-349">
          <mxGeometry relative="1" as="geometry">
            <mxPoint x="180" y="2570" as="targetPoint" />
          </mxGeometry>
        </mxCell>
        <mxCell id="D-i1duRZGYbxX3AgBeWL-348" style="edgeStyle=orthogonalEdgeStyle;rounded=0;orthogonalLoop=1;jettySize=auto;html=1;exitX=1;exitY=0;exitDx=0;exitDy=0;fontFamily=Times New Roman;fontSize=18;fontColor=default;startArrow=classic;startFill=1;endArrow=none;endFill=0;" edge="1" parent="1" source="D-i1duRZGYbxX3AgBeWL-349">
          <mxGeometry relative="1" as="geometry">
            <mxPoint x="199.85714285714278" y="2470" as="targetPoint" />
          </mxGeometry>
        </mxCell>
        <mxCell id="D-i1duRZGYbxX3AgBeWL-349" value="" style="rounded=0;whiteSpace=wrap;html=1;" vertex="1" parent="1">
          <mxGeometry x="160" y="2500" width="40" height="40" as="geometry" />
        </mxCell>
        <mxCell id="D-i1duRZGYbxX3AgBeWL-350" style="edgeStyle=orthogonalEdgeStyle;rounded=0;orthogonalLoop=1;jettySize=auto;html=1;fontFamily=Helvetica;fontSize=12;fontColor=default;" edge="1" parent="1" source="D-i1duRZGYbxX3AgBeWL-351">
          <mxGeometry relative="1" as="geometry">
            <mxPoint x="220" y="2570" as="targetPoint" />
          </mxGeometry>
        </mxCell>
        <mxCell id="D-i1duRZGYbxX3AgBeWL-351" value="" style="rounded=0;whiteSpace=wrap;html=1;" vertex="1" parent="1">
          <mxGeometry x="200" y="2500" width="40" height="40" as="geometry" />
        </mxCell>
        <mxCell id="D-i1duRZGYbxX3AgBeWL-352" style="edgeStyle=orthogonalEdgeStyle;rounded=0;orthogonalLoop=1;jettySize=auto;html=1;exitX=1;exitY=1;exitDx=0;exitDy=0;entryX=0;entryY=0.5;entryDx=0;entryDy=0;fontFamily=Times New Roman;fontSize=18;fontColor=default;" edge="1" parent="1" source="D-i1duRZGYbxX3AgBeWL-353" target="D-i1duRZGYbxX3AgBeWL-360">
          <mxGeometry relative="1" as="geometry" />
        </mxCell>
        <mxCell id="D-i1duRZGYbxX3AgBeWL-353" value="" style="rounded=0;whiteSpace=wrap;html=1;" vertex="1" parent="1">
          <mxGeometry x="40" y="2570" width="40" height="40" as="geometry" />
        </mxCell>
        <mxCell id="D-i1duRZGYbxX3AgBeWL-354" value="" style="rounded=0;whiteSpace=wrap;html=1;" vertex="1" parent="1">
          <mxGeometry x="80" y="2570" width="40" height="40" as="geometry" />
        </mxCell>
        <mxCell id="D-i1duRZGYbxX3AgBeWL-355" value="" style="rounded=0;whiteSpace=wrap;html=1;" vertex="1" parent="1">
          <mxGeometry x="160" y="2570" width="40" height="40" as="geometry" />
        </mxCell>
        <mxCell id="D-i1duRZGYbxX3AgBeWL-356" style="edgeStyle=orthogonalEdgeStyle;rounded=0;orthogonalLoop=1;jettySize=auto;html=1;exitX=1;exitY=0.5;exitDx=0;exitDy=0;fontFamily=Times New Roman;fontSize=18;fontColor=default;" edge="1" parent="1" source="D-i1duRZGYbxX3AgBeWL-357">
          <mxGeometry relative="1" as="geometry">
            <mxPoint x="480" y="2590.095238095238" as="targetPoint" />
          </mxGeometry>
        </mxCell>
        <mxCell id="D-i1duRZGYbxX3AgBeWL-357" value="" style="rounded=0;whiteSpace=wrap;html=1;" vertex="1" parent="1">
          <mxGeometry x="200" y="2570" width="40" height="40" as="geometry" />
        </mxCell>
        <mxCell id="D-i1duRZGYbxX3AgBeWL-358" style="edgeStyle=orthogonalEdgeStyle;rounded=0;orthogonalLoop=1;jettySize=auto;html=1;exitX=0;exitY=1;exitDx=0;exitDy=0;fontFamily=Times New Roman;fontSize=18;fontColor=default;" edge="1" parent="1">
          <mxGeometry relative="1" as="geometry">
            <mxPoint x="360" y="2640" as="targetPoint" />
            <mxPoint x="360" y="2310" as="sourcePoint" />
          </mxGeometry>
        </mxCell>
        <mxCell id="D-i1duRZGYbxX3AgBeWL-359" style="edgeStyle=orthogonalEdgeStyle;rounded=0;orthogonalLoop=1;jettySize=auto;html=1;exitX=1;exitY=1;exitDx=0;exitDy=0;fontFamily=Times New Roman;fontSize=18;fontColor=default;" edge="1" parent="1">
          <mxGeometry relative="1" as="geometry">
            <mxPoint x="479.8571428571429" y="2640" as="targetPoint" />
            <mxPoint x="480" y="2310" as="sourcePoint" />
          </mxGeometry>
        </mxCell>
        <mxCell id="D-i1duRZGYbxX3AgBeWL-360" value="4" style="rounded=0;whiteSpace=wrap;html=1;fillColor=#ffcc99;strokeColor=#36393d;" vertex="1" parent="1">
          <mxGeometry x="320" y="2640" width="40" height="40" as="geometry" />
        </mxCell>
        <mxCell id="D-i1duRZGYbxX3AgBeWL-361" style="edgeStyle=orthogonalEdgeStyle;rounded=0;orthogonalLoop=1;jettySize=auto;html=1;exitX=0;exitY=1;exitDx=0;exitDy=0;fontFamily=Times New Roman;fontSize=18;fontColor=default;dashed=1;strokeColor=default;align=center;verticalAlign=middle;labelBackgroundColor=default;endArrow=none;endFill=0;" edge="1" parent="1" source="D-i1duRZGYbxX3AgBeWL-362">
          <mxGeometry relative="1" as="geometry">
            <mxPoint x="360" y="2720" as="targetPoint" />
          </mxGeometry>
        </mxCell>
        <mxCell id="D-i1duRZGYbxX3AgBeWL-362" value="2" style="rounded=0;whiteSpace=wrap;html=1;fillColor=#ffcc99;strokeColor=#36393d;" vertex="1" parent="1">
          <mxGeometry x="360" y="2640" width="40" height="40" as="geometry" />
        </mxCell>
        <mxCell id="D-i1duRZGYbxX3AgBeWL-363" value="" style="rounded=0;whiteSpace=wrap;html=1;" vertex="1" parent="1">
          <mxGeometry x="440" y="2640" width="40" height="40" as="geometry" />
        </mxCell>
        <mxCell id="D-i1duRZGYbxX3AgBeWL-364" style="edgeStyle=orthogonalEdgeStyle;rounded=0;orthogonalLoop=1;jettySize=auto;html=1;exitX=0;exitY=1;exitDx=0;exitDy=0;fontFamily=Times New Roman;fontSize=18;fontColor=default;dashed=1;strokeColor=default;align=center;verticalAlign=middle;labelBackgroundColor=default;endArrow=none;endFill=0;" edge="1" parent="1" source="D-i1duRZGYbxX3AgBeWL-365">
          <mxGeometry relative="1" as="geometry">
            <mxPoint x="480" y="2720" as="targetPoint" />
          </mxGeometry>
        </mxCell>
        <mxCell id="D-i1duRZGYbxX3AgBeWL-365" value="" style="rounded=0;whiteSpace=wrap;html=1;" vertex="1" parent="1">
          <mxGeometry x="480" y="2640" width="40" height="40" as="geometry" />
        </mxCell>
        <mxCell id="D-i1duRZGYbxX3AgBeWL-366" style="edgeStyle=orthogonalEdgeStyle;rounded=0;orthogonalLoop=1;jettySize=auto;html=1;entryX=0.5;entryY=0;entryDx=0;entryDy=0;curved=0;endArrow=classic;endFill=1;strokeWidth=1;" edge="1" parent="1" target="D-i1duRZGYbxX3AgBeWL-371">
          <mxGeometry relative="1" as="geometry">
            <mxPoint x="620" y="2310" as="sourcePoint" />
          </mxGeometry>
        </mxCell>
        <mxCell id="D-i1duRZGYbxX3AgBeWL-367" style="edgeStyle=orthogonalEdgeStyle;rounded=0;orthogonalLoop=1;jettySize=auto;html=1;entryX=0.5;entryY=0;entryDx=0;entryDy=0;" edge="1" parent="1" target="D-i1duRZGYbxX3AgBeWL-372">
          <mxGeometry relative="1" as="geometry">
            <mxPoint x="660" y="2310" as="sourcePoint" />
          </mxGeometry>
        </mxCell>
        <mxCell id="D-i1duRZGYbxX3AgBeWL-368" style="edgeStyle=orthogonalEdgeStyle;rounded=0;orthogonalLoop=1;jettySize=auto;html=1;entryX=0.5;entryY=0;entryDx=0;entryDy=0;" edge="1" parent="1" target="D-i1duRZGYbxX3AgBeWL-373">
          <mxGeometry relative="1" as="geometry">
            <mxPoint x="740" y="2310" as="sourcePoint" />
          </mxGeometry>
        </mxCell>
        <mxCell id="D-i1duRZGYbxX3AgBeWL-369" style="edgeStyle=orthogonalEdgeStyle;rounded=0;orthogonalLoop=1;jettySize=auto;html=1;entryX=0.5;entryY=0;entryDx=0;entryDy=0;" edge="1" parent="1" target="D-i1duRZGYbxX3AgBeWL-375">
          <mxGeometry relative="1" as="geometry">
            <mxPoint x="780" y="2310" as="sourcePoint" />
          </mxGeometry>
        </mxCell>
        <mxCell id="D-i1duRZGYbxX3AgBeWL-370" style="edgeStyle=orthogonalEdgeStyle;rounded=0;orthogonalLoop=1;jettySize=auto;html=1;exitX=1;exitY=1;exitDx=0;exitDy=0;fontFamily=Times New Roman;fontSize=18;fontColor=default;" edge="1" parent="1" source="D-i1duRZGYbxX3AgBeWL-371">
          <mxGeometry relative="1" as="geometry">
            <mxPoint x="639.8571428571428" y="2410" as="targetPoint" />
          </mxGeometry>
        </mxCell>
        <mxCell id="D-i1duRZGYbxX3AgBeWL-371" value="" style="rounded=0;whiteSpace=wrap;html=1;" vertex="1" parent="1">
          <mxGeometry x="600" y="2340" width="40" height="40" as="geometry" />
        </mxCell>
        <mxCell id="D-i1duRZGYbxX3AgBeWL-372" value="" style="rounded=0;whiteSpace=wrap;html=1;" vertex="1" parent="1">
          <mxGeometry x="640" y="2340" width="40" height="40" as="geometry" />
        </mxCell>
        <mxCell id="D-i1duRZGYbxX3AgBeWL-373" value="" style="rounded=0;whiteSpace=wrap;html=1;" vertex="1" parent="1">
          <mxGeometry x="720" y="2340" width="40" height="40" as="geometry" />
        </mxCell>
        <mxCell id="D-i1duRZGYbxX3AgBeWL-374" style="edgeStyle=orthogonalEdgeStyle;rounded=0;orthogonalLoop=1;jettySize=auto;html=1;exitX=0;exitY=1;exitDx=0;exitDy=0;fontFamily=Times New Roman;fontSize=18;fontColor=default;" edge="1" parent="1" source="D-i1duRZGYbxX3AgBeWL-375">
          <mxGeometry relative="1" as="geometry">
            <mxPoint x="759.8571428571428" y="2410" as="targetPoint" />
          </mxGeometry>
        </mxCell>
        <mxCell id="D-i1duRZGYbxX3AgBeWL-375" value="" style="rounded=0;whiteSpace=wrap;html=1;" vertex="1" parent="1">
          <mxGeometry x="760" y="2340" width="40" height="40" as="geometry" />
        </mxCell>
        <mxCell id="D-i1duRZGYbxX3AgBeWL-376" value="&lt;font style=&quot;font-size: 16px;&quot; face=&quot;Times New Roman&quot;&gt;MixColumn&lt;/font&gt;" style="rounded=1;whiteSpace=wrap;html=1;fillColor=#fff2cc;strokeColor=#d6b656;" vertex="1" parent="1">
          <mxGeometry x="600" y="2410" width="200" height="60" as="geometry" />
        </mxCell>
        <mxCell id="D-i1duRZGYbxX3AgBeWL-377" style="edgeStyle=orthogonalEdgeStyle;rounded=0;orthogonalLoop=1;jettySize=auto;html=1;fontFamily=Helvetica;fontSize=12;fontColor=default;" edge="1" parent="1" source="D-i1duRZGYbxX3AgBeWL-379">
          <mxGeometry relative="1" as="geometry">
            <mxPoint x="620" y="2570" as="targetPoint" />
          </mxGeometry>
        </mxCell>
        <mxCell id="D-i1duRZGYbxX3AgBeWL-378" style="edgeStyle=orthogonalEdgeStyle;rounded=0;orthogonalLoop=1;jettySize=auto;html=1;exitX=1;exitY=0;exitDx=0;exitDy=0;fontFamily=Times New Roman;fontSize=18;fontColor=default;startArrow=classic;startFill=1;endArrow=none;endFill=0;" edge="1" parent="1" source="D-i1duRZGYbxX3AgBeWL-379">
          <mxGeometry relative="1" as="geometry">
            <mxPoint x="639.8571428571428" y="2470" as="targetPoint" />
          </mxGeometry>
        </mxCell>
        <mxCell id="D-i1duRZGYbxX3AgBeWL-379" value="" style="rounded=0;whiteSpace=wrap;html=1;" vertex="1" parent="1">
          <mxGeometry x="600" y="2500" width="40" height="40" as="geometry" />
        </mxCell>
        <mxCell id="D-i1duRZGYbxX3AgBeWL-380" style="edgeStyle=orthogonalEdgeStyle;rounded=0;orthogonalLoop=1;jettySize=auto;html=1;fontFamily=Helvetica;fontSize=12;fontColor=default;" edge="1" parent="1" source="D-i1duRZGYbxX3AgBeWL-381">
          <mxGeometry relative="1" as="geometry">
            <mxPoint x="660" y="2570" as="targetPoint" />
          </mxGeometry>
        </mxCell>
        <mxCell id="D-i1duRZGYbxX3AgBeWL-381" value="" style="rounded=0;whiteSpace=wrap;html=1;" vertex="1" parent="1">
          <mxGeometry x="640" y="2500" width="40" height="40" as="geometry" />
        </mxCell>
        <mxCell id="D-i1duRZGYbxX3AgBeWL-382" style="edgeStyle=orthogonalEdgeStyle;rounded=0;orthogonalLoop=1;jettySize=auto;html=1;fontFamily=Helvetica;fontSize=12;fontColor=default;" edge="1" parent="1" source="D-i1duRZGYbxX3AgBeWL-384">
          <mxGeometry relative="1" as="geometry">
            <mxPoint x="740" y="2570" as="targetPoint" />
          </mxGeometry>
        </mxCell>
        <mxCell id="D-i1duRZGYbxX3AgBeWL-383" style="edgeStyle=orthogonalEdgeStyle;rounded=0;orthogonalLoop=1;jettySize=auto;html=1;exitX=1;exitY=0;exitDx=0;exitDy=0;fontFamily=Times New Roman;fontSize=18;fontColor=default;startArrow=classic;startFill=1;endArrow=none;endFill=0;" edge="1" parent="1" source="D-i1duRZGYbxX3AgBeWL-384">
          <mxGeometry relative="1" as="geometry">
            <mxPoint x="759.8571428571428" y="2470" as="targetPoint" />
          </mxGeometry>
        </mxCell>
        <mxCell id="D-i1duRZGYbxX3AgBeWL-384" value="" style="rounded=0;whiteSpace=wrap;html=1;" vertex="1" parent="1">
          <mxGeometry x="720" y="2500" width="40" height="40" as="geometry" />
        </mxCell>
        <mxCell id="D-i1duRZGYbxX3AgBeWL-385" style="edgeStyle=orthogonalEdgeStyle;rounded=0;orthogonalLoop=1;jettySize=auto;html=1;fontFamily=Helvetica;fontSize=12;fontColor=default;" edge="1" parent="1" source="D-i1duRZGYbxX3AgBeWL-386">
          <mxGeometry relative="1" as="geometry">
            <mxPoint x="780" y="2570" as="targetPoint" />
          </mxGeometry>
        </mxCell>
        <mxCell id="D-i1duRZGYbxX3AgBeWL-386" value="" style="rounded=0;whiteSpace=wrap;html=1;" vertex="1" parent="1">
          <mxGeometry x="760" y="2500" width="40" height="40" as="geometry" />
        </mxCell>
        <mxCell id="D-i1duRZGYbxX3AgBeWL-387" style="edgeStyle=orthogonalEdgeStyle;rounded=0;orthogonalLoop=1;jettySize=auto;html=1;exitX=1;exitY=1;exitDx=0;exitDy=0;entryX=0;entryY=0.5;entryDx=0;entryDy=0;fontFamily=Times New Roman;fontSize=18;fontColor=default;" edge="1" parent="1" source="D-i1duRZGYbxX3AgBeWL-388" target="D-i1duRZGYbxX3AgBeWL-395">
          <mxGeometry relative="1" as="geometry" />
        </mxCell>
        <mxCell id="D-i1duRZGYbxX3AgBeWL-388" value="" style="rounded=0;whiteSpace=wrap;html=1;" vertex="1" parent="1">
          <mxGeometry x="600" y="2570" width="40" height="40" as="geometry" />
        </mxCell>
        <mxCell id="D-i1duRZGYbxX3AgBeWL-389" value="" style="rounded=0;whiteSpace=wrap;html=1;" vertex="1" parent="1">
          <mxGeometry x="640" y="2570" width="40" height="40" as="geometry" />
        </mxCell>
        <mxCell id="D-i1duRZGYbxX3AgBeWL-390" value="" style="rounded=0;whiteSpace=wrap;html=1;" vertex="1" parent="1">
          <mxGeometry x="720" y="2570" width="40" height="40" as="geometry" />
        </mxCell>
        <mxCell id="D-i1duRZGYbxX3AgBeWL-391" style="edgeStyle=orthogonalEdgeStyle;rounded=0;orthogonalLoop=1;jettySize=auto;html=1;exitX=1;exitY=0.5;exitDx=0;exitDy=0;fontFamily=Times New Roman;fontSize=18;fontColor=default;" edge="1" parent="1" source="D-i1duRZGYbxX3AgBeWL-392">
          <mxGeometry relative="1" as="geometry">
            <mxPoint x="1040" y="2590.095238095238" as="targetPoint" />
          </mxGeometry>
        </mxCell>
        <mxCell id="D-i1duRZGYbxX3AgBeWL-392" value="" style="rounded=0;whiteSpace=wrap;html=1;" vertex="1" parent="1">
          <mxGeometry x="760" y="2570" width="40" height="40" as="geometry" />
        </mxCell>
        <mxCell id="D-i1duRZGYbxX3AgBeWL-393" style="edgeStyle=orthogonalEdgeStyle;rounded=0;orthogonalLoop=1;jettySize=auto;html=1;exitX=0;exitY=1;exitDx=0;exitDy=0;fontFamily=Times New Roman;fontSize=18;fontColor=default;" edge="1" parent="1">
          <mxGeometry relative="1" as="geometry">
            <mxPoint x="920" y="2640" as="targetPoint" />
            <mxPoint x="920" y="2310" as="sourcePoint" />
          </mxGeometry>
        </mxCell>
        <mxCell id="D-i1duRZGYbxX3AgBeWL-394" style="edgeStyle=orthogonalEdgeStyle;rounded=0;orthogonalLoop=1;jettySize=auto;html=1;exitX=1;exitY=1;exitDx=0;exitDy=0;fontFamily=Times New Roman;fontSize=18;fontColor=default;" edge="1" parent="1">
          <mxGeometry relative="1" as="geometry">
            <mxPoint x="1039.857142857143" y="2640" as="targetPoint" />
            <mxPoint x="1040" y="2310" as="sourcePoint" />
          </mxGeometry>
        </mxCell>
        <mxCell id="D-i1duRZGYbxX3AgBeWL-395" value="" style="rounded=0;whiteSpace=wrap;html=1;" vertex="1" parent="1">
          <mxGeometry x="880" y="2640" width="40" height="40" as="geometry" />
        </mxCell>
        <mxCell id="D-i1duRZGYbxX3AgBeWL-396" value="" style="rounded=0;whiteSpace=wrap;html=1;" vertex="1" parent="1">
          <mxGeometry x="920" y="2640" width="40" height="40" as="geometry" />
        </mxCell>
        <mxCell id="D-i1duRZGYbxX3AgBeWL-397" value="2" style="rounded=0;whiteSpace=wrap;html=1;fillColor=#ffcc99;strokeColor=#36393d;" vertex="1" parent="1">
          <mxGeometry x="1000" y="2640" width="40" height="40" as="geometry" />
        </mxCell>
        <mxCell id="D-i1duRZGYbxX3AgBeWL-398" value="1" style="rounded=0;whiteSpace=wrap;html=1;fillColor=#ffcc99;strokeColor=#36393d;" vertex="1" parent="1">
          <mxGeometry x="1040" y="2640" width="40" height="40" as="geometry" />
        </mxCell>
        <mxCell id="D-i1duRZGYbxX3AgBeWL-399" style="rounded=0;orthogonalLoop=1;jettySize=auto;html=1;exitX=1;exitY=0;exitDx=0;exitDy=0;fontFamily=Times New Roman;fontSize=18;fontColor=default;endArrow=none;endFill=0;dashed=1;" edge="1" parent="1" source="D-i1duRZGYbxX3AgBeWL-400">
          <mxGeometry relative="1" as="geometry">
            <mxPoint x="360" y="2720" as="targetPoint" />
          </mxGeometry>
        </mxCell>
        <mxCell id="D-i1duRZGYbxX3AgBeWL-400" value="4" style="rounded=0;whiteSpace=wrap;html=1;fillColor=#ffcc99;strokeColor=#36393d;" vertex="1" parent="1">
          <mxGeometry x="40" y="2790" width="40" height="40" as="geometry" />
        </mxCell>
        <mxCell id="D-i1duRZGYbxX3AgBeWL-401" value="2" style="rounded=0;whiteSpace=wrap;html=1;fillColor=#ffcc99;strokeColor=#36393d;" vertex="1" parent="1">
          <mxGeometry x="80" y="2790" width="40" height="40" as="geometry" />
        </mxCell>
        <mxCell id="D-i1duRZGYbxX3AgBeWL-402" value="2" style="rounded=0;whiteSpace=wrap;html=1;fillColor=#ffcc99;strokeColor=#36393d;" vertex="1" parent="1">
          <mxGeometry x="160" y="2790" width="40" height="40" as="geometry" />
        </mxCell>
        <mxCell id="D-i1duRZGYbxX3AgBeWL-403" style="rounded=0;orthogonalLoop=1;jettySize=auto;html=1;exitX=0;exitY=0;exitDx=0;exitDy=0;fontFamily=Times New Roman;fontSize=18;fontColor=default;dashed=1;strokeColor=default;align=center;verticalAlign=middle;labelBackgroundColor=default;endArrow=none;endFill=0;" edge="1" parent="1" source="D-i1duRZGYbxX3AgBeWL-404">
          <mxGeometry relative="1" as="geometry">
            <mxPoint x="1040" y="2720" as="targetPoint" />
          </mxGeometry>
        </mxCell>
        <mxCell id="D-i1duRZGYbxX3AgBeWL-404" value="1" style="rounded=0;whiteSpace=wrap;html=1;fillColor=#ffcc99;strokeColor=#36393d;" vertex="1" parent="1">
          <mxGeometry x="200" y="2790" width="40" height="40" as="geometry" />
        </mxCell>
        <mxCell id="D-i1duRZGYbxX3AgBeWL-405" style="rounded=0;orthogonalLoop=1;jettySize=auto;html=1;exitX=1;exitY=0;exitDx=0;exitDy=0;fontFamily=Times New Roman;fontSize=18;fontColor=default;dashed=1;strokeColor=default;align=center;verticalAlign=middle;labelBackgroundColor=default;endArrow=none;endFill=0;" edge="1" parent="1" source="D-i1duRZGYbxX3AgBeWL-406">
          <mxGeometry relative="1" as="geometry">
            <mxPoint x="580" y="2720" as="targetPoint" />
          </mxGeometry>
        </mxCell>
        <mxCell id="D-i1duRZGYbxX3AgBeWL-406" value="" style="rounded=0;whiteSpace=wrap;html=1;" vertex="1" parent="1">
          <mxGeometry x="320" y="2790" width="40" height="40" as="geometry" />
        </mxCell>
        <mxCell id="D-i1duRZGYbxX3AgBeWL-407" value="" style="rounded=0;whiteSpace=wrap;html=1;" vertex="1" parent="1">
          <mxGeometry x="360" y="2790" width="40" height="40" as="geometry" />
        </mxCell>
        <mxCell id="D-i1duRZGYbxX3AgBeWL-408" value="" style="rounded=0;whiteSpace=wrap;html=1;" vertex="1" parent="1">
          <mxGeometry x="440" y="2790" width="40" height="40" as="geometry" />
        </mxCell>
        <mxCell id="D-i1duRZGYbxX3AgBeWL-409" style="rounded=0;orthogonalLoop=1;jettySize=auto;html=1;exitX=0;exitY=0;exitDx=0;exitDy=0;fontFamily=Times New Roman;fontSize=18;fontColor=default;dashed=1;strokeColor=default;align=center;verticalAlign=middle;labelBackgroundColor=default;endArrow=none;endFill=0;" edge="1" parent="1" source="D-i1duRZGYbxX3AgBeWL-410">
          <mxGeometry relative="1" as="geometry">
            <mxPoint x="260" y="2720" as="targetPoint" />
          </mxGeometry>
        </mxCell>
        <mxCell id="D-i1duRZGYbxX3AgBeWL-410" value="" style="rounded=0;whiteSpace=wrap;html=1;" vertex="1" parent="1">
          <mxGeometry x="480" y="2790" width="40" height="40" as="geometry" />
        </mxCell>
        <mxCell id="D-i1duRZGYbxX3AgBeWL-411" style="rounded=0;orthogonalLoop=1;jettySize=auto;html=1;exitX=1;exitY=0;exitDx=0;exitDy=0;fontFamily=Times New Roman;fontSize=18;fontColor=default;dashed=1;strokeColor=default;align=center;verticalAlign=middle;labelBackgroundColor=default;endArrow=none;endFill=0;" edge="1" parent="1" source="D-i1duRZGYbxX3AgBeWL-412">
          <mxGeometry relative="1" as="geometry">
            <mxPoint x="920" y="2720" as="targetPoint" />
          </mxGeometry>
        </mxCell>
        <mxCell id="D-i1duRZGYbxX3AgBeWL-412" value="" style="rounded=0;whiteSpace=wrap;html=1;" vertex="1" parent="1">
          <mxGeometry x="600" y="2790" width="40" height="40" as="geometry" />
        </mxCell>
        <mxCell id="D-i1duRZGYbxX3AgBeWL-413" value="" style="rounded=0;whiteSpace=wrap;html=1;" vertex="1" parent="1">
          <mxGeometry x="640" y="2790" width="40" height="40" as="geometry" />
        </mxCell>
        <mxCell id="D-i1duRZGYbxX3AgBeWL-414" value="" style="rounded=0;whiteSpace=wrap;html=1;" vertex="1" parent="1">
          <mxGeometry x="720" y="2790" width="40" height="40" as="geometry" />
        </mxCell>
        <mxCell id="D-i1duRZGYbxX3AgBeWL-415" style="rounded=0;orthogonalLoop=1;jettySize=auto;html=1;exitX=0;exitY=0;exitDx=0;exitDy=0;fontFamily=Times New Roman;fontSize=18;fontColor=default;dashed=1;strokeColor=default;align=center;verticalAlign=middle;labelBackgroundColor=default;endArrow=none;endFill=0;" edge="1" parent="1" source="D-i1duRZGYbxX3AgBeWL-416">
          <mxGeometry relative="1" as="geometry">
            <mxPoint x="480" y="2720" as="targetPoint" />
          </mxGeometry>
        </mxCell>
        <mxCell id="D-i1duRZGYbxX3AgBeWL-416" value="" style="rounded=0;whiteSpace=wrap;html=1;" vertex="1" parent="1">
          <mxGeometry x="760" y="2790" width="40" height="40" as="geometry" />
        </mxCell>
        <mxCell id="D-i1duRZGYbxX3AgBeWL-417" style="rounded=0;orthogonalLoop=1;jettySize=auto;html=1;exitX=1;exitY=0;exitDx=0;exitDy=0;fontFamily=Times New Roman;fontSize=18;fontColor=default;dashed=1;strokeColor=default;align=center;verticalAlign=middle;labelBackgroundColor=default;endArrow=none;endFill=0;" edge="1" parent="1" source="D-i1duRZGYbxX3AgBeWL-418">
          <mxGeometry relative="1" as="geometry">
            <mxPoint x="20" y="2720" as="targetPoint" />
          </mxGeometry>
        </mxCell>
        <mxCell id="D-i1duRZGYbxX3AgBeWL-418" value="" style="rounded=0;whiteSpace=wrap;html=1;" vertex="1" parent="1">
          <mxGeometry x="880" y="2790" width="40" height="40" as="geometry" />
        </mxCell>
        <mxCell id="D-i1duRZGYbxX3AgBeWL-419" value="" style="rounded=0;whiteSpace=wrap;html=1;" vertex="1" parent="1">
          <mxGeometry x="920" y="2790" width="40" height="40" as="geometry" />
        </mxCell>
        <mxCell id="D-i1duRZGYbxX3AgBeWL-420" style="rounded=0;orthogonalLoop=1;jettySize=auto;html=1;exitX=1;exitY=0;exitDx=0;exitDy=0;fontFamily=Times New Roman;fontSize=18;fontColor=default;dashed=1;strokeColor=default;align=center;verticalAlign=middle;labelBackgroundColor=default;endArrow=none;endFill=0;" edge="1" parent="1" source="D-i1duRZGYbxX3AgBeWL-421">
          <mxGeometry relative="1" as="geometry">
            <mxPoint x="820" y="2720" as="targetPoint" />
          </mxGeometry>
        </mxCell>
        <mxCell id="D-i1duRZGYbxX3AgBeWL-421" value="" style="rounded=0;whiteSpace=wrap;html=1;" vertex="1" parent="1">
          <mxGeometry x="1000" y="2790" width="40" height="40" as="geometry" />
        </mxCell>
        <mxCell id="D-i1duRZGYbxX3AgBeWL-422" value="" style="rounded=0;whiteSpace=wrap;html=1;" vertex="1" parent="1">
          <mxGeometry x="1040" y="2790" width="40" height="40" as="geometry" />
        </mxCell>
        <mxCell id="D-i1duRZGYbxX3AgBeWL-423" style="edgeStyle=orthogonalEdgeStyle;rounded=0;orthogonalLoop=1;jettySize=auto;html=1;fontFamily=Times New Roman;fontSize=18;fontColor=default;endArrow=none;endFill=0;dashed=1;" edge="1" parent="1">
          <mxGeometry relative="1" as="geometry">
            <mxPoint x="579.17" y="2720" as="targetPoint" />
            <mxPoint x="599.17" y="2290" as="sourcePoint" />
          </mxGeometry>
        </mxCell>
        <mxCell id="D-i1duRZGYbxX3AgBeWL-424" style="edgeStyle=orthogonalEdgeStyle;rounded=0;orthogonalLoop=1;jettySize=auto;html=1;fontFamily=Times New Roman;fontSize=18;fontColor=default;dashed=1;strokeColor=default;align=center;verticalAlign=middle;labelBackgroundColor=default;endArrow=none;endFill=0;" edge="1" parent="1">
          <mxGeometry relative="1" as="geometry">
            <mxPoint x="819.17" y="2720" as="targetPoint" />
            <mxPoint x="799.17" y="2290" as="sourcePoint" />
          </mxGeometry>
        </mxCell>
        <mxCell id="D-i1duRZGYbxX3AgBeWL-425" style="edgeStyle=orthogonalEdgeStyle;rounded=0;orthogonalLoop=1;jettySize=auto;html=1;exitX=0;exitY=1;exitDx=0;exitDy=0;fontFamily=Times New Roman;fontSize=18;fontColor=default;dashed=1;strokeColor=default;align=center;verticalAlign=middle;labelBackgroundColor=default;endArrow=none;endFill=0;" edge="1" parent="1">
          <mxGeometry relative="1" as="geometry">
            <mxPoint x="919.17" y="2720" as="targetPoint" />
            <mxPoint x="919.17" y="2680" as="sourcePoint" />
          </mxGeometry>
        </mxCell>
        <mxCell id="D-i1duRZGYbxX3AgBeWL-426" style="edgeStyle=orthogonalEdgeStyle;rounded=0;orthogonalLoop=1;jettySize=auto;html=1;exitX=0;exitY=1;exitDx=0;exitDy=0;fontFamily=Times New Roman;fontSize=18;fontColor=default;dashed=1;strokeColor=default;align=center;verticalAlign=middle;labelBackgroundColor=default;endArrow=none;endFill=0;" edge="1" parent="1">
          <mxGeometry relative="1" as="geometry">
            <mxPoint x="1039.17" y="2720" as="targetPoint" />
            <mxPoint x="1039.17" y="2680" as="sourcePoint" />
          </mxGeometry>
        </mxCell>
        <mxCell id="D-i1duRZGYbxX3AgBeWL-427" style="edgeStyle=orthogonalEdgeStyle;rounded=0;orthogonalLoop=1;jettySize=auto;html=1;entryX=0.5;entryY=0;entryDx=0;entryDy=0;curved=0;endArrow=classic;endFill=1;strokeWidth=1;" edge="1" parent="1" target="D-i1duRZGYbxX3AgBeWL-434">
          <mxGeometry relative="1" as="geometry">
            <mxPoint x="60" y="2830" as="sourcePoint" />
          </mxGeometry>
        </mxCell>
        <mxCell id="D-i1duRZGYbxX3AgBeWL-428" style="edgeStyle=orthogonalEdgeStyle;rounded=0;orthogonalLoop=1;jettySize=auto;html=1;fontFamily=Times New Roman;fontSize=18;fontColor=default;endArrow=none;endFill=0;dashed=1;" edge="1" parent="1">
          <mxGeometry relative="1" as="geometry">
            <mxPoint x="20" y="3240" as="targetPoint" />
            <mxPoint x="40" y="2810" as="sourcePoint" />
          </mxGeometry>
        </mxCell>
        <mxCell id="D-i1duRZGYbxX3AgBeWL-429" style="edgeStyle=orthogonalEdgeStyle;rounded=0;orthogonalLoop=1;jettySize=auto;html=1;entryX=0.5;entryY=0;entryDx=0;entryDy=0;" edge="1" parent="1" target="D-i1duRZGYbxX3AgBeWL-435">
          <mxGeometry relative="1" as="geometry">
            <mxPoint x="100" y="2830" as="sourcePoint" />
          </mxGeometry>
        </mxCell>
        <mxCell id="D-i1duRZGYbxX3AgBeWL-430" style="edgeStyle=orthogonalEdgeStyle;rounded=0;orthogonalLoop=1;jettySize=auto;html=1;entryX=0.5;entryY=0;entryDx=0;entryDy=0;" edge="1" parent="1" target="D-i1duRZGYbxX3AgBeWL-436">
          <mxGeometry relative="1" as="geometry">
            <mxPoint x="180" y="2830" as="sourcePoint" />
          </mxGeometry>
        </mxCell>
        <mxCell id="D-i1duRZGYbxX3AgBeWL-431" style="edgeStyle=orthogonalEdgeStyle;rounded=0;orthogonalLoop=1;jettySize=auto;html=1;entryX=0.5;entryY=0;entryDx=0;entryDy=0;" edge="1" parent="1" target="D-i1duRZGYbxX3AgBeWL-438">
          <mxGeometry relative="1" as="geometry">
            <mxPoint x="220" y="2830" as="sourcePoint" />
          </mxGeometry>
        </mxCell>
        <mxCell id="D-i1duRZGYbxX3AgBeWL-432" style="edgeStyle=orthogonalEdgeStyle;rounded=0;orthogonalLoop=1;jettySize=auto;html=1;fontFamily=Times New Roman;fontSize=18;fontColor=default;dashed=1;strokeColor=default;align=center;verticalAlign=middle;labelBackgroundColor=default;endArrow=none;endFill=0;" edge="1" parent="1">
          <mxGeometry relative="1" as="geometry">
            <mxPoint x="260" y="3240" as="targetPoint" />
            <mxPoint x="240" y="2810" as="sourcePoint" />
          </mxGeometry>
        </mxCell>
        <mxCell id="D-i1duRZGYbxX3AgBeWL-433" style="edgeStyle=orthogonalEdgeStyle;rounded=0;orthogonalLoop=1;jettySize=auto;html=1;exitX=1;exitY=1;exitDx=0;exitDy=0;fontFamily=Times New Roman;fontSize=18;fontColor=default;" edge="1" parent="1" source="D-i1duRZGYbxX3AgBeWL-434">
          <mxGeometry relative="1" as="geometry">
            <mxPoint x="79.85714285714278" y="2930" as="targetPoint" />
          </mxGeometry>
        </mxCell>
        <mxCell id="D-i1duRZGYbxX3AgBeWL-434" value="2" style="rounded=0;whiteSpace=wrap;html=1;fillColor=#ffcc99;strokeColor=#36393d;" vertex="1" parent="1">
          <mxGeometry x="40" y="2860" width="40" height="40" as="geometry" />
        </mxCell>
        <mxCell id="D-i1duRZGYbxX3AgBeWL-435" value="6" style="rounded=0;whiteSpace=wrap;html=1;fillColor=#ffcc99;strokeColor=#36393d;" vertex="1" parent="1">
          <mxGeometry x="80" y="2860" width="40" height="40" as="geometry" />
        </mxCell>
        <mxCell id="D-i1duRZGYbxX3AgBeWL-436" value="5" style="rounded=0;whiteSpace=wrap;html=1;fillColor=#ffcc99;strokeColor=#36393d;" vertex="1" parent="1">
          <mxGeometry x="160" y="2860" width="40" height="40" as="geometry" />
        </mxCell>
        <mxCell id="D-i1duRZGYbxX3AgBeWL-437" style="edgeStyle=orthogonalEdgeStyle;rounded=0;orthogonalLoop=1;jettySize=auto;html=1;exitX=0;exitY=1;exitDx=0;exitDy=0;fontFamily=Times New Roman;fontSize=18;fontColor=default;" edge="1" parent="1" source="D-i1duRZGYbxX3AgBeWL-438">
          <mxGeometry relative="1" as="geometry">
            <mxPoint x="199.85714285714278" y="2930" as="targetPoint" />
          </mxGeometry>
        </mxCell>
        <mxCell id="D-i1duRZGYbxX3AgBeWL-438" value="11" style="rounded=0;whiteSpace=wrap;html=1;fillColor=#ffcc99;strokeColor=#36393d;" vertex="1" parent="1">
          <mxGeometry x="200" y="2860" width="40" height="40" as="geometry" />
        </mxCell>
        <mxCell id="D-i1duRZGYbxX3AgBeWL-439" value="&lt;font style=&quot;font-size: 16px;&quot; face=&quot;Times New Roman&quot;&gt;MixColumn&lt;/font&gt;" style="rounded=1;whiteSpace=wrap;html=1;fillColor=#fff2cc;strokeColor=#d6b656;" vertex="1" parent="1">
          <mxGeometry x="40" y="2930" width="200" height="60" as="geometry" />
        </mxCell>
        <mxCell id="D-i1duRZGYbxX3AgBeWL-440" style="edgeStyle=orthogonalEdgeStyle;rounded=0;orthogonalLoop=1;jettySize=auto;html=1;fontFamily=Helvetica;fontSize=12;fontColor=default;" edge="1" parent="1" source="D-i1duRZGYbxX3AgBeWL-442">
          <mxGeometry relative="1" as="geometry">
            <mxPoint x="60" y="3090" as="targetPoint" />
          </mxGeometry>
        </mxCell>
        <mxCell id="D-i1duRZGYbxX3AgBeWL-441" style="edgeStyle=orthogonalEdgeStyle;rounded=0;orthogonalLoop=1;jettySize=auto;html=1;exitX=1;exitY=0;exitDx=0;exitDy=0;fontFamily=Times New Roman;fontSize=18;fontColor=default;startArrow=classic;startFill=1;endArrow=none;endFill=0;" edge="1" parent="1" source="D-i1duRZGYbxX3AgBeWL-442">
          <mxGeometry relative="1" as="geometry">
            <mxPoint x="79.85714285714278" y="2990" as="targetPoint" />
          </mxGeometry>
        </mxCell>
        <mxCell id="D-i1duRZGYbxX3AgBeWL-442" value="" style="rounded=0;whiteSpace=wrap;html=1;" vertex="1" parent="1">
          <mxGeometry x="40" y="3020" width="40" height="40" as="geometry" />
        </mxCell>
        <mxCell id="D-i1duRZGYbxX3AgBeWL-443" style="edgeStyle=orthogonalEdgeStyle;rounded=0;orthogonalLoop=1;jettySize=auto;html=1;fontFamily=Helvetica;fontSize=12;fontColor=default;" edge="1" parent="1" source="D-i1duRZGYbxX3AgBeWL-444">
          <mxGeometry relative="1" as="geometry">
            <mxPoint x="100" y="3090" as="targetPoint" />
          </mxGeometry>
        </mxCell>
        <mxCell id="D-i1duRZGYbxX3AgBeWL-444" value="10" style="rounded=0;whiteSpace=wrap;html=1;fillColor=#ffcc99;strokeColor=#36393d;" vertex="1" parent="1">
          <mxGeometry x="80" y="3020" width="40" height="40" as="geometry" />
        </mxCell>
        <mxCell id="D-i1duRZGYbxX3AgBeWL-445" style="edgeStyle=orthogonalEdgeStyle;rounded=0;orthogonalLoop=1;jettySize=auto;html=1;fontFamily=Helvetica;fontSize=12;fontColor=default;" edge="1" parent="1" source="D-i1duRZGYbxX3AgBeWL-447">
          <mxGeometry relative="1" as="geometry">
            <mxPoint x="180" y="3090" as="targetPoint" />
          </mxGeometry>
        </mxCell>
        <mxCell id="D-i1duRZGYbxX3AgBeWL-446" style="edgeStyle=orthogonalEdgeStyle;rounded=0;orthogonalLoop=1;jettySize=auto;html=1;exitX=1;exitY=0;exitDx=0;exitDy=0;fontFamily=Times New Roman;fontSize=18;fontColor=default;startArrow=classic;startFill=1;endArrow=none;endFill=0;" edge="1" parent="1" source="D-i1duRZGYbxX3AgBeWL-447">
          <mxGeometry relative="1" as="geometry">
            <mxPoint x="199.85714285714278" y="2990" as="targetPoint" />
          </mxGeometry>
        </mxCell>
        <mxCell id="D-i1duRZGYbxX3AgBeWL-447" value="" style="rounded=0;whiteSpace=wrap;html=1;" vertex="1" parent="1">
          <mxGeometry x="160" y="3020" width="40" height="40" as="geometry" />
        </mxCell>
        <mxCell id="D-i1duRZGYbxX3AgBeWL-448" style="edgeStyle=orthogonalEdgeStyle;rounded=0;orthogonalLoop=1;jettySize=auto;html=1;fontFamily=Helvetica;fontSize=12;fontColor=default;" edge="1" parent="1" source="D-i1duRZGYbxX3AgBeWL-449">
          <mxGeometry relative="1" as="geometry">
            <mxPoint x="220" y="3090" as="targetPoint" />
          </mxGeometry>
        </mxCell>
        <mxCell id="D-i1duRZGYbxX3AgBeWL-449" value="" style="rounded=0;whiteSpace=wrap;html=1;" vertex="1" parent="1">
          <mxGeometry x="200" y="3020" width="40" height="40" as="geometry" />
        </mxCell>
        <mxCell id="D-i1duRZGYbxX3AgBeWL-450" style="edgeStyle=orthogonalEdgeStyle;rounded=0;orthogonalLoop=1;jettySize=auto;html=1;exitX=1;exitY=1;exitDx=0;exitDy=0;entryX=0;entryY=0.5;entryDx=0;entryDy=0;fontFamily=Times New Roman;fontSize=18;fontColor=default;" edge="1" parent="1" source="D-i1duRZGYbxX3AgBeWL-451" target="D-i1duRZGYbxX3AgBeWL-458">
          <mxGeometry relative="1" as="geometry" />
        </mxCell>
        <mxCell id="D-i1duRZGYbxX3AgBeWL-451" value="" style="rounded=0;whiteSpace=wrap;html=1;" vertex="1" parent="1">
          <mxGeometry x="40" y="3090" width="40" height="40" as="geometry" />
        </mxCell>
        <mxCell id="D-i1duRZGYbxX3AgBeWL-452" value="5" style="rounded=0;whiteSpace=wrap;html=1;fillColor=#ffcc99;strokeColor=#36393d;" vertex="1" parent="1">
          <mxGeometry x="80" y="3090" width="40" height="40" as="geometry" />
        </mxCell>
        <mxCell id="D-i1duRZGYbxX3AgBeWL-453" value="" style="rounded=0;whiteSpace=wrap;html=1;" vertex="1" parent="1">
          <mxGeometry x="160" y="3090" width="40" height="40" as="geometry" />
        </mxCell>
        <mxCell id="D-i1duRZGYbxX3AgBeWL-454" style="edgeStyle=orthogonalEdgeStyle;rounded=0;orthogonalLoop=1;jettySize=auto;html=1;exitX=1;exitY=0.5;exitDx=0;exitDy=0;fontFamily=Times New Roman;fontSize=18;fontColor=default;" edge="1" parent="1" source="D-i1duRZGYbxX3AgBeWL-455">
          <mxGeometry relative="1" as="geometry">
            <mxPoint x="480" y="3110.095238095238" as="targetPoint" />
          </mxGeometry>
        </mxCell>
        <mxCell id="D-i1duRZGYbxX3AgBeWL-455" value="" style="rounded=0;whiteSpace=wrap;html=1;" vertex="1" parent="1">
          <mxGeometry x="200" y="3090" width="40" height="40" as="geometry" />
        </mxCell>
        <mxCell id="D-i1duRZGYbxX3AgBeWL-456" style="edgeStyle=orthogonalEdgeStyle;rounded=0;orthogonalLoop=1;jettySize=auto;html=1;exitX=0;exitY=1;exitDx=0;exitDy=0;fontFamily=Times New Roman;fontSize=18;fontColor=default;" edge="1" parent="1">
          <mxGeometry relative="1" as="geometry">
            <mxPoint x="360" y="3160" as="targetPoint" />
            <mxPoint x="360" y="2830" as="sourcePoint" />
          </mxGeometry>
        </mxCell>
        <mxCell id="D-i1duRZGYbxX3AgBeWL-457" style="edgeStyle=orthogonalEdgeStyle;rounded=0;orthogonalLoop=1;jettySize=auto;html=1;exitX=1;exitY=1;exitDx=0;exitDy=0;fontFamily=Times New Roman;fontSize=18;fontColor=default;" edge="1" parent="1">
          <mxGeometry relative="1" as="geometry">
            <mxPoint x="479.8571428571429" y="3160" as="targetPoint" />
            <mxPoint x="480" y="2830" as="sourcePoint" />
          </mxGeometry>
        </mxCell>
        <mxCell id="D-i1duRZGYbxX3AgBeWL-458" value="" style="rounded=0;whiteSpace=wrap;html=1;" vertex="1" parent="1">
          <mxGeometry x="320" y="3160" width="40" height="40" as="geometry" />
        </mxCell>
        <mxCell id="D-i1duRZGYbxX3AgBeWL-459" style="edgeStyle=orthogonalEdgeStyle;rounded=0;orthogonalLoop=1;jettySize=auto;html=1;exitX=0;exitY=1;exitDx=0;exitDy=0;fontFamily=Times New Roman;fontSize=18;fontColor=default;dashed=1;strokeColor=default;align=center;verticalAlign=middle;labelBackgroundColor=default;endArrow=none;endFill=0;" edge="1" parent="1" source="D-i1duRZGYbxX3AgBeWL-460">
          <mxGeometry relative="1" as="geometry">
            <mxPoint x="360" y="3240" as="targetPoint" />
          </mxGeometry>
        </mxCell>
        <mxCell id="D-i1duRZGYbxX3AgBeWL-460" value="5" style="rounded=0;whiteSpace=wrap;html=1;fillColor=#ffcc99;strokeColor=#36393d;" vertex="1" parent="1">
          <mxGeometry x="360" y="3160" width="40" height="40" as="geometry" />
        </mxCell>
        <mxCell id="D-i1duRZGYbxX3AgBeWL-461" value="" style="rounded=0;whiteSpace=wrap;html=1;" vertex="1" parent="1">
          <mxGeometry x="440" y="3160" width="40" height="40" as="geometry" />
        </mxCell>
        <mxCell id="D-i1duRZGYbxX3AgBeWL-462" style="edgeStyle=orthogonalEdgeStyle;rounded=0;orthogonalLoop=1;jettySize=auto;html=1;exitX=0;exitY=1;exitDx=0;exitDy=0;fontFamily=Times New Roman;fontSize=18;fontColor=default;dashed=1;strokeColor=default;align=center;verticalAlign=middle;labelBackgroundColor=default;endArrow=none;endFill=0;" edge="1" parent="1" source="D-i1duRZGYbxX3AgBeWL-463">
          <mxGeometry relative="1" as="geometry">
            <mxPoint x="480" y="3240" as="targetPoint" />
          </mxGeometry>
        </mxCell>
        <mxCell id="D-i1duRZGYbxX3AgBeWL-463" value="" style="rounded=0;whiteSpace=wrap;html=1;" vertex="1" parent="1">
          <mxGeometry x="480" y="3160" width="40" height="40" as="geometry" />
        </mxCell>
        <mxCell id="D-i1duRZGYbxX3AgBeWL-464" style="edgeStyle=orthogonalEdgeStyle;rounded=0;orthogonalLoop=1;jettySize=auto;html=1;entryX=0.5;entryY=0;entryDx=0;entryDy=0;curved=0;endArrow=classic;endFill=1;strokeWidth=1;" edge="1" parent="1" target="D-i1duRZGYbxX3AgBeWL-469">
          <mxGeometry relative="1" as="geometry">
            <mxPoint x="620" y="2830" as="sourcePoint" />
          </mxGeometry>
        </mxCell>
        <mxCell id="D-i1duRZGYbxX3AgBeWL-465" style="edgeStyle=orthogonalEdgeStyle;rounded=0;orthogonalLoop=1;jettySize=auto;html=1;entryX=0.5;entryY=0;entryDx=0;entryDy=0;" edge="1" parent="1" target="D-i1duRZGYbxX3AgBeWL-470">
          <mxGeometry relative="1" as="geometry">
            <mxPoint x="660" y="2830" as="sourcePoint" />
          </mxGeometry>
        </mxCell>
        <mxCell id="D-i1duRZGYbxX3AgBeWL-466" style="edgeStyle=orthogonalEdgeStyle;rounded=0;orthogonalLoop=1;jettySize=auto;html=1;entryX=0.5;entryY=0;entryDx=0;entryDy=0;" edge="1" parent="1" target="D-i1duRZGYbxX3AgBeWL-471">
          <mxGeometry relative="1" as="geometry">
            <mxPoint x="740" y="2830" as="sourcePoint" />
          </mxGeometry>
        </mxCell>
        <mxCell id="D-i1duRZGYbxX3AgBeWL-467" style="edgeStyle=orthogonalEdgeStyle;rounded=0;orthogonalLoop=1;jettySize=auto;html=1;entryX=0.5;entryY=0;entryDx=0;entryDy=0;" edge="1" parent="1" target="D-i1duRZGYbxX3AgBeWL-473">
          <mxGeometry relative="1" as="geometry">
            <mxPoint x="780" y="2830" as="sourcePoint" />
          </mxGeometry>
        </mxCell>
        <mxCell id="D-i1duRZGYbxX3AgBeWL-468" style="edgeStyle=orthogonalEdgeStyle;rounded=0;orthogonalLoop=1;jettySize=auto;html=1;exitX=1;exitY=1;exitDx=0;exitDy=0;fontFamily=Times New Roman;fontSize=18;fontColor=default;" edge="1" parent="1" source="D-i1duRZGYbxX3AgBeWL-469">
          <mxGeometry relative="1" as="geometry">
            <mxPoint x="639.8571428571428" y="2930" as="targetPoint" />
          </mxGeometry>
        </mxCell>
        <mxCell id="D-i1duRZGYbxX3AgBeWL-469" value="" style="rounded=0;whiteSpace=wrap;html=1;" vertex="1" parent="1">
          <mxGeometry x="600" y="2860" width="40" height="40" as="geometry" />
        </mxCell>
        <mxCell id="D-i1duRZGYbxX3AgBeWL-470" value="" style="rounded=0;whiteSpace=wrap;html=1;" vertex="1" parent="1">
          <mxGeometry x="640" y="2860" width="40" height="40" as="geometry" />
        </mxCell>
        <mxCell id="D-i1duRZGYbxX3AgBeWL-471" value="" style="rounded=0;whiteSpace=wrap;html=1;" vertex="1" parent="1">
          <mxGeometry x="720" y="2860" width="40" height="40" as="geometry" />
        </mxCell>
        <mxCell id="D-i1duRZGYbxX3AgBeWL-472" style="edgeStyle=orthogonalEdgeStyle;rounded=0;orthogonalLoop=1;jettySize=auto;html=1;exitX=0;exitY=1;exitDx=0;exitDy=0;fontFamily=Times New Roman;fontSize=18;fontColor=default;" edge="1" parent="1" source="D-i1duRZGYbxX3AgBeWL-473">
          <mxGeometry relative="1" as="geometry">
            <mxPoint x="759.8571428571428" y="2930" as="targetPoint" />
          </mxGeometry>
        </mxCell>
        <mxCell id="D-i1duRZGYbxX3AgBeWL-473" value="" style="rounded=0;whiteSpace=wrap;html=1;" vertex="1" parent="1">
          <mxGeometry x="760" y="2860" width="40" height="40" as="geometry" />
        </mxCell>
        <mxCell id="D-i1duRZGYbxX3AgBeWL-474" value="&lt;font style=&quot;font-size: 16px;&quot; face=&quot;Times New Roman&quot;&gt;MixColumn&lt;/font&gt;" style="rounded=1;whiteSpace=wrap;html=1;fillColor=#fff2cc;strokeColor=#d6b656;" vertex="1" parent="1">
          <mxGeometry x="600" y="2930" width="200" height="60" as="geometry" />
        </mxCell>
        <mxCell id="D-i1duRZGYbxX3AgBeWL-475" style="edgeStyle=orthogonalEdgeStyle;rounded=0;orthogonalLoop=1;jettySize=auto;html=1;fontFamily=Helvetica;fontSize=12;fontColor=default;" edge="1" parent="1" source="D-i1duRZGYbxX3AgBeWL-477">
          <mxGeometry relative="1" as="geometry">
            <mxPoint x="620" y="3090" as="targetPoint" />
          </mxGeometry>
        </mxCell>
        <mxCell id="D-i1duRZGYbxX3AgBeWL-476" style="edgeStyle=orthogonalEdgeStyle;rounded=0;orthogonalLoop=1;jettySize=auto;html=1;exitX=1;exitY=0;exitDx=0;exitDy=0;fontFamily=Times New Roman;fontSize=18;fontColor=default;startArrow=classic;startFill=1;endArrow=none;endFill=0;" edge="1" parent="1" source="D-i1duRZGYbxX3AgBeWL-477">
          <mxGeometry relative="1" as="geometry">
            <mxPoint x="639.8571428571428" y="2990" as="targetPoint" />
          </mxGeometry>
        </mxCell>
        <mxCell id="D-i1duRZGYbxX3AgBeWL-477" value="" style="rounded=0;whiteSpace=wrap;html=1;" vertex="1" parent="1">
          <mxGeometry x="600" y="3020" width="40" height="40" as="geometry" />
        </mxCell>
        <mxCell id="D-i1duRZGYbxX3AgBeWL-478" style="edgeStyle=orthogonalEdgeStyle;rounded=0;orthogonalLoop=1;jettySize=auto;html=1;fontFamily=Helvetica;fontSize=12;fontColor=default;" edge="1" parent="1" source="D-i1duRZGYbxX3AgBeWL-479">
          <mxGeometry relative="1" as="geometry">
            <mxPoint x="660" y="3090" as="targetPoint" />
          </mxGeometry>
        </mxCell>
        <mxCell id="D-i1duRZGYbxX3AgBeWL-479" value="" style="rounded=0;whiteSpace=wrap;html=1;" vertex="1" parent="1">
          <mxGeometry x="640" y="3020" width="40" height="40" as="geometry" />
        </mxCell>
        <mxCell id="D-i1duRZGYbxX3AgBeWL-480" style="edgeStyle=orthogonalEdgeStyle;rounded=0;orthogonalLoop=1;jettySize=auto;html=1;fontFamily=Helvetica;fontSize=12;fontColor=default;" edge="1" parent="1" source="D-i1duRZGYbxX3AgBeWL-482">
          <mxGeometry relative="1" as="geometry">
            <mxPoint x="740" y="3090" as="targetPoint" />
          </mxGeometry>
        </mxCell>
        <mxCell id="D-i1duRZGYbxX3AgBeWL-481" style="edgeStyle=orthogonalEdgeStyle;rounded=0;orthogonalLoop=1;jettySize=auto;html=1;exitX=1;exitY=0;exitDx=0;exitDy=0;fontFamily=Times New Roman;fontSize=18;fontColor=default;startArrow=classic;startFill=1;endArrow=none;endFill=0;" edge="1" parent="1" source="D-i1duRZGYbxX3AgBeWL-482">
          <mxGeometry relative="1" as="geometry">
            <mxPoint x="759.8571428571428" y="2990" as="targetPoint" />
          </mxGeometry>
        </mxCell>
        <mxCell id="D-i1duRZGYbxX3AgBeWL-482" value="" style="rounded=0;whiteSpace=wrap;html=1;" vertex="1" parent="1">
          <mxGeometry x="720" y="3020" width="40" height="40" as="geometry" />
        </mxCell>
        <mxCell id="D-i1duRZGYbxX3AgBeWL-483" style="edgeStyle=orthogonalEdgeStyle;rounded=0;orthogonalLoop=1;jettySize=auto;html=1;fontFamily=Helvetica;fontSize=12;fontColor=default;" edge="1" parent="1" source="D-i1duRZGYbxX3AgBeWL-484">
          <mxGeometry relative="1" as="geometry">
            <mxPoint x="780" y="3090" as="targetPoint" />
          </mxGeometry>
        </mxCell>
        <mxCell id="D-i1duRZGYbxX3AgBeWL-484" value="" style="rounded=0;whiteSpace=wrap;html=1;" vertex="1" parent="1">
          <mxGeometry x="760" y="3020" width="40" height="40" as="geometry" />
        </mxCell>
        <mxCell id="D-i1duRZGYbxX3AgBeWL-485" style="edgeStyle=orthogonalEdgeStyle;rounded=0;orthogonalLoop=1;jettySize=auto;html=1;exitX=1;exitY=1;exitDx=0;exitDy=0;entryX=0;entryY=0.5;entryDx=0;entryDy=0;fontFamily=Times New Roman;fontSize=18;fontColor=default;" edge="1" parent="1" source="D-i1duRZGYbxX3AgBeWL-486" target="D-i1duRZGYbxX3AgBeWL-493">
          <mxGeometry relative="1" as="geometry" />
        </mxCell>
        <mxCell id="D-i1duRZGYbxX3AgBeWL-486" value="" style="rounded=0;whiteSpace=wrap;html=1;" vertex="1" parent="1">
          <mxGeometry x="600" y="3090" width="40" height="40" as="geometry" />
        </mxCell>
        <mxCell id="D-i1duRZGYbxX3AgBeWL-487" value="" style="rounded=0;whiteSpace=wrap;html=1;" vertex="1" parent="1">
          <mxGeometry x="640" y="3090" width="40" height="40" as="geometry" />
        </mxCell>
        <mxCell id="D-i1duRZGYbxX3AgBeWL-488" value="" style="rounded=0;whiteSpace=wrap;html=1;" vertex="1" parent="1">
          <mxGeometry x="720" y="3090" width="40" height="40" as="geometry" />
        </mxCell>
        <mxCell id="D-i1duRZGYbxX3AgBeWL-489" style="edgeStyle=orthogonalEdgeStyle;rounded=0;orthogonalLoop=1;jettySize=auto;html=1;exitX=1;exitY=0.5;exitDx=0;exitDy=0;fontFamily=Times New Roman;fontSize=18;fontColor=default;" edge="1" parent="1" source="D-i1duRZGYbxX3AgBeWL-490">
          <mxGeometry relative="1" as="geometry">
            <mxPoint x="1040" y="3110.095238095238" as="targetPoint" />
          </mxGeometry>
        </mxCell>
        <mxCell id="D-i1duRZGYbxX3AgBeWL-490" value="" style="rounded=0;whiteSpace=wrap;html=1;" vertex="1" parent="1">
          <mxGeometry x="760" y="3090" width="40" height="40" as="geometry" />
        </mxCell>
        <mxCell id="D-i1duRZGYbxX3AgBeWL-491" style="edgeStyle=orthogonalEdgeStyle;rounded=0;orthogonalLoop=1;jettySize=auto;html=1;exitX=0;exitY=1;exitDx=0;exitDy=0;fontFamily=Times New Roman;fontSize=18;fontColor=default;" edge="1" parent="1">
          <mxGeometry relative="1" as="geometry">
            <mxPoint x="920" y="3160" as="targetPoint" />
            <mxPoint x="920" y="2830" as="sourcePoint" />
          </mxGeometry>
        </mxCell>
        <mxCell id="D-i1duRZGYbxX3AgBeWL-492" style="edgeStyle=orthogonalEdgeStyle;rounded=0;orthogonalLoop=1;jettySize=auto;html=1;exitX=1;exitY=1;exitDx=0;exitDy=0;fontFamily=Times New Roman;fontSize=18;fontColor=default;" edge="1" parent="1">
          <mxGeometry relative="1" as="geometry">
            <mxPoint x="1039.857142857143" y="3160" as="targetPoint" />
            <mxPoint x="1040" y="2830" as="sourcePoint" />
          </mxGeometry>
        </mxCell>
        <mxCell id="D-i1duRZGYbxX3AgBeWL-493" value="" style="rounded=0;whiteSpace=wrap;html=1;" vertex="1" parent="1">
          <mxGeometry x="880" y="3160" width="40" height="40" as="geometry" />
        </mxCell>
        <mxCell id="D-i1duRZGYbxX3AgBeWL-494" value="" style="rounded=0;whiteSpace=wrap;html=1;" vertex="1" parent="1">
          <mxGeometry x="920" y="3160" width="40" height="40" as="geometry" />
        </mxCell>
        <mxCell id="D-i1duRZGYbxX3AgBeWL-495" value="" style="rounded=0;whiteSpace=wrap;html=1;" vertex="1" parent="1">
          <mxGeometry x="1000" y="3160" width="40" height="40" as="geometry" />
        </mxCell>
        <mxCell id="D-i1duRZGYbxX3AgBeWL-496" value="" style="rounded=0;whiteSpace=wrap;html=1;" vertex="1" parent="1">
          <mxGeometry x="1040" y="3160" width="40" height="40" as="geometry" />
        </mxCell>
        <mxCell id="D-i1duRZGYbxX3AgBeWL-497" style="rounded=0;orthogonalLoop=1;jettySize=auto;html=1;exitX=1;exitY=0;exitDx=0;exitDy=0;fontFamily=Times New Roman;fontSize=18;fontColor=default;endArrow=none;endFill=0;dashed=1;" edge="1" parent="1" source="D-i1duRZGYbxX3AgBeWL-498">
          <mxGeometry relative="1" as="geometry">
            <mxPoint x="360" y="3240" as="targetPoint" />
          </mxGeometry>
        </mxCell>
        <mxCell id="D-i1duRZGYbxX3AgBeWL-498" value="" style="rounded=0;whiteSpace=wrap;html=1;" vertex="1" parent="1">
          <mxGeometry x="40" y="3310" width="40" height="40" as="geometry" />
        </mxCell>
        <mxCell id="D-i1duRZGYbxX3AgBeWL-499" value="5" style="rounded=0;whiteSpace=wrap;html=1;fillColor=#ffcc99;strokeColor=#36393d;" vertex="1" parent="1">
          <mxGeometry x="80" y="3310" width="40" height="40" as="geometry" />
        </mxCell>
        <mxCell id="D-i1duRZGYbxX3AgBeWL-500" value="" style="rounded=0;whiteSpace=wrap;html=1;" vertex="1" parent="1">
          <mxGeometry x="160" y="3310" width="40" height="40" as="geometry" />
        </mxCell>
        <mxCell id="D-i1duRZGYbxX3AgBeWL-501" style="rounded=0;orthogonalLoop=1;jettySize=auto;html=1;exitX=0;exitY=0;exitDx=0;exitDy=0;fontFamily=Times New Roman;fontSize=18;fontColor=default;dashed=1;strokeColor=default;align=center;verticalAlign=middle;labelBackgroundColor=default;endArrow=none;endFill=0;" edge="1" parent="1" source="D-i1duRZGYbxX3AgBeWL-502">
          <mxGeometry relative="1" as="geometry">
            <mxPoint x="1040" y="3240" as="targetPoint" />
          </mxGeometry>
        </mxCell>
        <mxCell id="D-i1duRZGYbxX3AgBeWL-502" value="" style="rounded=0;whiteSpace=wrap;html=1;" vertex="1" parent="1">
          <mxGeometry x="200" y="3310" width="40" height="40" as="geometry" />
        </mxCell>
        <mxCell id="D-i1duRZGYbxX3AgBeWL-503" style="rounded=0;orthogonalLoop=1;jettySize=auto;html=1;exitX=1;exitY=0;exitDx=0;exitDy=0;fontFamily=Times New Roman;fontSize=18;fontColor=default;dashed=1;strokeColor=default;align=center;verticalAlign=middle;labelBackgroundColor=default;endArrow=none;endFill=0;" edge="1" parent="1" source="D-i1duRZGYbxX3AgBeWL-504">
          <mxGeometry relative="1" as="geometry">
            <mxPoint x="580" y="3240" as="targetPoint" />
          </mxGeometry>
        </mxCell>
        <mxCell id="D-i1duRZGYbxX3AgBeWL-504" value="" style="rounded=0;whiteSpace=wrap;html=1;" vertex="1" parent="1">
          <mxGeometry x="320" y="3310" width="40" height="40" as="geometry" />
        </mxCell>
        <mxCell id="D-i1duRZGYbxX3AgBeWL-505" value="" style="rounded=0;whiteSpace=wrap;html=1;" vertex="1" parent="1">
          <mxGeometry x="360" y="3310" width="40" height="40" as="geometry" />
        </mxCell>
        <mxCell id="D-i1duRZGYbxX3AgBeWL-506" value="2" style="rounded=0;whiteSpace=wrap;html=1;fillColor=#ffcc99;strokeColor=#36393d;" vertex="1" parent="1">
          <mxGeometry x="440" y="3310" width="40" height="40" as="geometry" />
        </mxCell>
        <mxCell id="D-i1duRZGYbxX3AgBeWL-507" style="rounded=0;orthogonalLoop=1;jettySize=auto;html=1;exitX=0;exitY=0;exitDx=0;exitDy=0;fontFamily=Times New Roman;fontSize=18;fontColor=default;dashed=1;strokeColor=default;align=center;verticalAlign=middle;labelBackgroundColor=default;endArrow=none;endFill=0;" edge="1" parent="1" source="D-i1duRZGYbxX3AgBeWL-508">
          <mxGeometry relative="1" as="geometry">
            <mxPoint x="260" y="3240" as="targetPoint" />
          </mxGeometry>
        </mxCell>
        <mxCell id="D-i1duRZGYbxX3AgBeWL-508" value="1" style="rounded=0;whiteSpace=wrap;html=1;fillColor=#ffcc99;strokeColor=#36393d;" vertex="1" parent="1">
          <mxGeometry x="480" y="3310" width="40" height="40" as="geometry" />
        </mxCell>
        <mxCell id="D-i1duRZGYbxX3AgBeWL-509" style="rounded=0;orthogonalLoop=1;jettySize=auto;html=1;exitX=1;exitY=0;exitDx=0;exitDy=0;fontFamily=Times New Roman;fontSize=18;fontColor=default;dashed=1;strokeColor=default;align=center;verticalAlign=middle;labelBackgroundColor=default;endArrow=none;endFill=0;" edge="1" parent="1" source="D-i1duRZGYbxX3AgBeWL-510">
          <mxGeometry relative="1" as="geometry">
            <mxPoint x="920" y="3240" as="targetPoint" />
          </mxGeometry>
        </mxCell>
        <mxCell id="D-i1duRZGYbxX3AgBeWL-510" value="" style="rounded=0;whiteSpace=wrap;html=1;" vertex="1" parent="1">
          <mxGeometry x="600" y="3310" width="40" height="40" as="geometry" />
        </mxCell>
        <mxCell id="D-i1duRZGYbxX3AgBeWL-511" value="" style="rounded=0;whiteSpace=wrap;html=1;" vertex="1" parent="1">
          <mxGeometry x="640" y="3310" width="40" height="40" as="geometry" />
        </mxCell>
        <mxCell id="D-i1duRZGYbxX3AgBeWL-512" value="" style="rounded=0;whiteSpace=wrap;html=1;" vertex="1" parent="1">
          <mxGeometry x="720" y="3310" width="40" height="40" as="geometry" />
        </mxCell>
        <mxCell id="D-i1duRZGYbxX3AgBeWL-513" style="rounded=0;orthogonalLoop=1;jettySize=auto;html=1;exitX=0;exitY=0;exitDx=0;exitDy=0;fontFamily=Times New Roman;fontSize=18;fontColor=default;dashed=1;strokeColor=default;align=center;verticalAlign=middle;labelBackgroundColor=default;endArrow=none;endFill=0;" edge="1" parent="1" source="D-i1duRZGYbxX3AgBeWL-514">
          <mxGeometry relative="1" as="geometry">
            <mxPoint x="480" y="3240" as="targetPoint" />
          </mxGeometry>
        </mxCell>
        <mxCell id="D-i1duRZGYbxX3AgBeWL-514" value="" style="rounded=0;whiteSpace=wrap;html=1;" vertex="1" parent="1">
          <mxGeometry x="760" y="3310" width="40" height="40" as="geometry" />
        </mxCell>
        <mxCell id="D-i1duRZGYbxX3AgBeWL-515" style="rounded=0;orthogonalLoop=1;jettySize=auto;html=1;exitX=1;exitY=0;exitDx=0;exitDy=0;fontFamily=Times New Roman;fontSize=18;fontColor=default;dashed=1;strokeColor=default;align=center;verticalAlign=middle;labelBackgroundColor=default;endArrow=none;endFill=0;" edge="1" parent="1" source="D-i1duRZGYbxX3AgBeWL-516">
          <mxGeometry relative="1" as="geometry">
            <mxPoint x="20" y="3240" as="targetPoint" />
          </mxGeometry>
        </mxCell>
        <mxCell id="D-i1duRZGYbxX3AgBeWL-516" value="4" style="rounded=0;whiteSpace=wrap;html=1;fillColor=#ffcc99;strokeColor=#36393d;" vertex="1" parent="1">
          <mxGeometry x="880" y="3310" width="40" height="40" as="geometry" />
        </mxCell>
        <mxCell id="D-i1duRZGYbxX3AgBeWL-517" value="2" style="rounded=0;whiteSpace=wrap;html=1;fillColor=#ffcc99;strokeColor=#36393d;" vertex="1" parent="1">
          <mxGeometry x="920" y="3310" width="40" height="40" as="geometry" />
        </mxCell>
        <mxCell id="D-i1duRZGYbxX3AgBeWL-518" style="rounded=0;orthogonalLoop=1;jettySize=auto;html=1;exitX=1;exitY=0;exitDx=0;exitDy=0;fontFamily=Times New Roman;fontSize=18;fontColor=default;dashed=1;strokeColor=default;align=center;verticalAlign=middle;labelBackgroundColor=default;endArrow=none;endFill=0;" edge="1" parent="1" source="D-i1duRZGYbxX3AgBeWL-519">
          <mxGeometry relative="1" as="geometry">
            <mxPoint x="820" y="3240" as="targetPoint" />
          </mxGeometry>
        </mxCell>
        <mxCell id="D-i1duRZGYbxX3AgBeWL-519" value="" style="rounded=0;whiteSpace=wrap;html=1;" vertex="1" parent="1">
          <mxGeometry x="1000" y="3310" width="40" height="40" as="geometry" />
        </mxCell>
        <mxCell id="D-i1duRZGYbxX3AgBeWL-520" value="" style="rounded=0;whiteSpace=wrap;html=1;" vertex="1" parent="1">
          <mxGeometry x="1040" y="3310" width="40" height="40" as="geometry" />
        </mxCell>
        <mxCell id="D-i1duRZGYbxX3AgBeWL-521" style="edgeStyle=orthogonalEdgeStyle;rounded=0;orthogonalLoop=1;jettySize=auto;html=1;fontFamily=Times New Roman;fontSize=18;fontColor=default;endArrow=none;endFill=0;dashed=1;" edge="1" parent="1">
          <mxGeometry relative="1" as="geometry">
            <mxPoint x="579.17" y="3240" as="targetPoint" />
            <mxPoint x="599.17" y="2810" as="sourcePoint" />
          </mxGeometry>
        </mxCell>
        <mxCell id="D-i1duRZGYbxX3AgBeWL-522" style="edgeStyle=orthogonalEdgeStyle;rounded=0;orthogonalLoop=1;jettySize=auto;html=1;fontFamily=Times New Roman;fontSize=18;fontColor=default;dashed=1;strokeColor=default;align=center;verticalAlign=middle;labelBackgroundColor=default;endArrow=none;endFill=0;" edge="1" parent="1">
          <mxGeometry relative="1" as="geometry">
            <mxPoint x="819.17" y="3240" as="targetPoint" />
            <mxPoint x="799.17" y="2810" as="sourcePoint" />
          </mxGeometry>
        </mxCell>
        <mxCell id="D-i1duRZGYbxX3AgBeWL-523" style="edgeStyle=orthogonalEdgeStyle;rounded=0;orthogonalLoop=1;jettySize=auto;html=1;exitX=0;exitY=1;exitDx=0;exitDy=0;fontFamily=Times New Roman;fontSize=18;fontColor=default;dashed=1;strokeColor=default;align=center;verticalAlign=middle;labelBackgroundColor=default;endArrow=none;endFill=0;" edge="1" parent="1">
          <mxGeometry relative="1" as="geometry">
            <mxPoint x="919.17" y="3240" as="targetPoint" />
            <mxPoint x="919.17" y="3200" as="sourcePoint" />
          </mxGeometry>
        </mxCell>
        <mxCell id="D-i1duRZGYbxX3AgBeWL-524" style="edgeStyle=orthogonalEdgeStyle;rounded=0;orthogonalLoop=1;jettySize=auto;html=1;exitX=0;exitY=1;exitDx=0;exitDy=0;fontFamily=Times New Roman;fontSize=18;fontColor=default;dashed=1;strokeColor=default;align=center;verticalAlign=middle;labelBackgroundColor=default;endArrow=none;endFill=0;" edge="1" parent="1">
          <mxGeometry relative="1" as="geometry">
            <mxPoint x="1039.17" y="3240" as="targetPoint" />
            <mxPoint x="1039.17" y="3200" as="sourcePoint" />
          </mxGeometry>
        </mxCell>
      </root>
    </mxGraphModel>
  </diagram>
</mxfile>
